<svg id="Capa_1" data-name="Capa 1" xmlns="http://www.w3.org/2000/svg" viewBox="0 0 141.89 128.22"><defs><style>.cls-1{fill:none;}.cls-1,.cls-3{stroke:#343434;stroke-miterlimit:10;}.cls-2,.cls-3{fill:#343434;}.cls-3{stroke-width:0.5px;}</style></defs><title>isologo</title><line class="cls-1" x1="20.48" y1="21.56" x2="120.58" y2="21.56"/><line class="cls-1" x1="20.48" y1="89.9" x2="120.58" y2="89.9"/><path class="cls-2" d="M209.09,71.21a1.91,1.91,0,0,0-1.82-2h-2.71a1.71,1.71,0,0,0-1.28.6l-5.39.36V68.89a2.42,2.42,0,0,0-2.31-2.5L148,66.62a2.42,2.42,0,0,0-2.28,2.52v1.33l-5.39-.31a1.7,1.7,0,0,0-1.28-.59h-2.72a1.92,1.92,0,0,0-1.8,2V73a1.9,1.9,0,0,0,1.82,2H139a1.7,1.7,0,0,0,1.28-.6L145.7,74l0,2,51.7-.31L145.72,76A2.63,2.63,0,0,0,148,77.83l47.62-.23a2.44,2.44,0,0,0,2.29-2.53V73.75l5.39.31a1.69,1.69,0,0,0,1.28.58h2.72a1.89,1.89,0,0,0,1.79-2Z" transform="translate(-101.26 -66.39)"/><path class="cls-3" d="M122.57,182.69c-.79.47-1.43.82-1.9,1.06a6.69,6.69,0,0,1-2.85.81,2.84,2.84,0,0,1-2.34-1.19,3.15,3.15,0,0,1-.67-2c0-2.07,1-4.5,3.15-7.26a32,32,0,0,1,6.76-6.6q3.15-2.27,5.4-2.27a2.34,2.34,0,0,1,1.85.83,2.25,2.25,0,0,1,.54,1.5q0,2.64-3,5.46c-1.51,1.45-2.66,2.17-3.44,2.17a.91.91,0,0,1-.52-.18.61.61,0,0,1-.28-.5c0-.25.25-.56.77-.93a17.16,17.16,0,0,0,3.21-2.81c1.29-1.48,1.94-2.66,1.94-3.53a.66.66,0,0,0-.3-.56,1.14,1.14,0,0,0-.68-.19,5.32,5.32,0,0,0-2.48.93,28.89,28.89,0,0,0-6.41,5.56,27.14,27.14,0,0,0-3.41,4.78,8,8,0,0,0-1.19,3.54,1.61,1.61,0,0,0,.4,1,1.76,1.76,0,0,0,1.42.65,6.09,6.09,0,0,0,3.06-1.13,26.54,26.54,0,0,0,3.25-2.29,2.36,2.36,0,0,1,1.24-.72.66.66,0,0,1,.49.19.93.93,0,0,1,.24.64,2,2,0,0,1-.59,1.12,28.2,28.2,0,0,0-1.89,2.59c-1,1.44-1.88,5-2.71,6.69a26.13,26.13,0,0,0-1.33,3,2.55,2.55,0,0,1-.43,1,1,1,0,0,1-.81.3.81.81,0,0,1-.9-.85,18.28,18.28,0,0,1,1.73-6.45c.18-.33.77-1.3,1.76-2.91C121.88,183.83,122.18,183.34,122.57,182.69Z" transform="translate(-101.26 -66.39)"/><path class="cls-3" d="M130.89,180c-.35.79-.61,1.42-.79,1.91a3.73,3.73,0,0,0-.26,1c0,.26.14.38.42.38s1-.34,1.62-1a17.58,17.58,0,0,0,1.4-1.8,1,1,0,0,1,.77-.51c.3,0,.46.12.46.37,0,.44-.58,1.32-1.73,2.64s-2.32,2.07-3.34,2.07a1.39,1.39,0,0,1-1.09-.48,1.31,1.31,0,0,1-.29-.85,7.08,7.08,0,0,1,.59-2.35,35.19,35.19,0,0,1,1.77-3.64,49.39,49.39,0,0,1,6.13-9q2.5-2.85,4.14-2.85a1.15,1.15,0,0,1,.86.35,1.11,1.11,0,0,1,.35.8q0,2.13-4.37,7.06a41,41,0,0,1-4.68,4.39C132.37,178.8,131.72,179.32,130.89,180Zm1.24-2.41a28.81,28.81,0,0,0,6.5-6.81,7.23,7.23,0,0,0,1.49-2.83.3.3,0,0,0-.34-.33c-.64,0-1.8,1.11-3.49,3.31A45.65,45.65,0,0,0,132.13,177.55Z" transform="translate(-101.26 -66.39)"/><path class="cls-3" d="M140.59,182.67a15.87,15.87,0,0,1-1.33,1.45,3,3,0,0,1-2,1,1.55,1.55,0,0,1-1.33-.66,1.92,1.92,0,0,1-.33-1.12,7.78,7.78,0,0,1,1.92-4.48,8.19,8.19,0,0,1,1.77-1.8,2,2,0,0,1,1.11-.5.69.69,0,0,1,.46.18.45.45,0,0,1,.17.33c0,.19-.21.5-.64.94a15.77,15.77,0,0,0-2.2,2.75,5,5,0,0,0-.88,2.3.43.43,0,0,0,.12.33.4.4,0,0,0,.32.11c.59,0,1.42-.73,2.48-2.21a13.23,13.23,0,0,0,1.42-2.54,4.88,4.88,0,0,1,.82-1.35,1.35,1.35,0,0,1,1-.53.69.69,0,0,1,.47.2.64.64,0,0,1,.23.47,7.17,7.17,0,0,1-1.21,2.45,4.42,4.42,0,0,0-.82,2.2,2.34,2.34,0,0,0,.58,1.6,3.86,3.86,0,0,0,1,.58.66.66,0,0,1,.38.63.57.57,0,0,1-.27.47,1.09,1.09,0,0,1-.65.2,2.35,2.35,0,0,1-1.59-.61,2.5,2.5,0,0,1-.83-1.57A7.41,7.41,0,0,1,140.59,182.67Z" transform="translate(-101.26 -66.39)"/><path class="cls-3" d="M151.4,175.24a24.47,24.47,0,0,0-2.09,3.42,10.19,10.19,0,0,0-1.38,4,.81.81,0,0,0,.18.57.73.73,0,0,0,.55.2c.58,0,1.29-.48,2.11-1.43a17.87,17.87,0,0,0,1.4-1.75.91.91,0,0,1,.72-.5.56.56,0,0,1,.38.14.36.36,0,0,1,.14.27c0,.37-.56,1.2-1.69,2.5Q149.7,185,148,185a1.86,1.86,0,0,1-1.48-.71,2,2,0,0,1-.37-1.29,9.89,9.89,0,0,1,1.22-4.27c.2-.4.75-1.38,1.65-2.92a3.82,3.82,0,0,1-.72.11,1.39,1.39,0,0,1-.65-.16.61.61,0,0,1-.38-.53q0-.37.51-.6a8.8,8.8,0,0,1,1.29-.2,8.67,8.67,0,0,0,1.22-.29,28.13,28.13,0,0,1,2-2.58,15.31,15.31,0,0,1,1.07-1.18,1.15,1.15,0,0,1,.73-.38.67.67,0,0,1,.46.21.55.55,0,0,1,.21.39,3.77,3.77,0,0,1-1,1.56,14.1,14.1,0,0,0-1,1.23,14.38,14.38,0,0,1,2.78-.46c.64,0,1,.24,1,.7a.54.54,0,0,1-.33.51,3.12,3.12,0,0,1-.91.16,19.81,19.81,0,0,0-2.64.57Z" transform="translate(-101.26 -66.39)"/><path class="cls-3" d="M155.11,182.08v.27a.9.9,0,0,0,.19.58,1.71,1.71,0,0,0,1.43.56q2.19,0,5.05-2.91a1.43,1.43,0,0,1,.86-.5.49.49,0,0,1,.35.17.36.36,0,0,1,.1.23c0,.39-.56,1.06-1.67,2a13,13,0,0,1-2.8,1.81,6.59,6.59,0,0,1-2.76.69,2.73,2.73,0,0,1-2.06-.78,2.11,2.11,0,0,1-.51-1.49q0-2.55,2.78-5c1.5-1.33,2.81-2,3.93-2a1.39,1.39,0,0,1,.82.25,1,1,0,0,1,.46.83,3.64,3.64,0,0,1-.86,2A9.15,9.15,0,0,1,155.11,182.08Zm.38-1.18a6.74,6.74,0,0,0,3.86-2.66,1.16,1.16,0,0,0,.27-.65c0-.21-.11-.31-.34-.31a2.65,2.65,0,0,0-1.29.59A8,8,0,0,0,155.49,180.9Z" transform="translate(-101.26 -66.39)"/><path class="cls-3" d="M166.8,179.79l.43-.36q3.66-3.09,4.9-3.09c.45,0,.68.22.68.65a1.68,1.68,0,0,1-.61,1.08q-3.34,3.38-3.34,6a2.77,2.77,0,0,0,.52,1.59,1,1,0,0,1,.25.54.46.46,0,0,1-.21.35.76.76,0,0,1-.54.21,1.42,1.42,0,0,1-1.21-.78,3.36,3.36,0,0,1-.47-1.81A8,8,0,0,1,169,179.6a12.72,12.72,0,0,0-4.42,4.66c-.35.54-.72.8-1.12.8a.71.71,0,0,1-.73-.72q0-.83,2.15-4.29a29.44,29.44,0,0,1,1.82-2.72c.44-.56.82-.83,1.13-.83a.68.68,0,0,1,.44.18.63.63,0,0,1,.24.48,1.83,1.83,0,0,1-.5,1A16.41,16.41,0,0,0,166.8,179.79Z" transform="translate(-101.26 -66.39)"/><path class="cls-3" d="M194.69,167.76a26.06,26.06,0,0,0-2.42,2.91c-1,1.37-1.74,2.43-2.18,3.18a36.29,36.29,0,0,1,5.23-.66,3.52,3.52,0,0,1,1.06.13.53.53,0,0,1,.42.56c0,.62-.41.94-1.22.94h-.28l-.77,0a28.36,28.36,0,0,0-5.75,1,42.54,42.54,0,0,0-4.49,9.09c-.18.53-.45.8-.82.8a1,1,0,0,1-.82-.47,1.12,1.12,0,0,1-.27-.7,12.69,12.69,0,0,1,1-2.66,46,46,0,0,1,4.54-8c1.25-1.79,2.61-3.68,4.1-5.68-.39,0-.59-.24-.59-.58,0-.49.55-.87,1.66-1.13,1.54-.37,3-.66,4.49-.86a28.21,28.21,0,0,1,3.78-.35c1.36,0,2,.3,2,.89a.86.86,0,0,1-.47.74.83.83,0,0,1-.44.12,5.08,5.08,0,0,1-.59,0,8.56,8.56,0,0,0-1-.08,26.57,26.57,0,0,0-3.18.32A21.37,21.37,0,0,0,194.69,167.76Z" transform="translate(-101.26 -66.39)"/><path class="cls-3" d="M199,180a32.8,32.8,0,0,1,3.94-3.11,16.89,16.89,0,0,1,1.72-1,2,2,0,0,1,.57-.23.71.71,0,0,1,.53.34.54.54,0,0,1,.15.33c0,.18-.22.43-.66.74-1.19.82-1.78,1.43-1.78,1.85,0,.23.15.35.45.35a6.43,6.43,0,0,0,2.59-1.08A1.11,1.11,0,0,1,207,178a.41.41,0,0,1,.28.12.38.38,0,0,1,.16.29c0,.3-.49.76-1.47,1.39a5.36,5.36,0,0,1-2.92,1,2.16,2.16,0,0,1-1-.26.77.77,0,0,1-.4-.76,1.49,1.49,0,0,1,.37-.86,16.36,16.36,0,0,0-3.25,2.91,21,21,0,0,0-2.15,3.13,1.16,1.16,0,0,1-1,.7c-.43,0-.64-.18-.64-.53a10.69,10.69,0,0,1,1-2.76,20.29,20.29,0,0,1,3.14-5.16c.68-.76,1.25-1.13,1.7-1.13a.79.79,0,0,1,.42.12.45.45,0,0,1,.23.38,1.18,1.18,0,0,1-.35.63l-.93,1A7.39,7.39,0,0,0,199,180Z" transform="translate(-101.26 -66.39)"/><path class="cls-3" d="M208.11,182.08v.27a.9.9,0,0,0,.19.58,1.71,1.71,0,0,0,1.43.56q2.19,0,5.05-2.91a1.4,1.4,0,0,1,.86-.5.49.49,0,0,1,.35.17.36.36,0,0,1,.1.23c0,.39-.56,1.06-1.68,2a12.69,12.69,0,0,1-2.79,1.81,6.59,6.59,0,0,1-2.76.69,2.71,2.71,0,0,1-2.06-.78,2.11,2.11,0,0,1-.51-1.49c0-1.7.92-3.37,2.78-5,1.5-1.33,2.81-2,3.93-2a1.39,1.39,0,0,1,.82.25,1,1,0,0,1,.45.83,3.61,3.61,0,0,1-.85,2A9.15,9.15,0,0,1,208.11,182.08Zm.38-1.18a7,7,0,0,0,1.92-.82,7.15,7.15,0,0,0,1.94-1.84,1.14,1.14,0,0,0,.26-.65c0-.21-.11-.31-.33-.31a2.65,2.65,0,0,0-1.29.59A7.94,7.94,0,0,0,208.49,180.9Z" transform="translate(-101.26 -66.39)"/><path class="cls-3" d="M217.93,182.08v.27a.9.9,0,0,0,.19.58,1.71,1.71,0,0,0,1.43.56q2.19,0,5-2.91a1.4,1.4,0,0,1,.86-.5.49.49,0,0,1,.35.17.36.36,0,0,1,.1.23c0,.39-.56,1.06-1.68,2a12.69,12.69,0,0,1-2.79,1.81,6.59,6.59,0,0,1-2.76.69,2.71,2.71,0,0,1-2.06-.78,2.11,2.11,0,0,1-.51-1.49q0-2.55,2.78-5c1.5-1.33,2.81-2,3.93-2a1.39,1.39,0,0,1,.82.25,1,1,0,0,1,.45.83,3.61,3.61,0,0,1-.85,2A9.15,9.15,0,0,1,217.93,182.08Zm.38-1.18a7,7,0,0,0,1.92-.82,7.15,7.15,0,0,0,1.94-1.84,1.14,1.14,0,0,0,.26-.65c0-.21-.11-.31-.33-.31a2.65,2.65,0,0,0-1.29.59A7.94,7.94,0,0,0,218.31,180.9Z" transform="translate(-101.26 -66.39)"/><path class="cls-2" d="M117.85,146.49l-6.11-29.17,0-.12q-1-5.11-1.44-8.07V110c0,.94,0,2-.08,3.18s-.14,2.54-.25,4l-2.25,29.26h-6.43l4.88-48.32h7.26l6,28.25c.27,1.22.5,2.48.71,3.78s.39,2.61.52,3.93c.14-1.32.31-2.62.5-3.9s.43-2.55.69-3.81l6.08-28.25h7.22L140,146.49h-6.41l-2.27-29.26c-.13-1.48-.21-2.79-.26-3.93S131,111.05,131,110v-.82c-.15,1.14-.33,2.32-.55,3.56s-.52,2.78-.91,4.63l-6.15,29.17Z" transform="translate(-101.26 -66.39)"/><path class="cls-2" d="M145.5,146.49V98.17h7.39v48.32Z" transform="translate(-101.26 -66.39)"/><path class="cls-2" d="M171.4,118.81a15.7,15.7,0,0,1,5.18,5.65,17,17,0,0,1,1.56,7.69q0,6.84-3,11.1a9.08,9.08,0,0,1-7.77,4.24,9.56,9.56,0,0,1-5.52-1.72,17.32,17.32,0,0,1-4.72-5.28l3.59-6.79a13.59,13.59,0,0,0,3.1,3.81,5.28,5.28,0,0,0,3.3,1.31,3.56,3.56,0,0,0,3-1.6,7.07,7.07,0,0,0,1.15-4.19,6.19,6.19,0,0,0-.68-3,9.51,9.51,0,0,0-2.71-2.71l-3.46-2.56a16.35,16.35,0,0,1-5.11-5.73,17,17,0,0,1-1.5-7.55,17.29,17.29,0,0,1,2.89-10.24A8.62,8.62,0,0,1,168,97.1a9.18,9.18,0,0,1,5.44,1.68,13.33,13.33,0,0,1,4.09,5L173.44,110a10.83,10.83,0,0,0-2.5-3.17,4.41,4.41,0,0,0-2.8-1,2.9,2.9,0,0,0-2.45,1.39,6,6,0,0,0-1,3.51,6.6,6.6,0,0,0,.71,3.11,7.18,7.18,0,0,0,2.17,2.4Z" transform="translate(-101.26 -66.39)"/><path class="cls-2" d="M183.07,146.49V98.17h7.38v21.89l12-21.89h8.51L197.8,121.55l13.73,24.94h-8.89l-12.19-22.56v22.56Z" transform="translate(-101.26 -66.39)"/><path class="cls-2" d="M222.76,137.26,221,146.49h-7.47l10.77-48.32h8.07l10.77,48.32h-7.43L234,137.26Zm1-7.67h8.56l-4.24-22.84Z" transform="translate(-101.26 -66.39)"/></svg>