<?xml version="1.0" standalone="no"?>
<!DOCTYPE svg PUBLIC "-//W3C//DTD SVG 1.1//EN" "http://www.w3.org/Graphics/SVG/1.1/DTD/svg11.dtd" >
<svg xmlns="http://www.w3.org/2000/svg" xmlns:xlink="http://www.w3.org/1999/xlink" version="1.1">
<metadata>
Created by FontForge 20190801 at Mon Sep  2 13:41:14 2019
 By Unknown
(c)2019,Graphix Line Studio
</metadata>
<defs>
<font id="EverythingRegular" horiz-adv-x="541" >
  <font-face 
    font-family="Everything"
    font-weight="400"
    font-stretch="normal"
    units-per-em="1000"
    panose-1="0 0 0 0 0 0 0 0 0 0"
    ascent="800"
    descent="-200"
    x-height="352.5"
    cap-height="765"
    bbox="-448.75 -310.908 857.457 931.154"
    underline-thickness="50"
    underline-position="-200"
    unicode-range="U+000A-F020"
  />
<missing-glyph horiz-adv-x="527" 
d="M50 700h427v-700h-427v700zM78 680l185 -309l186 309h-371zM251 350l-180 300v-601zM264 329l-185 -308h370zM276 350l181 -303v605z" />
    <glyph glyph-name="ee.liga" unicode="ee" horiz-adv-x="549" 
d="M567 308q11 22 24 11q11 -11 4 -34q-9 -29 -27.5 -63t-44 -69.5t-59 -59t-67.5 -23.5q-22 0 -42 8t-36.5 24t-27.5 38q-13 30 -20 68q-53 -75 -118 -91q-38 -9 -68.5 2t-48.5 36t-27.5 59t-8.5 69t12 68.5t32 55.5q18 21 46 29.5t53 0.5q22 -7 32 -27.5t8 -44.5
q-3 -44 -43 -68t-90 -23q0 -55 25 -86q13 -16 32.5 -20t37.5 1.5t35 18.5q28 21 51 53.5t35 66.5q1 3 3 5q5 34 19 63q30 58 89 64q20 2 36.5 -5.5t26 -22.5t10.5 -35q2 -33 -19 -57.5t-50.5 -35t-63.5 -10.5q0 -40 10 -78q11 -49 35 -66q15 -11 33 -11q79 0 172 189z
M87 378q-20 -16 -30 -53q32 1 56 15.5t19 38.5q-2 9 -11 10t-18 -2.5t-16 -8.5zM358 381q-12 -8 -21 -23t-14 -34q37 2 61 20q9 8 14 22t-4 22q-9 3 -18.5 0.5t-17.5 -7.5z" />
    <glyph glyph-name="oo.liga" unicode="oo" horiz-adv-x="609" 
d="M627 323q8 6 19 2.5t16 -11.5q11 -20 -9 -35q-57 -44 -129 -53q-3 -10 -6 -18q-21 -58 -77 -68q-35 -7 -64.5 8.5t-47.5 46.5q-24 44 -19 97q-50 -39 -94 -52q-10 -65 -53 -89q-31 -18 -66.5 -12.5t-59.5 32.5q-27 31 -34.5 74t5.5 81q11 36 32.5 63t52.5 34q21 6 45 -1
t40 -21q38 -33 41 -104q12 4 23 11q19 11 37.5 25t41.5 34t34 29q2 2 5 3q25 25 57 26q3 1 7 0q8 0 16 -2q46 -8 68.5 -49t21.5 -95q50 8 97 44zM163 329q-6 19 -19.5 33t-31.5 12h-5h-2q0 -1 -1 -2q-1 -2 -2 -7q-3 -14 4 -34q16 -46 63 -46q-1 24 -6 44zM107 189
q42 -2 56 44q-15 0 -29.5 4.5t-26.5 12t-22.5 18.5t-17.5 24q-6 10 -10 22q-5 -19 -6 -33q-1 -31 13.5 -61t42.5 -31zM463 351q-3 5 -9.5 10.5t-14.5 9.5t-15 4q-3 -1 -7 -1h-2h-1q-5 -8 -3.5 -22t6.5 -25q14 -35 56 -46h2.5t1.5 -1q1 48 -14 71zM452 199q13 9 19 28
q-52 9 -82 47q-14 17 -22 39q-3 -8 -4 -15q-6 -27 1.5 -55t26.5 -44q13 -10 30.5 -10t30.5 10z" />
    <glyph glyph-name="ss.liga" unicode="ss" horiz-adv-x="545" 
d="M576 327q16 0 22.5 -13t0 -26t-22.5 -13q-40 -1 -102 -31q-31 -15 -60 -33q11 -14 19 -27q18 -31 24.5 -65t-2.5 -69q-19 -55 -89 -82q-72 -28 -115 -7q-26 12 -37 41.5t-6 59.5q7 39 50 87q31 35 79 71q-17 17 -25 27q-17 21 -24 42q-20 -13 -45.5 -29.5t-52 -33
t-45.5 -29.5q3 -4 11.5 -15.5t11 -16t7 -13t5.5 -17.5t1 -20q0 -14 -1 -24t-8.5 -29t-21.5 -31t-43.5 -22t-70.5 -9q-37 0 -60 21.5t-23 59.5q0 31 32 64.5t84 63.5q-4 3 -14.5 13.5t-15.5 16.5l-12.5 15t-12 18.5t-7.5 18.5q-9 34 6 66t48 43q37 11 70.5 -10t36.5 -59
q2 -16 -10.5 -22t-26 0t-15 22t-20.5 20t-29 -5q-10 -8 -11 -24.5t3 -23.5q6 -11 36 -42q8 -9 17 -18q23 15 84 53t93 60q9 24 31 38t50 15q17 0 23 -15q12 -16 -5 -29l-1 -1t-1.5 -1t-0.5 -1q-23 -18 -50 -37q-1 -18 14 -38q10 -12 30 -33q114 76 197 78zM45 43
q54 0 73.5 16.5t19.5 50.5q0 29 -36 63q-97 -48 -97 -98q0 -32 40 -32zM379 172q-3 5 -7 10q-7 -5 -13 -10q-50 -39 -77 -74q-28 -37 -22 -67q2 -13 9 -19.5t18 -7t20 1t22 4.5q61 17 76 54q18 46 -26 108z" />
    <glyph glyph-name="tt.liga" unicode="tt" horiz-adv-x="247" 
d="M594 627q16 0 22.5 -12.5t0 -25.5t-22.5 -13h-107h-296q0 -1 -0.5 -4.5t-0.5 -5.5q-16 -235 -15 -391q1 -112 10 -177q6 -38 14 -62q3 -10 8 -19l2 -4l3 -3l1 -1q12 -9 10 -24t-13 -20.5t-24 1.5q-17 12 -28.5 35.5t-15 40.5t-7.5 45q-13 89 -13 202.5t6 203.5
q3 56 12 183h-71q-1 -29 -2 -37q-12 -214 -11 -358q1 -102 8 -166q3 -31 9 -53q1 -4 4 -12q0 -2 1 -5q3 -4 4 -7h1q0 -1 1 -1q11 -11 6 -25t-17.5 -18t-25.5 6l-8 10t-7 12t-5.5 12.5t-4.5 14t-3 13.5t-2.5 14.5t-2 14t-1.5 14t-1 12.5q-13 119 -4 366q3 68 10 193h-279
q-16 0 -22.5 13t0 25.5t22.5 12.5h107h175q0 3 0.5 7t0.5 6.5v6t1 6.5q0 16 13.5 22.5t26 0t11.5 -22.5q0 -1 -1 -26h70q3 36 4 61q1 15 14.5 21.5t26 0t11.5 -21.5q-2 -24 -4 -61h111h288z" />
    <glyph glyph-name=".notdef" horiz-adv-x="527" 
d="M50 700h427v-700h-427v700zM78 680l185 -309l186 309h-371zM251 350l-180 300v-601zM264 329l-185 -308h370zM276 350l181 -303v605z" />
    <glyph glyph-name=".null" horiz-adv-x="0" 
 />
    <glyph glyph-name=".null" horiz-adv-x="0" 
 />
    <glyph glyph-name="nonmarkingreturn" horiz-adv-x="333" 
 />
    <glyph glyph-name="controlLF" unicode="&#xa;" horiz-adv-x="0" 
 />
    <glyph glyph-name="controlCR" unicode="&#xd;" horiz-adv-x="0" 
 />
    <glyph glyph-name="space" unicode=" " horiz-adv-x="238" 
 />
    <glyph glyph-name="exclam" unicode="!" horiz-adv-x="167" 
d="M84.5 53q15.5 0 22 -13t0 -26t-22 -13t-22 13t0 26t22 13zM102 680q20 -279 13 -558q0 -16 -13 -22.5t-25.5 0t-12.5 22.5q6 279 -14 558q-1 16 11.5 22.5t26 0t14.5 -22.5z" />
    <glyph glyph-name="quotedbl" unicode="&#x22;" horiz-adv-x="234" 
d="M76 705q7 0 13 -3.5t9 -9.5t4 -13q1 -25 0 -64q-1 -16 -14 -22.5t-26 0t-12 22.5q2 39 0 64q0 7 3.5 13t9.5 9.5t13 3.5zM183 679q2 -25 0 -64q0 -16 -13.5 -22.5t-26 0t-11.5 22.5q1 39 0 64q-1 10 7 18t19 8q4 0 8 -1.5t7 -4t5 -5.5t3.5 -7t1.5 -8z" />
    <glyph glyph-name="numbersign" unicode="#" horiz-adv-x="661" 
d="M586 447q-35 -1 -73 -3q-14 -37 -58 -157q58 4 114 5q16 0 22.5 -12.5t0 -25.5t-22.5 -13q-66 -1 -133 -7q-32 -88 -71 -195q-5 -14 -20 -17t-25 6.5t-5 24.5q11 29 32.5 88t31.5 88q-95 -10 -191 -29q-9 -26 -27.5 -76.5t-27.5 -75.5q-5 -15 -20 -17.5t-25 7t-5 24.5
q8 20 23 62t23 63q-26 -6 -47 -12q-15 -3 -25 7.5t-7 24.5t18 18q40 10 82 19l59 163q-56 -11 -110 -25q-15 -4 -24.5 7t-7 25t18.5 17q70 19 144 32q38 105 66 184q8 21 32 16q21 -4 20 -23q0 -3 -2 -7q-12 -34 -58 -160q94 15 188 21q9 24 26.5 72t26.5 72q8 22 31 17
q21 -5 20 -23q0 -4 -2 -8q-4 -12 -20.5 -57.5t-25.5 -69.5q29 1 54 1q16 1 22.5 -12t0 -26t-22.5 -13zM399 283q8 22 18.5 50.5l21 57t18.5 50.5q-95 -7 -189 -23q-8 -23 -19 -52t-21.5 -58t-18.5 -52q94 18 190 27z" />
    <glyph glyph-name="dollar" unicode="$" horiz-adv-x="375" 
d="M209 372q135 -62 112 -170q-8 -40 -39 -69.5t-73 -40.5q1 -9 1 -26.5v-26.5q0 -10 -5.5 -16.5t-13 -8t-15 0t-13 8t-5.5 16.5v47l-16 2q-29 5 -51 24t-33 47q-21 55 12 120q11 22 33 10q21 -11 14 -32l-2 -4q-11 -20 -13 -43t9 -43t35 -27q5 -1 12 -2q0 33 -0.5 100
t-0.5 100l-6 3q-35 14 -57 29.5t-33 41.5q-21 48 4 103q32 70 92 87v26.5v26.5q0 10 5 16.5t12.5 8t15 0t13 -8t5.5 -16.5v-51q39 -7 69.5 -40.5t36.5 -72.5q2 -16 -9.5 -25.5t-24.5 -7t-16 18.5q-2 13 -8.5 26.5t-16 24.5t-21.5 18q-4 3 -10 5zM103 449q4 -34 54 -56v77v77
q-16 -8 -27 -21q-31 -40 -27 -77zM256 180q17 22 17 50.5t-18 50.5q-16 19 -46 34v-84.5v-85.5q30 12 47 35z" />
    <glyph glyph-name="percent" unicode="%" horiz-adv-x="644" 
d="M394 638q5 15 20 17.5t25 -7t5 -24.5q-71 -195 -214 -585q-5 -14 -19.5 -17t-25 6.5t-4.5 24.5zM250 458q-34 -40 -84.5 -39t-83.5 42q-32 41 -32 92t40 86q9 7 21 6q29 26 74.5 23t72.5 -33q31 -38 27.5 -89t-35.5 -88zM204 485q21 17 28 47t-4 55q-10 23 -43 28
q-38 6 -45 -16q-7 -23 -31 -17q-10 -21 -5.5 -46.5t20 -42.5t36.5 -22.5t44 14.5zM578 217q19 -31 15.5 -64t-19.5 -60.5t-46 -45t-63 -17.5q-48 0 -79 30.5t-34 78.5q-3 47 22.5 86.5t70.5 47.5q11 3 20 -4q31 9 63 -6.5t50 -45.5zM542 150q1 9 1 16q0 2 -3 11t-11 19
t-18 17.5t-21 8.5t-21 -8q-17 -17 -35 0q-22 -16 -28.5 -47t5.5 -56q14 -29 50.5 -30t57.5 22q18 18 23 47z" />
    <glyph glyph-name="ampersand" unicode="&#x26;" horiz-adv-x="501" 
d="M450 76q5 -15 -5.5 -24.5t-25 -7t-19.5 17.5q-16 46 -52 89q-29 -41 -62 -68q-77 -62 -163 -21q-44 21 -61 62.5t-10 94.5q13 96 89 146q22 14 50 24q-37 21 -63 47q-27 28 -33.5 67t6 74t41 62.5t66.5 35.5q40 9 78 -3.5t61 -44.5q23 -30 25.5 -68t-15.5 -70
q-9 -13 -22 -13t-21.5 12.5t-0.5 26.5q15 28 4 60.5t-41 45.5q-34 13 -68 0.5t-51 -43.5q-16 -28 -13 -59t27 -52q39 -36 108 -62q21 -8 18 -28t-25 -22q-65 -6 -108 -37q-35 -24 -53.5 -70t-6 -89.5t59.5 -57.5q61 -18 121 54q13 16 26 35q-23 21 -60 50q-18 15 -2 32.5
t36 6.5l3 -2q28 -23 50 -43q26 50 45 109q5 15 19.5 17.5t25 -7t5.5 -24.5q-25 -76 -57 -133q51 -57 74 -120z" />
    <glyph glyph-name="quotesingle" unicode="'" horiz-adv-x="153" 
d="M102 679q1 -25 0 -64q-1 -16 -14 -22.5t-26 0t-12 22.5q2 39 0 64q0 7 3.5 13t9.5 9.5t13 3.5q11 0 18 -7.5t8 -18.5z" />
    <glyph glyph-name="parenleft" unicode="(" horiz-adv-x="247" 
d="M102 342q-1 -180 85 -283q15 -18 -1.5 -36t-32.5 -3l-3 3q-103 123 -100 326q1 47 5 86t14.5 83.5t33 81.5t55.5 63q8 5 19 2t16 -12q11 -19 -9 -35q-46 -35 -66 -124q-16 -69 -16 -152z" />
    <glyph glyph-name="parenright" unicode=")" horiz-adv-x="247" 
d="M197 349q3 -203 -100 -326q-10 -12 -24 -7.5t-18 17.5t5 26q86 103 85 283q0 83 -16 152q-21 89 -66 124q-21 16 -9 35q5 9 15.5 12.5t19.5 -2.5q33 -26 55 -63t33 -81.5t15 -83.5t5 -86z" />
    <glyph glyph-name="asterisk" unicode="*" horiz-adv-x="352" 
d="M257 666q18 14 36 -2t3 -32l-3 -3q-42 -33 -83 -63q28 -26 50 -47q7 -7 8 -15t-3.5 -14.5t-11 -11t-15 -3.5t-15.5 7q-23 23 -53 51q-33 -36 -68 -69q-11 -11 -25 -6t-17.5 17.5t6.5 24.5q32 30 62 63q-12 7 -35.5 20t-29.5 16q-13 10 -13 23t12.5 21.5t26.5 0.5
q44 -24 54 -30v65q0 16 13 22.5t26 0t13 -22.5v-60q33 24 62 47z" />
    <glyph glyph-name="plus" unicode="+" horiz-adv-x="413" 
d="M338 372q16 -2 22.5 -15.5t0 -25.5t-22.5 -11q-50 6 -116 2q-1 -79 -5 -157q-1 -16 -14.5 -22.5t-26 0t-11.5 22.5q5 76 5 153q-7 -1 -42 -4.5t-53 -4.5q-16 -2 -22.5 10.5t0 26t22.5 14.5q18 2 53 5.5t43 3.5q-1 57 -3 111q-1 16 12 22t26 -0.5t14 -21.5q2 -52 2 -107
q67 4 116 -1z" />
    <glyph glyph-name="comma" unicode="," horiz-adv-x="170" 
d="M88 47q31 -21 31.5 -56t-29.5 -57q-9 -6 -19.5 -2.5t-15.5 11.5q-12 20 9 36q6 5 5 12.5t-7 11.5q-13 8 -12 23t12.5 21.5t25.5 -0.5z" />
    <glyph glyph-name="hyphen" unicode="-" horiz-adv-x="414" 
d="M345 369q16 -3 19 -16.5t-7 -24.5t-25 -9q-30 6 -65.5 8.5t-61 2.5t-68 -1t-62.5 -1q-16 0 -22.5 12.5t0 25.5t22.5 13q18 0 65 1t72.5 1t63.5 -3t69 -9z" />
    <glyph glyph-name="period" unicode="." horiz-adv-x="150" 
d="M75 50q16 0 22 -13t0 -25.5t-22 -12.5t-22.5 12.5t0 25.5t22.5 13z" />
    <glyph glyph-name="slash" unicode="/" horiz-adv-x="366" 
d="M265 635q8 21 32 16q21 -4 19 -23q0 -3 -1 -7q-71 -195 -214 -585q-5 -15 -19.5 -17.5t-25 7t-4.5 24.5z" />
    <glyph glyph-name="zero" unicode="0" horiz-adv-x="453" 
d="M230 700q155 -5 171 -260q6 -98 -1 -176q-10 -113 -48 -175q-39 -64 -102 -74q-36 -6 -71.5 4.5t-60.5 36.5q-47 48 -61 153q-13 99 -1 216q26 269 167 275h3.5h3.5zM351 339q0 81 -4 129q-18 179 -120 181q-60 -1 -92 -91q-28 -78 -32 -198q-4 -110 10 -177
q17 -79 57 -104q21 -13 47.5 -14.5t47.5 8.5q40 21 62 86q24 70 24 180z" />
    <glyph glyph-name="one" unicode="1" horiz-adv-x="173" 
d="M102 278v-36v-37t0.5 -36.5t2 -36.5t3.5 -37t5.5 -36t8.5 -35q4 -15 -6.5 -24.5t-24.5 -7t-19 17.5q-12 44 -18 130q-7 122 -1 314q6 152 14 238q2 15 15.5 21.5t25.5 0t11 -21.5q-4 -39 -8 -109q-10 -164 -9 -305z" />
    <glyph glyph-name="two" unicode="2" horiz-adv-x="435" 
d="M360 66q16 0 22.5 -13t0 -26t-22.5 -13q-47 1 -142 3t-142 3q-17 0 -24 16t6 28q84 79 138 154q128 175 126 334q0 22 -5.5 42t-16.5 36.5t-29 27.5t-40 13q-26 4 -50 -7t-40.5 -32.5t-19.5 -47.5q-2 -15 -15.5 -21.5t-25.5 0t-10 21.5q7 58 49 99t100 41
q52 -1 93.5 -33.5t54.5 -82.5q23 -88 -22 -219q-55 -162 -208 -319q74 -1 223 -4z" />
    <glyph glyph-name="three" unicode="3" horiz-adv-x="439" 
d="M338 350q49 -51 51 -147q3 -88 -57 -141q-32 -28 -74 -40.5t-84 -6.5t-78 29.5t-45 60.5q-5 21 16 30q21 8 31 -10q2 -3 3 -6q8 -34 50.5 -46.5t80.5 -4.5t65.5 33t36.5 62q9 33 2 75t-28 69q-35 43 -111 38q-11 -1 -17.5 5.5t-7.5 15.5t3.5 17.5t14.5 12.5q85 28 118 69
q20 25 27 59.5t-2 63.5q-8 20 -21.5 36t-32.5 25.5t-40 10.5q-27 2 -52 -6.5t-45 -25.5t-32 -40q-5 -9 -12.5 -12t-15 -0.5t-13.5 8t-7 13.5t3 17q22 40 60 65.5t83 31.5q40 4 77 -8.5t63 -41.5q44 -50 41 -108q-3 -88 -60 -140q-17 -17 -40 -30q29 -12 49 -33z" />
    <glyph glyph-name="four" unicode="4" horiz-adv-x="452" 
d="M381 278v-36v-37t0.5 -36.5t2 -36.5t3.5 -37t5.5 -36t8.5 -35q4 -15 -6.5 -24.5t-24.5 -7t-19 17.5q-12 44 -18 130q-7 122 -1 314q1 23 2 45q-41 -89 -90 -133q-20 -18 -44 -29t-51 -10t-48 18q-21 18 -32.5 49.5t-14.5 56t-4 59.5q-2 98 18 189q3 15 17 18t25 -7t8 -25
q-20 -88 -16 -185q5 -104 40 -120q7 -3 20 -1t23 8q26 14 52 48q42 55 77 150q26 71 33 114q2 11 10 15.5t18 1.5q10 0 17 -6.5t6 -17.5q-4 -39 -8 -109q-10 -164 -9 -305z" />
    <glyph glyph-name="five" unicode="5" horiz-adv-x="436" 
d="M317 385q47 -42 62.5 -108.5t-3.5 -132.5t-67 -107q-38 -33 -87 -42.5t-95 12.5q-33 18 -54 55.5t-20 76.5q0 15 13 21.5t26 0t12 -21.5q0 -20 8.5 -40t24.5 -35.5t36 -19.5q34 -6 68 9.5t55 44.5q22 31 31.5 71t5.5 79q-6 43 -31 76t-60.5 48t-77.5 19t-81 -11
q-12 -5 -23 3.5t-10 20.5q10 152 47 298q3 10 11 14.5t18 2.5q113 17 217 -18q15 -5 17.5 -19.5t-7 -25t-24.5 -5.5q-93 32 -187 19q-28 -115 -38 -231q38 6 75.5 3t73.5 -18t64 -39z" />
    <glyph glyph-name="six" unicode="6" horiz-adv-x="435" 
d="M176 418q50 -8 94 -37.5t73.5 -73t38.5 -93.5q8 -48 -3.5 -95t-43.5 -83.5t-80 -48.5q-35 -9 -70.5 -0.5t-61.5 33.5q-44 41 -61 119q-32 148 19.5 300t159.5 273q11 11 24.5 6.5t17.5 -17.5t-5 -26q-103 -114 -147 -252q-43 -131 -23 -252q5 -29 15 -54.5t26 -47.5
t41.5 -31t56.5 0q30 9 50 31t28 50t7.5 58.5t-9.5 57.5q-18 52 -62 88t-98 46q-16 2 -19 15.5t7 25t25 8.5z" />
    <glyph glyph-name="seven" unicode="7" horiz-adv-x="451" 
d="M383 365q22 -4 18 -26q-3 -21 -23 -24l-9 1q-24 5 -50 6q-63 -147 -152 -321q-9 -13 -22 -13t-21.5 12.5t-1.5 26.5q62 120 115 239q2 2 25 54q-29 -4 -57 -13q-15 -5 -24.5 5.5t-7 25t17.5 18.5q47 15 95 17q33 76 50 132q20 71 10 120q-12 57 -68 56q-97 -1 -189 -41
q-21 -10 -35 11q-12 19 6 31q1 1 3 2q57 25 94 34q33 7 98 13q59 6 92 -15q34 -23 47 -71q21 -85 -31 -218q-11 -27 -23 -55q22 -2 43 -7z" />
    <glyph glyph-name="eight" unicode="8" horiz-adv-x="463" 
d="M204 713q48 18 98 3t80 -58q42 -61 28 -144q-17 -100 -106 -164q73 -53 85 -120q10 -52 -4.5 -107.5t-50.5 -90.5q-32 -33 -80.5 -44.5t-92.5 1.5q-31 9 -54.5 31t-36 50t-17.5 62q-19 136 63 242q14 18 32 2t7 -36q-1 -1 -2 -3q-40 -50 -50.5 -119.5t15.5 -128.5
q14 -30 44 -44t63 -10.5t59 22.5q37 25 51 77t1 97q-6 22 -23.5 42t-32.5 31t-41 28q-5 3 -22 13.5t-24 15.5t-21 14.5t-22.5 17t-19 17.5t-18.5 20q-26 33 -35.5 72t2.5 79q10 30 27.5 56t43 46t54.5 30zM257 381q33 20 57.5 48.5t38 65t9.5 74.5q-4 40 -32.5 70.5
t-70.5 30.5q-44 0 -80 -29.5t-50 -73.5q-7 -21 -4 -43.5t14.5 -42.5t28.5 -36q24 -23 89 -64z" />
    <glyph glyph-name="nine" unicode="9" horiz-adv-x="437" 
d="M372 570q38 -148 -14.5 -305t-162.5 -279q-11 -12 -24.5 -7.5t-17.5 17.5t5 26q103 115 148 252q43 136 21 258q-5 29 -15.5 54t-28.5 46.5t-42.5 27.5t-57.5 -3q-35 -13 -57.5 -47.5t-24 -73t14.5 -73.5q17 -32 47.5 -48.5t64 -16.5t67.5 9q15 5 24.5 -5.5t7 -25
t-17.5 -18.5q-76 -24 -148 2.5t-99 98.5q-27 70 3 144.5t99 100.5q33 14 69.5 10t65.5 -25q52 -38 73 -119z" />
    <glyph glyph-name="colon" unicode=":" horiz-adv-x="150" 
d="M75 403q-16 0 -22.5 12.5t0 25.5t22.5 13t22 -13t0 -25.5t-22 -12.5zM75 265q16 0 22 -13t0 -26t-22 -13t-22.5 13t0 26t22.5 13z" />
    <glyph glyph-name="semicolon" unicode=";" horiz-adv-x="171" 
d="M75 403q-16 0 -22.5 12.5t0 25.5t22.5 13t22 -13t0 -25.5t-22 -12.5zM90 262q31 -21 31 -56t-29 -57q-9 -6 -20 -2.5t-16 11.5q-11 20 10 36q5 4 4.5 11.5t-6.5 11.5q-20 14 -9 35t31 12z" />
    <glyph glyph-name="less" unicode="&#x3c;" horiz-adv-x="342" 
d="M279 223q13 -9 13 -21.5t-12.5 -21t-26.5 -2.5q-15 7 -39.5 18.5t-42 19.5t-39 19t-40 23t-34.5 26q-10 9 -7.5 21.5t12.5 18.5q94 61 176 137q12 10 26 5t17.5 -17.5t-6.5 -24.5q-73 -67 -155 -123q18 -11 58 -30q7 -3 100 -48z" />
    <glyph glyph-name="equal" unicode="=" horiz-adv-x="414" 
d="M75 373q-16 -1 -22 11.5t0.5 26t21.5 14.5q19 1 65.5 5.5t66.5 6t66 3t66 -3.5q15 -1 21.5 -15t0 -26t-21.5 -10q-20 4 -66 2.5t-66 -2.5t-66.5 -5.5t-65.5 -6.5zM345 253q16 -3 19 -16.5t-7 -24.5t-25 -9q-30 6 -65.5 8.5t-61 2t-68 -1t-62.5 -0.5q-16 0 -22.5 12.5
t0 25.5t22.5 13q18 0 65 1t72.5 0.5t63.5 -3t69 -8.5z" />
    <glyph glyph-name="greater" unicode="&#x3e;" horiz-adv-x="342" 
d="M279 324q10 -6 12.5 -18.5t-6.5 -21.5q-17 -14 -35.5 -26t-40 -23t-38.5 -19t-42 -19.5t-40 -18.5q-14 -6 -26.5 2.5t-12.5 21t13 21.5q94 45 100 48q40 19 58 30q-82 56 -155 123q-11 11 -6.5 25t17.5 17.5t26 -5.5q82 -76 176 -137z" />
    <glyph glyph-name="question" unicode="?" horiz-adv-x="466" 
d="M358 681q35 -29 49 -73.5t7 -93.5q-5 -32 -20 -66.5t-30.5 -58t-40.5 -57.5q-2 -3 -7 -9q-27 -36 -41 -57t-29.5 -56.5t-18.5 -67.5q-1 -16 -14.5 -22.5t-26 0t-10.5 22.5q4 54 28.5 102t67.5 105q20 28 26.5 36.5t23 34t23 41t13 38.5t7.5 45q1 52 -31 87t-85 39
q-34 3 -67.5 -7t-58 -36t-21.5 -62q1 -21 -20 -25q-21 -3 -30 15l-2 10q-3 57 38 98.5t99 53.5q43 10 89.5 1t81.5 -37zM200 47q16 0 22.5 -13t0 -25.5t-22.5 -12.5t-22 12.5t0 25.5t22 13z" />
    <glyph glyph-name="at" unicode="@" horiz-adv-x="554" 
d="M425 517q61 -41 75.5 -119.5t-29.5 -138.5q-28 -38 -59 -42q-34 -4 -59 32q-15 22 -21 51q-36 -58 -77 -82q-23 -13 -47 -15.5t-47 9.5q-36 22 -32 77q4 49 29 91t67 61q45 20 92 8q21 -5 38 -17q4 -3 6 -5q15 -5 19 -20q3 -6 3 -13q-6 -25 -4 -61.5t18 -57.5
q6 -6 10 -5.5t11 6.5q10 9 18 23q14 25 16 56q3 58 -33 97.5t-94 45.5q-52 4 -102 -17t-81 -62q-32 -43 -39 -98t16 -104q19 -37 56 -49t73 -4t73 26q14 7 26.5 -1.5t12.5 -21.5t-13 -21q-102 -52 -178 -31q-82 23 -109 113q-21 71 2 145.5t82 120.5q60 47 138 55t143 -32z
M261 291q29 34 61 100q-22 13 -48 10.5t-47 -18.5q-21 -18 -34 -46t-13 -57q0 -44 47 -17q21 13 34 28z" />
    <glyph glyph-name="A" unicode="A" 
d="M466 473q16 -1 22.5 -14t0 -25.5t-22.5 -12.5q-26 1 -55 1q8 -48 16 -114q18 -139 22 -213q1 -22 -20 -25q-22 -3 -30 15q-1 4 -2 10q-4 81 -23 228q-7 54 -14 98q-48 -2 -114 -6q-11 -1 -34.5 -2t-36.5 -2q-20 -134 -31 -316q-1 -16 -14.5 -22.5t-26 0t-11.5 22.5
q12 185 30 310q-22 -4 -40 -9q-15 -4 -24.5 6.5t-7 25t17.5 18.5q27 8 62 12q9 60 22 115q21 97 48 148q32 59 75 57q35 -2 61 -54q20 -40 38 -112q16 -63 29 -139q34 1 63 0zM240 466q65 5 111 6q-12 70 -27 129q-17 67 -33 98l-10 18l-2 2v1l-5 5h-0.5t-1 0.5l-0.5 0.5h-2
q-3 -2 -7 -5q-6 -6 -11 -14q-12 -19 -23 -50q-22 -61 -40 -162q-3 -14 -6 -32q8 0 18.5 0.5t20.5 1t18 1.5z" />
    <glyph glyph-name="B" unicode="B" horiz-adv-x="455" 
d="M279 436q54 -6 85 -43q44 -52 41 -126t-49 -123q-28 -27 -66 -39t-77 -6q-29 4 -52 17t-53 37q5 -40 14 -73q4 -15 -6.5 -24.5t-24.5 -7t-19 17.5q-12 45 -18 132q-5 92 -3 211v1v1q0 47 2 104q6 152 14 237q2 15 15.5 21.5t25.5 0.5t11 -22q-4 -39 -8 -108q0 -3 -1 -24
q32 62 75 88q31 21 72.5 16t64.5 -34q37 -49 12 -142q-16 -58 -55 -112zM345 222q20 58 -4 112q-16 36 -52.5 47.5t-69.5 -12.5q-18 -13 -32.5 6.5t1.5 34.5q78 72 99 162q16 72 -12 92q-11 8 -23.5 9.5t-24 -2.5t-21.5 -11t-18 -16q-36 -39 -61 -114q-22 -65 -25 -117v-77
q0 -98 1 -116q3 -1 6 -3q6 -5 23.5 -19t26 -20t23.5 -14.5t29.5 -12t31.5 -3.5q34 1 62 21.5t40 52.5z" />
    <glyph glyph-name="C" unicode="C" horiz-adv-x="454" 
d="M353 297q1 15 14.5 21.5t26 0t10.5 -21.5q-4 -40 -15 -77.5t-31 -73t-53 -57t-74 -20.5q-60 0 -101.5 37t-58.5 98q-36 122 -10 313q5 35 11.5 64t19 63t33.5 60t49 40q28 15 60 13t59 -13.5t45 -37t19 -57.5q0 -16 -12.5 -22.5t-25.5 0t-14 22.5q0 22 -16.5 36.5
t-40.5 18.5q-52 7 -83 -34t-43 -96.5t-16 -128.5q-10 -156 18 -239q14 -43 47.5 -68t76.5 -16q26 4 46 23t31.5 46t18 53t9.5 53z" />
    <glyph glyph-name="D" unicode="D" horiz-adv-x="452" 
d="M401 521q9 -146 -68 -272t-211 -184q-6 -16 -25 -17t-25 18q-12 45 -18 132q-7 123 -1 317q6 152 14 237q2 15 15.5 21.5t25.5 0.5t11 -22q-4 -39 -8 -108q-2 -26 -3 -57q14 29 30 54t33.5 44t41.5 34t48.5 15.5t53.5 -12.5q76 -40 86 -201zM114 117q63 30 114 81t82 115
q49 99 38 221q-11 138 -73 149q-20 3 -38.5 -7t-34.5 -32t-24.5 -36t-19.5 -37q-40 -80 -56 -158v-77v-36v-36.5t0.5 -37t2 -37t3.5 -36.5t6 -36z" />
    <glyph glyph-name="E" unicode="E" horiz-adv-x="556" 
d="M454 308q5 14 20 17t25 -6.5t5 -24.5q-49 -139 -121 -203q-41 -38 -91 -50.5t-104 6.5q-56 22 -93 72.5t-44 110.5q-4 45 6 91.5t33 83.5q31 48 85 74q-35 21 -54 54q-18 34 -17.5 70.5t17.5 70.5q28 55 85 72t113 -6t85 -75q7 -13 -1.5 -25.5t-21.5 -12.5t-22 12
q-20 36 -58 53t-77.5 6t-57.5 -50q-27 -56 11 -101.5t99 -42.5q16 1 22.5 -11.5t0 -25.5t-22.5 -14q-111 -8 -153 -95q-16 -33 -20.5 -71.5t3.5 -73.5q12 -46 46 -82t78 -44q29 -5 56 2.5t48.5 25.5t40 40t34 50.5t26 52.5t19.5 50z" />
    <glyph glyph-name="F" unicode="F" horiz-adv-x="409" 
d="M273 456q16 0 22.5 -13t0 -26t-22.5 -13h-171v-70v-36.5v-36.5t0.5 -37t2 -36.5t3.5 -36.5t5.5 -36t8.5 -35q4 -15 -6.5 -24.5t-24.5 -7t-19 17.5q-12 44 -18 130q-7 122 -1 314q6 152 14 238l2 8q5 17 24 17h241q15 0 21.5 -12.5t0 -25.5t-21.5 -13h-218q-2 -31 -5 -83
q-6 -96 -8 -183h170z" />
    <glyph glyph-name="G" unicode="G" horiz-adv-x="453" 
d="M226 430q35 0 59 -1.5t54 -14t46 -35.5q26 -41 15 -128q-14 -104 -79 -157q-31 -26 -71 -32t-78 8q-31 12 -54 35.5t-35.5 50t-20 62.5t-9.5 64t-3 63q-2 109 15 200q19 102 63 155q26 31 63 42t77 1q38 -9 62 -37t25 -66q1 -15 -12 -21.5t-26 0t-13 21.5q-1 31 -29 45.5
t-59 10.5q-50 -7 -79 -84q-47 -123 -33 -316q2 -31 7 -56t15 -54t30.5 -47.5t49.5 -24.5q35 -7 64 8t46 43.5t26 61.5t9 64q0 50 -12 64q-12 12 -33 18t-41 5.5t-39 -0.5q-9 0 -15.5 5t-8 12.5t0 15.5t8 13.5t15.5 5.5z" />
    <glyph glyph-name="H" unicode="H" 
d="M466 473q16 -1 22.5 -14t0 -25.5t-22.5 -12.5q-14 1 -33 1q-1 -51 -1 -97v-35.5v-36.5t0.5 -37t2 -37t3.5 -36.5t6 -36t8 -35.5q5 -15 -6 -24.5t-25 -6.5t-18 18q-13 44 -18 129q-7 100 -4 235q-55 -2 -135 -7q-7 -1 -39 -2.5t-49 -3.5q-1 -44 -1 -84v-31.5v-32t0.5 -32
t1 -32t2 -32t4 -32t5.5 -31.5t7 -31q5 -15 -6 -24.5t-25 -6.5t-18 18q-13 44 -18 129q-6 93 -4 215q-13 -3 -24 -6q-15 -4 -24.5 6.5t-7 25t17.5 18.5q18 5 39 9q1 25 1 47q6 151 14 237q2 22 25 25q22 2 26 -16q1 -4 1 -9q-4 -39 -8 -108q-5 -88 -7 -170q15 1 43.5 2.5
t37.5 2.5q84 6 143 7v29q6 151 14 237q2 16 15.5 22t25.5 0t11 -22q-4 -39 -8 -108q-5 -82 -7 -158h32z" />
    <glyph glyph-name="I" unicode="I" horiz-adv-x="322" 
d="M247 765q15 1 21.5 -11.5t0 -26t-21.5 -14.5q-11 0 -31.5 -1t-30.5 -2q-3 -33 -6 -86q-10 -161 -9 -299v-36v-41t1 -36t2.5 -41.5t4.5 -35.5t7 -39q35 2 53 3q21 1 25 -20q3 -22 -15 -30q-5 -2 -10 -2q-57 -3 -163 -8q-16 -1 -22.5 11.5t0 25.5t22.5 14l58 3
q-7 34 -11 97q-8 120 -1 309q5 132 12 208q-17 0 -50 -2q-15 -1 -21.5 11.5t0 26t21.5 13.5q28 2 82.5 4.5t81.5 4.5z" />
    <glyph glyph-name="J" unicode="J" horiz-adv-x="448" 
d="M377 605q16 -77 20 -189q4 -134 -12 -218q-14 -75 -45 -117q-24 -32 -61.5 -47.5t-73.5 -2.5q-60 21 -105 94q-49 81 -50 189q0 15 13 21.5t25.5 0t13.5 -21.5q1 -102 51 -176q17 -24 39 -42t43 -19q3 0 11 1q4 0 5 1l12 3q1 1 2 1q4 2 5 3q24 14 40 45q23 42 31 116
q9 80 3 198q-4 91 -19 154q-13 59 -35 90q-3 5 -9 11l-8 6l-6 4q-1 0 -1 1q-7 2 -9 2q-29 3 -45.5 -16.5t-29.5 -54.5q-8 -22 -32 -17q-20 5 -19 23q0 4 2 8q18 50 46 80.5t74 28.5q47 -2 80 -48q28 -39 44 -112zM265 83z" />
    <glyph glyph-name="K" unicode="K" horiz-adv-x="445" 
d="M370 234q16 1 22 -11t0 -25.5t-22 -14.5q-23 -2 -49 5.5t-40.5 15t-43.5 24.5q-40 23 -72 33q-10 3 -21 6q0 -138 20 -209q4 -15 -6.5 -24.5t-24.5 -6.5t-19 18q-12 44 -18 130q-2 38 -3 79q-7 -1 -15 -2q-13 -2 -22 13q-11 19 -1 37.5t31 22.5q3 0 6 1q0 68 3 163
q6 151 14 237q2 16 15.5 22.5t25.5 0t11 -22.5q-4 -39 -8 -108q-8 -139 -9 -261q2 3 5 8q32 49 66 108q63 111 112 227q10 24 31 18q10 -3 16 -13t2 -19q-58 -139 -128 -260q-48 -81 -73 -114q5 -1 11 -3q35 -12 92 -45q56 -33 92 -30z" />
    <glyph glyph-name="L" unicode="L" horiz-adv-x="391" 
d="M316 150q16 -1 22.5 -12.5t0 -23t-22.5 -11.5q-40 0 -109.5 -25.5t-109.5 -25.5q-10 0 -17 6q-5 5 -8 12q-12 44 -18 127q-7 119 -1 307q6 145 14 231q2 15 15.5 21.5t25.5 0t11 -21.5q-4 -40 -8 -108q-10 -159 -9 -296v-31v-34.5t0.5 -31t1.5 -35t2.5 -31t4.5 -34.5
t6 -31q22 0 95.5 25t103.5 22z" />
    <glyph glyph-name="M" unicode="M" horiz-adv-x="595" 
d="M536 70q12 -11 7.5 -24.5t-17.5 -17.5t-26 5q-33 30 -53 113q-26 113 -29 332q-1 50 0 137q-11 -24 -20 -42q-1 -3 -4 -9q-18 -37 -28.5 -57.5t-29 -51t-36.5 -52.5q-27 -32 -51 -33q-37 -2 -66 31q-33 36 -53 101q1 -79 1 -149t-7.5 -148.5t-23.5 -146.5
q-3 -16 -17 -18.5t-25 7t-7 24.5q22 98 27 207t1.5 250.5t-1.5 208.5q0 21 21.5 24.5t28.5 -14.5q1 -2 3 -5q4 -11 13 -61q11 -65 19 -97q0 -2 3 -15t3.5 -16.5t3.5 -15.5t5 -17t5 -16t6 -16.5t7 -14.5t8 -15t9 -13t10 -12q7 -6 20 -12l1 1q-1 -1 0 -1l1 1q0 -1 0.5 -1h0.5
h-1h1h1q0 1 -1 1q18 17 37 46q19 30 38.5 67.5t33.5 67t33.5 72t32.5 68.5q1 4 3 7q10 17 29 9q18 -6 18 -24q0 -22 -1 -62.5t-1 -51.5q-2 -194 8 -320q8 -89 22 -147q8 -34 16 -53q5 -11 11 -20q4 -5 10 -11zM245 422h1h-1zM245 422h-1h1zM246 421v1v0v-1z" />
    <glyph glyph-name="N" unicode="N" horiz-adv-x="481" 
d="M340 81zM339 81h1h-1zM430 737q-3 -9 -5 -18.5t-3.5 -20t-2.5 -18t-1.5 -20.5t-0.5 -19v-21v-20q-1 -38 2 -200q2 -114 -1 -176q-3 -93 -17 -136q-20 -60 -64 -58q-43 2 -82 68q-29 49 -59 142q-25 76 -51 185q-5 21 -12 49q1 -99 -2 -180q0 -4 -1 -33.5t-1.5 -37.5
t-2 -33t-3.5 -37.5t-5 -33t-7 -36.5t-10 -32q-5 -15 -19.5 -17.5t-25 7t-4.5 24.5q13 38 20 112q11 114 11 258t-5 258q-1 24 -2 35q0 16 13.5 22.5t25.5 -0.5q11 -4 14 -17q12 -48 35 -156t37 -164q25 -101 49 -172q28 -83 56 -126q7 -12 13 -18q4 -5 8 -8l3 -3l6 -4l-1 1
h1l1 -1q0 -1 3 -1q2 2 4 5q3 5 4 8l2 6q7 22 11 49q5 38 7 84.5t2 75.5t-2 88.5t-2 78.5q-2 107 0 160q3 80 14 114q5 15 19.5 18t25 -7t5.5 -24z" />
    <glyph glyph-name="O" unicode="O" horiz-adv-x="453" 
d="M230 752q155 -6 171 -261q6 -98 -1 -176q-10 -112 -48 -174q-39 -64 -102 -74q-36 -6 -71.5 4.5t-60.5 35.5q-47 48 -61 154q-13 99 -1 216q26 269 167 275h3.5h3.5zM351 391q0 80 -4 129q-18 179 -120 180q-60 -1 -92 -91q-28 -77 -32 -197q-4 -110 10 -177
q17 -79 57 -105q21 -13 47.5 -14.5t47.5 9.5q40 21 62 85q24 70 24 181z" />
    <glyph glyph-name="P" unicode="P" horiz-adv-x="402" 
d="M312 663q28 -24 36 -64t0.5 -78.5t-24.5 -70.5q-30 -58 -85.5 -99t-123.5 -61q0 -119 -5 -234q-1 -16 -14.5 -22.5t-26 0t-11.5 22.5q2 50 4 126q0 41 1 89q-1 2 -1 4q0 24 1 46q0 81 -1 156q-3 171 -12 229q-3 22 18.5 30.5t29.5 -8.5l2 -8q6 -43 10 -116v-7v-7
q11 22 25 41q32 42 83 54t94 -22zM290 501q6 18 8.5 40t-0.5 44t-17 36.5t-38 14.5q-57 0 -90 -78q-32 -74 -37 -190v-24q39 14 72.5 35t61.5 52.5t40 69.5z" />
    <glyph glyph-name="Q" unicode="Q" horiz-adv-x="459" 
d="M464 35q12 -10 7.5 -23.5t-17.5 -17.5t-26 5q-60 51 -191 64q-80 8 -161 1q-15 -1 -21.5 11.5t0 26t21.5 14.5q14 1 32 2q-39 47 -51 143q-13 99 -1 216q26 269 167 275h3.5h3.5q155 -6 171 -261q6 -98 -1 -176q-10 -112 -48 -174q-14 -23 -32 -40q90 -19 144 -66z
M103 412q-4 -110 10 -177q17 -79 57 -105q19 -11 42 -14h4h3q26 -2 46 9q40 21 62 85q24 70 24 181q0 80 -4 129q-18 179 -120 180q-60 -1 -92 -91q-28 -77 -32 -197z" />
    <glyph glyph-name="R" unicode="R" horiz-adv-x="414" 
d="M353 151q19 -14 8 -36q-11 -21 -30 -11l-4 3q-120 88 -211 105q-1 -96 -6 -158q-1 -16 -14.5 -22.5t-25.5 0t-11 22.5q3 37 4 111q3 140 0 299q-3 179 -13 260q-2 16 10.5 22t26 -0.5t15.5 -21.5q5 -48 9 -131v-6v-6q44 107 126 111q50 2 81 -30.5t34.5 -83.5t-11 -98
t-45.5 -87.5t-64 -72.5t-78 -65q92 -25 199 -104zM217 636q-17 -7 -30.5 -22t-22 -36t-13.5 -36.5t-10 -37.5q-20 -84 -24 -212q111 80 153 152q36 62 31 133q-2 34 -19 50q-12 11 -31 13t-34 -4z" />
    <glyph glyph-name="S" unicode="S" horiz-adv-x="466" 
d="M260 446q29 -21 44.5 -33t39.5 -34t36.5 -41t23 -45t11.5 -54q5 -97 -50 -157q-48 -53 -131 -56q-45 -2 -81 19t-57.5 55.5t-33.5 75t-12 82.5q0 16 13 22t25.5 0t13.5 -22q0 -52 17.5 -97.5t56.5 -68.5q32 -18 70.5 -14t66.5 26q30 23 42 62t8 80q-5 51 -57 99
q-21 20 -65 50t-76 59t-50 63q-15 30 -17.5 65.5t6.5 68t32 58.5t56 36q37 13 85.5 5.5t76.5 -36.5q35 -36 36 -121q0 -9 -5.5 -15.5t-13 -8t-15 0t-13 8t-5.5 15.5q0 20 -2 34.5t-7.5 29.5t-17.5 25t-30 15q-57 13 -94 -10q-25 -16 -34 -55q-14 -62 17 -107q4 -4 8 -9
t7.5 -9t9 -9t8.5 -8t9.5 -8.5t9 -7.5t10 -7.5t9.5 -7l10 -7.5t9 -6z" />
    <glyph glyph-name="T" unicode="T" horiz-adv-x="392" 
d="M556 850q21 1 24 -22q5 -26 -14 -35q-5 -3 -10 -3q-25 -1 -112.5 -4t-112.5 -5q-3 -38 -6 -101q-10 -189 -9 -352v-41.5v-42t0.5 -42.5t2 -42.5t3.5 -42t5.5 -41.5t8.5 -40q4 -18 -6.5 -29t-24.5 -8t-19 21q-12 50 -18 149q-7 141 -1 363q5 156 12 246q-23 -1 -102 -3.5
t-102 -4.5q-16 -1 -22.5 13.5t0 30t22.5 16.5q57 3 240.5 9.5t240.5 10.5z" />
    <glyph glyph-name="U" unicode="U" horiz-adv-x="476" 
d="M404 312q1 -18 0.5 -35.5t0 -36.5t1 -37t2 -37t3.5 -36.5t5.5 -36t8.5 -35.5q4 -15 -7 -24.5t-25 -6.5t-18 18q-13 44 -18 130q-7 105 -3 253q-50 -181 -100 -291q-72 -159 -141 -93q-31 29 -46 109q-12 70 -16 178q-2 83 5 335q0 10 5.5 16t13 7.5t15.5 0t13 -7.5t5 -16
q-8 -266 -4 -357q4 -100 16 -157q8 -35 16 -52q5 -11 9 -15l5 -5l2 -2h1h2q1 0 4 2q9 8 20 25q24 38 51 108q48 123 95 308q19 73 32 133q6 29 9 49q1 6 3 14v3v4t0.5 1.5l0.5 0.5q0 13 10.5 20t21.5 5q21 -4 19 -25q0 -6 -1 -14q-3 -36 -7 -94q-9 -165 -9 -306z" />
    <glyph glyph-name="V" unicode="V" horiz-adv-x="452" 
d="M351 722q1 16 14 22t25.5 0t11.5 -22q-4 -88 -24 -244q-25 -191 -52 -303q-18 -70 -38 -110q-24 -47 -56 -51q-46 -6 -80 57q-28 53 -49 155q-35 167 -53 444q-1 16 11.5 22.5t26 0t14.5 -22.5q19 -296 57 -460q21 -89 46 -127q6 -9 13 -15q1 -1 6 -3l2 -1v0q1 2 2 3
q4 3 7 9q5 9 9 16q7 15 16 40q15 48 30 121q48 236 61 469zM226 65zM225 63l1 1v0h-1v-1z" />
    <glyph glyph-name="W" unicode="W" horiz-adv-x="717" 
d="M656 722q1 16 14 22t25.5 0t12.5 -22q-5 -75 -22 -216q-20 -170 -44 -283q-15 -70 -31 -114q-19 -54 -39 -76q-32 -34 -77 -11q-41 22 -73 100q-27 69 -45 184q-2 9 -4 24q0 -1 -1 -5.5t-1 -7.5q-30 -162 -69 -238q-22 -46 -51 -60q-21 -9 -41 -3.5t-35 22.5
q-28 30 -50 99q-19 60 -35 154q-26 155 -40 375q-1 16 11.5 22.5t26 0t14.5 -22.5q15 -233 42 -385q15 -83 33 -137q20 -59 41 -76q2 -2 6 -3q1 -1 2 -1l2 1q3 1 4 3q1 0 2 1l3 3l3 3q16 19 35 70q30 86 54 231q18 110 22 174q-1 12 6.5 18.5t18.5 6.5t19 -6.5t7 -18.5
q10 -148 29 -254q20 -119 49 -177q15 -31 30 -44q6 -7 11 -8q2 -1 5 -1.5t4 -1.5q2 1 2 2q0 -1 -1 -1h1l4 5q1 1 3 4q3 4 4 6q3 6 8 15q13 28 24.5 69.5t15.5 64t14 74.5q41 226 51 419zM226 64zM531 64h-1h1zM531 64h-1h1zM529 64zM530 64v0v0zM531 65h1h-1z" />
    <glyph glyph-name="X" unicode="X" horiz-adv-x="482" 
d="M423 735q9 13 24 12t21.5 -12.5t-0.5 -25.5q-22 -35 -63 -102q-67 -110 -124 -209q19 -40 21 -44q4 -9 26 -54.5t31 -63t27 -52t34.5 -60.5t34.5 -51q9 -13 1.5 -24.5t-21.5 -12t-25 10.5q-29 41 -78 134q-39 74 -82 162q-22 -38 -27 -47q-49 -87 -79 -146
q-35 -68 -43 -97q-4 -15 -18.5 -17.5t-25 7t-6.5 24.5q11 36 53 120q53 102 118 214q-63 131 -142 312q-7 14 2 27t21.5 13t20.5 -14q12 -26 30 -67q51 -114 99 -216q74 126 170 279z" />
    <glyph glyph-name="Y" unicode="Y" horiz-adv-x="470" 
d="M393 521q8 -139 5 -236q-5 -131 -31 -194q-16 -41 -46.5 -63t-69.5 -8q-44 16 -70.5 65.5t-35.5 105.5q-2 15 9.5 25t25 7t15.5 -18q7 -47 29 -88q15 -29 31 -41q9 -7 21 -9q2 -1 7 0h3q7 2 13 8q7 7 13 18q12 22 21 65q14 70 14 194q0 35 -1 76q-39 -132 -113 -150
q-39 -10 -68 14.5t-47 65.5q-34 74 -53 201q-15 101 -15 163q0 16 13 22.5t26 0t13 -22.5q0 -67 15 -163q18 -114 45 -175q17 -38 35 -52q4 -3 8 -4l5 -1q10 -1 21 5q25 13 47 59q17 38 30 100q23 109 17 231q-1 19 17.5 23.5t28.5 -8.5q7 -7 8 -17q2 -31 7 -97.5t7 -101.5z
" />
    <glyph glyph-name="Z" unicode="Z" horiz-adv-x="516" 
d="M463 692q-96 -216 -199 -395q-49 -86 -146 -239q140 -17 299 14q15 3 25 -8t7 -25t-18 -17q-193 -38 -362 -8q-12 2 -17 15t1 23q118 185 167 271q92 162 180 353q-23 -4 -132 -0.5t-132 3.5q-16 0 -22.5 13t0 26t22.5 13q33 -1 95.5 -3t113.5 -2t96 5q15 1 21.5 -12.5
t0.5 -26.5z" />
    <glyph glyph-name="bracketleft" unicode="[" horiz-adv-x="254" 
d="M116 623q-2 -26 -5 -72q-10 -146 -9 -273v-28.5v-29.5t0.5 -29.5t1.5 -29.5t2.5 -29.5t4 -29.5t5.5 -28q9 0 27 1t27 1q16 1 22.5 -11.5t0 -26t-22.5 -13.5q-23 -1 -73 -4q-15 0 -22 13q-1 3 -3 6q-12 38 -17 114q-8 109 -2 284q6 137 14 211q1 3 2 7q5 19 24 19h86
q16 0 22.5 -13t0 -26t-22.5 -13h-63z" />
    <glyph glyph-name="backslash" unicode="\" horiz-adv-x="366" 
d="M315 50q5 -15 -5 -24.5t-25 -7t-20 17.5l-213 585q-6 15 4.5 24t25 6.5t19.5 -16.5q36 -98 107 -293t107 -292z" />
    <glyph glyph-name="bracketright" unicode="]" horiz-adv-x="254" 
d="M195 551q9 -150 8 -278v-28v-30.5t-0.5 -28.5t-1.5 -31t-2.5 -28.5t-3.5 -30.5t-5.5 -27.5t-8.5 -28.5q-1 -4 -3 -7q-6 -12 -21 -12q-23 1 -73 4q-16 0 -22.5 13.5t0 26t22.5 11.5l53 -2q8 31 11 89q7 110 1 280q-5 116 -11 180h-63q-16 0 -22.5 13t0 26t22.5 13h86
q19 0 24 -19q1 -4 2 -7q4 -34 8 -98z" />
    <glyph glyph-name="asciicircum" unicode="^" horiz-adv-x="310" 
d="M259 520q4 -15 -6.5 -25t-25 -7t-18.5 18q-19 61 -53 112q-5 -10 -13 -27t-13.5 -29t-13.5 -27t-17 -27q-9 -13 -24 -11.5t-21.5 12.5t1.5 25q16 23 39 73t38 72q10 14 25.5 11.5t21.5 -15.5q54 -72 80 -155z" />
    <glyph glyph-name="grave" unicode="`" horiz-adv-x="191" 
d="M137 634q6 -9 2.5 -19.5t-11.5 -15.5q-10 -6 -19.5 -3t-16.5 12q-14 20 -17 25q-3 4 -7 8q-4 5 -11 13t-7 18t7 18q8 8 19 8t18 -8q18 -20 43 -56z" />
    <glyph glyph-name="a" unicode="a" horiz-adv-x="401" 
d="M425 310q9 14 22 4q15 -13 5 -35q-10 -20 -26 -42t-37.5 -44t-48 -36.5t-52.5 -14.5q-28 0 -46 19q-21 24 -29 76q-21 -35 -50 -60q-18 -15 -39 -24.5t-45 -11t-45 11.5q-22 13 -29.5 39.5t-3.5 53t15 48.5q16 33 46 57.5t66 36.5q41 13 77 2q2 56 2 70q0 15 12.5 21.5
t25.5 0t13 -22t-1.5 -65.5t-0.5 -77q4 -128 37 -128q31 0 69.5 39.5t62.5 81.5zM131 217q52 48 68 121q-10 9 -28 6.5t-32.5 -8t-26.5 -12.5q-29 -18 -46.5 -47.5t-12.5 -61.5q2 -15 11.5 -20t22.5 -1t24.5 10t19.5 13z" />
    <glyph glyph-name="b" unicode="b" horiz-adv-x="318" 
d="M232 384q25 -19 32.5 -49t-1.5 -60t-28 -53q-27 -32 -69 -49t-88 -18q-6 0 -11 3q2 -8 2 -9q4 -15 -6.5 -25t-24.5 -7t-19 18q-2 9 -5 20q-2 6 -3 13q-11 57 -11 134t5 134q5 91 24 275q2 22 25 25q21 2 26 -16q1 -4 0 -9q-18 -180 -23 -269q-5 -81 -4 -143q22 40 50 65
q18 16 39.5 25t46 8.5t43.5 -13.5zM210 279q8 14 6 36.5t-19 29.5q-19 8 -47 -10q-41 -25 -68 -96q-6 -17 -11 -33q4 1 7 1q42 0 80 18.5t52 53.5z" />
    <glyph glyph-name="c" unicode="c" horiz-adv-x="288" 
d="M304 308q12 20 30 8t8 -32q-1 -2 -1 -3q-28 -46 -58 -76.5t-69.5 -49t-86.5 -18.5q-29 0 -54 9q-25 10 -41.5 29.5t-23.5 42.5t-8 50q-1 45 22 90t64 56q36 11 68.5 -17t34.5 -66q1 -16 -11.5 -22.5t-26 0t-14.5 22.5q0 9 -9.5 21t-20.5 13q-24 3 -45 -44
q-8 -19 -10.5 -42t5 -46t25.5 -34q19 -11 47 -11q104 1 175 120z" />
    <glyph glyph-name="d" unicode="d" horiz-adv-x="340" 
d="M290 711q-19 -180 -24 -269q-5 -96 -3 -167q2 -81 15 -126q5 -15 -6 -25t-25 -7t-18 18q-15 51 -18 118q-4 -4 -13 -17q-18 -23 -30.5 -37.5t-34 -31.5t-42.5 -23q-40 -11 -65 18t-26 71q-1 46 24.5 88t68.5 63q62 31 119 -1q0 8 2 53q5 91 24 275q2 22 25 25
q21 2 26 -16q1 -4 1 -9zM197 328v1.5t1 0.5q-29 23 -63.5 14.5t-58.5 -39.5q-29 -37 -24 -82q4 -32 23 -30q13 2 38 25q24 22 46 52t38 58z" />
    <glyph glyph-name="e" unicode="e" horiz-adv-x="292" 
d="M309 308q13 18 29 5q18 -13 7 -33q-1 -3 -3 -5q-20 -27 -33 -43t-38 -41.5t-45.5 -40t-48.5 -26t-55 -11.5q-45 0 -76.5 33.5t-41 80t0.5 97.5t38 83q19 21 47 30t53 0q22 -7 32 -27.5t8 -44.5q-3 -44 -43 -68t-90 -23q0 -15 2.5 -31.5t9.5 -36t23 -32t38 -12.5
q25 0 53 15t53.5 39.5t44.5 47t35 44.5zM87 378q-20 -16 -30 -53q32 1 56 15.5t18 38.5q-1 7 -6.5 9.5t-12.5 1t-13.5 -5t-11.5 -6.5z" />
    <glyph glyph-name="f" unicode="f" horiz-adv-x="170" 
d="M126 717h-6h1q-3 -1 -7 -2l-2 -1t-3 -1l-2 -2q-1 0 -2 -1q-2 -2 -5 -6q-4 -3 -8 -11q-10 -16 -17 -40q-14 -50 -19 -131q-1 -14 -1 -32h122q16 0 22.5 -13t0 -26t-22.5 -13h-124q-2 -116 13 -339q1 -16 -11.5 -22.5t-26 0t-14.5 22.5q-12 180 -12 298v41h-18
q-16 0 -22.5 13t0 26t22.5 13h19q2 54 8 100q11 84 35 126q28 50 75 53q52 3 78 -36q17 -27 17 -80q0 -16 -13 -22.5t-26 0t-13 22.5v3q0 49 -20 58q-5 3 -18 3z" />
    <glyph glyph-name="g" unicode="g" horiz-adv-x="270" 
d="M296 131q15 -3 18 -16.5t-6.5 -25t-25.5 -8.5q-35 7 -71 6q1 -104 -13 -169q-15 -69 -50.5 -125t-92.5 -82q-29 -14 -62.5 -17t-64 5t-54 31t-29.5 58q-12 64 21 130t88 117q88 80 205 98q0 2 -0.5 22t-0.5 30q0 1 -0.5 2.5t-0.5 2.5q-5 -7 -10 -13q-26 -29 -60 -33.5
t-63 25.5q-30 40 -24 89t39 85q46 51 108 26l-2 13q-1 16 11 22.5t25.5 0t15.5 -22.5q10 -104 13 -244q43 1 86 -7zM150 305v2q-20 19 -41.5 18t-38.5 -25q-10 -14 -16 -33t-3 -39.5t18 -30.5q14 -9 29 4t26 31q25 42 26 73zM159 16q2 29 1 66q-117 -21 -197 -111
q-43 -49 -60 -101q-23 -67 5 -101q14 -18 43.5 -23.5t47.5 0.5q39 8 69 34q82 71 91 236z" />
    <glyph glyph-name="h" unicode="h" horiz-adv-x="413" 
d="M436 308q13 20 27 7q14 -14 2 -36q-33 -58 -73.5 -97.5t-81.5 -39.5q-36 0 -58.5 22.5t-31.5 59.5q-2 8 -4 19.5l-4 23t-4 19.5q-4 18 -8 27q-5 10 -11 12q-14 7 -31 -14q-17 -22 -32 -71q-25 -88 -22 -184q0 -13 -8 -19.5t-20 -5.5q-14 -1 -22 12q-30 51 -42 135
q-5 28 -7.5 58t-3.5 60.5t-1 58t1.5 61t3.5 58.5t5 60.5t5.5 58t6.5 60.5t6 58q2 16 15.5 22.5t25.5 0t11 -22.5q-2 -18 -6 -52.5t-6 -50.5q-17 -169 -16 -288q2 -87 9 -135q7 44 20 84q35 105 96 109q23 1 40.5 -11t26.5 -29.5t14 -41.5q2 -5 4.5 -24.5t5 -32.5t9.5 -26.5
t16 -17.5q26 -9 60 18q45 37 83 95z" />
    <glyph glyph-name="i" unicode="i" horiz-adv-x="203" 
d="M225 314q8 13 19 12t14.5 -12t-2.5 -26q-23 -45 -75.5 -95.5t-100.5 -50.5q-28 0 -47 19q-28 29 -32 106q-2 5 -0.5 57.5t1.5 57.5q0 16 13 22.5t25.5 0t12.5 -22.5q0 -12 -1 -43.5t0 -48.5q0 -61 12 -84q7 -13 15 -13q23 0 46 13t44.5 37.5t31 37t24.5 33.5zM27.5 434
q-15.5 0 -22 13t0 26t22 13t22 -13t0 -26t-22 -13z" />
    <glyph glyph-name="j" unicode="j" horiz-adv-x="125" 
d="M17.5 434q-15.5 0 -22 13t0 26t22 13t22 -13t0 -26t-22 -13zM151 131q15 -3 18 -16.5t-6.5 -25t-25.5 -8.5q-35 7 -71 6q1 -104 -13 -169q-15 -69 -50.5 -125t-92.5 -82q-29 -14 -62.5 -17t-64 5t-54 31t-29.5 58q-12 64 21 130t88 117q88 80 205 98q0 3 -0.5 22.5
t-0.5 29.5q-3 105 -13 197q-1 16 11 22.5t25.5 0t15.5 -22.5q10 -104 13 -244q43 1 86 -7zM14 16q2 29 1 66q-117 -21 -197 -111q-43 -49 -60 -101q-23 -67 5 -101q14 -18 43.5 -23.5t47.5 0.5q39 8 69 34q82 71 91 236z" />
    <glyph glyph-name="k" unicode="k" horiz-adv-x="283" 
d="M310 305q11 21 23 10q13 -13 2 -38q-27 -61 -73 -98.5t-107 -37.5q-47 0 -90 23q11 -55 34 -94q8 -14 -0.5 -26.5t-21.5 -12.5t-23 12q-30 51 -42 135q-6 36 -9 73.5t-2.5 80t1 73t4.5 80t6 73t8 79.5t8 74q2 16 15.5 22.5t25.5 0t11 -22.5q-2 -18 -6 -52.5t-6 -50.5
q-17 -169 -16 -288q1 -17 1 -29q42 61 102 105q13 9 25 1.5t12.5 -21.5t-10.5 -24q-69 -50 -112 -132q43 -31 82 -31q52 0 90 29.5t68 86.5z" />
    <glyph glyph-name="l" unicode="l" horiz-adv-x="153" 
d="M99 70q8 -14 -0.5 -26.5t-21.5 -12.5t-23 12q-30 51 -42 135q-6 36 -9 73.5t-2.5 80t1 73t4.5 80t6 73t8 79.5t8 74q2 16 15.5 22.5t25.5 0t11 -22.5q-2 -18 -6 -52.5t-6 -50.5q-17 -169 -16 -288q1 -54 3 -87.5t13 -81.5t31 -81z" />
    <glyph glyph-name="m" unicode="m" horiz-adv-x="607" 
d="M631 308q9 16 24 4q17 -14 4 -35q-15 -27 -29 -46.5t-34.5 -42t-45 -34.5t-50.5 -12q-50 0 -74 40q-4 8 -7.5 17t-6 17.5t-4.5 18.5t-3 18t-3 18.5t-4 18.5q-6 27 -15 34q-4 3 -11 3q-7 -1 -17 -10q-54 -48 -56 -159v-16q1 -12 -6.5 -18.5t-18.5 -6.5q-7 0 -13 2.5
t-9.5 8.5t-3.5 14q-1 7 0 17q-1 58 -5 96q-8 76 -30 103q-12 14 -24 11q-13 -3 -28 -25q-29 -43 -56 -138q-20 -71 -34 -157q-1 -4 -3 -7q-4 -18 -24.5 -20.5t-24.5 18.5q-38 210 -1 421q3 15 16.5 18t25 -7t8.5 -25q-21 -118 -16 -239q9 34 19 62q10 31 18 50t23.5 44
t34.5 40q25 20 55 16t50 -29q24 -29 35 -80q12 22 27 38q23 24 53 28t55 -19q7 -8 12.5 -17t9 -21.5t5.5 -20t4.5 -23t3.5 -20.5q2 -13 3 -18t4.5 -16t7.5 -15.5t11.5 -9t17.5 -4.5q21 0 41 11t37 30.5t28 35t24 38.5z" />
    <glyph glyph-name="n" unicode="n" horiz-adv-x="401" 
d="M412 308q10 15 24 3q17 -13 4 -34q-39 -66 -74 -99.5t-89 -35.5q-35 -2 -58 21t-32 61q-2 11 -6 32t-6 30q-4 18 -8 27q-5 10 -10 12q-15 7 -31 -14q-18 -22 -32 -71q-26 -88 -23 -184q1 -12 -7 -19q-9 -13 -25.5 -11.5t-19.5 18.5q-38 210 -1 421q3 15 16.5 18t25 -6.5
t8.5 -25.5q-15 -86 -17 -175q34 98 93 102q34 2 54 -21.5t28 -60.5q1 -4 3 -17t3.5 -23t5.5 -23.5t9 -22.5t14 -15t20 -6q12 0 23.5 3.5t20.5 9t19 14.5t17 16.5t15 19.5l13 19.5t12.5 19.5t10.5 17z" />
    <glyph glyph-name="o" unicode="o" horiz-adv-x="317" 
d="M335 306q28 15 35 4q9 -17 -9 -31q-58 -45 -147 -53q-2 -10 -5 -18q-21 -58 -77 -68q-36 -7 -65 8.5t-47 46.5q-38 69 -7 146q14 35 37.5 59t56.5 25q4 1 8 0q8 0 16 -2q46 -8 68.5 -51t21.5 -97q55 0 114 31zM153 351q-5 8 -16.5 15.5t-21.5 8.5q-4 -1 -8 -1h-2
q-6 -8 -4 -22t6 -25q14 -35 56 -46h2.5t2.5 -1q0 48 -15 71zM143 199q12 9 18 28q-51 9 -82 47q-14 17 -22 39q-2 -8 -3 -15q-3 -18 -2 -35.5t9 -35t21 -28.5q12 -10 30 -10t31 10z" />
    <glyph glyph-name="p" unicode="p" horiz-adv-x="334" 
d="M275 355q14 -47 1 -91t-45 -80q-64 -72 -175 -80q-3 -70 -3 -132q0 -44 -0.5 -83t4 -84t14.5 -82q4 -15 -6.5 -24.5t-24.5 -7t-19 18.5q-12 44 -17 128q-13 230 18 538q2 16 15.5 22t25.5 0t11 -22q-3 -30 -6 -69q28 47 65 73q24 17 52 22t53.5 -6.5t36.5 -40.5zM59 150z
M59 150v1v-1zM228 286q10 41 -5 59q-10 9 -21.5 9t-25.5 -8.5t-24 -16.5t-17 -16q-33 -38 -58 -102q-9 -24 -14 -45q-2 -4 -3 -10q92 9 141 72q20 27 27 58z" />
    <glyph glyph-name="q" unicode="q" horiz-adv-x="341" 
d="M281 269q-11 -163 -12 -297v-30.5v-32v-30.5t1 -33t2 -30.5t3 -32t5.5 -29.5t7.5 -31t-6.5 -24.5t-25 -7t-18.5 18.5q-13 44 -17 128q-10 167 3 370q-22 -26 -48 -46q-21 -15 -45 -24.5t-51.5 -9.5t-47.5 14q-22 15 -28.5 43t-0.5 55.5t19 49.5q19 32 52 55.5t70 32.5
q49 12 94 -4q0 1 0.5 1.5l0.5 0.5q1 16 14.5 22t26 0t10.5 -22q-4 -42 -9 -107zM152 208q56 43 75 114q-2 1 -5 2q-20 7 -45 7t-53 -15q-34 -18 -54.5 -47.5t-16.5 -63.5q1 -14 10 -20.5t20.5 -5.5t25 6t24.5 11t19 12z" />
    <glyph glyph-name="r" unicode="r" horiz-adv-x="353" 
d="M395 318q3 -2 2.5 -12.5t-6.5 -18.5q-34 -44 -84 -44q-26 0 -45.5 15t-28.5 33.5t-20.5 34t-23.5 15.5q-11 0 -21 -6.5t-19 -19.5t-13.5 -21t-12.5 -23q-26 -50 -42 -124q-14 -62 -10 -95q2 -10 -6.5 -18t-18.5 -8h-1q-22 -4 -26 18q-38 210 -1 421q3 15 16.5 18t25 -6.5
t8.5 -25.5q-19 -106 -17 -215q42 126 116 152q13 5 30 5q23 0 39.5 -16.5t24.5 -36t22.5 -36t32.5 -15.5q22 0 48 24q21 20 31 5z" />
    <glyph glyph-name="s" unicode="s" horiz-adv-x="279" 
d="M311 314q15 0 21.5 -9.5t0 -19.5t-21.5 -10q-57 -1 -125 -36q-26 -13 -51 -28q1 -1 1.5 -2t1.5 -1q48 -64 43 -130q-2 -33 -22 -59t-51 -42q-62 -31 -114 -23q-33 5 -50.5 33t-15.5 63q2 40 44 91q32 38 86 79l-1 1q-16 17 -23.5 25t-17 25t-10.5 33q-4 34 12.5 61.5
t48.5 35.5q36 9 67 -12.5t35 -57.5q1 -16 -11 -22t-25.5 0t-15.5 22q0 7 -9 13.5t-17 7.5q-11 2 -22 -5q-10 -7 -12 -23q-2 -14 1 -23q6 -12 33 -41l10 -10q43 29 100 46t110 18zM124 125q-8 28 -31 57q-16 -12 -30 -24q-53 -45 -73 -81q-6 -10 -9.5 -23.5t0 -27.5t15.5 -20
q18 -7 46 0.5t50 20.5q52 31 32 98z" />
    <glyph glyph-name="t" unicode="t" horiz-adv-x="118" 
d="M476 627q16 0 22.5 -12.5t0 -25.5t-22.5 -13h-403q0 -1 -0.5 -4.5t-0.5 -5.5q-16 -235 -15 -391q1 -112 10 -177q6 -38 14 -62q3 -10 9 -19l1 -4q1 -1 4 -3q0 -1 1 -1q7 -5 9 -13.5t-1 -15.5t-8 -12.5t-12.5 -6t-15.5 4.5q-17 12 -28.5 35.5t-15 40.5t-7.5 45
q-12 89 -12 202.5t6 203.5q2 56 11 183h-216q-16 0 -22.5 13t0 25.5t22.5 12.5h83h137q2 35 3 61q1 15 14.5 21.5t26 0t11.5 -21.5q-1 -24 -4 -61h399z" />
    <glyph glyph-name="u" unicode="u" horiz-adv-x="325" 
d="M273 80q8 -21 -13 -29t-34 9q-2 3 -3 6q-19 46 -28 152q-2 16 -3 35q-66 -150 -145 -100q-18 12 -29 30t-14 44t-3.5 44.5t1 49t1.5 40.5q0 16 13 22.5t25.5 0t12.5 -22.5q0 -11 -1 -37t-0.5 -45.5t2.5 -36.5q6 -34 18 -44q6 -5 16 -5q3 0 8.5 4t10.5 9.5t9 10.5t8 13
t7 13t7 14t5.5 13.5t5 14t4.5 12.5q6 13 16.5 44t17.5 48q1 4 4 8q9 19 29 9q18 -5 18 -24q0 -82 7 -158q8 -99 27 -144z" />
    <glyph glyph-name="v" unicode="v" horiz-adv-x="337" 
d="M369 327q15 -2 21.5 -15.5t0.5 -26t-22 -10.5q-59 7 -101 35q-12 -76 -25 -120q-27 -89 -71 -115q-29 -15 -56.5 -7t-46.5 34q-31 42 -49 138q-11 55 -20 143q-2 21 19 25q22 3 30 -16l3 -9q8 -84 19 -137q17 -84 40 -115q11 -15 22 -15q14 0 28 17q24 30 43 113
q6 27 21 122q3 14 19 18.5t25 -6.5q36 -46 100 -53z" />
    <glyph glyph-name="w" unicode="w" horiz-adv-x="561" 
d="M593 327q15 -2 21.5 -15.5t0.5 -26t-22 -10.5q-59 7 -101 35q-10 -68 -23 -106q-28 -85 -83 -98q-37 -9 -68.5 11t-50.5 56q-11 20 -19 44q-14 -52 -33 -90q-35 -75 -93 -79q-50 -4 -79 56q-43 88 -43 257q0 16 13 22.5t26 0t13 -22.5q0 -73 10 -137q1 -2 1 -7
q14 -83 39 -110q11 -12 27 -6q20 8 39 47q8 14 14 31t10.5 30t9.5 34l7.5 31.5t7.5 34.5t7 32q1 13 13 18t24.5 -1.5t14.5 -21.5q8 -84 33 -133q13 -24 31 -39.5t40 -5.5q10 4 18.5 14t14 25t8 23t6.5 25q6 23 22 123q3 14 19 18.5t25 -6.5q36 -46 100 -53z" />
    <glyph glyph-name="x" unicode="x" horiz-adv-x="297" 
d="M194 73q-15 28 -59 111q-14 -21 -43 -64t-43 -64q-9 -13 -24 -11.5t-21.5 12.5t0.5 25q35 51 104 154q-20 39 -61 116q-7 14 1.5 26.5t21.5 12.5t22 -13q7 -13 15.5 -29.5t17.5 -33.5t16 -30q9 14 28 42.5t29 42.5q9 13 24 11.5t21 -12.5t-1 -25q-12 -19 -37 -56t-37 -55
q8 -15 32.5 -62t37.5 -72q11 -21 -10 -34q-20 -13 -32 4z" />
    <glyph glyph-name="y" unicode="y" horiz-adv-x="308" 
d="M346 127q16 -3 18.5 -16.5t-7 -25t-24.5 -8.5q-35 6 -71 5q1 -73 -6 -121q-23 -163 -119 -235q-39 -29 -89.5 -35.5t-94.5 17t-57 75.5q-14 53 22 130q31 68 94 123q87 75 198 92q0 60 -4 115q-40 -66 -87 -90q-25 -15 -55.5 -9.5t-45.5 31.5q-25 42 -6 133q3 15 16.5 18
t25 -7t7.5 -25q-15 -75 2 -95q17 -19 54 15q8 8 15 15.5t14.5 17.5t12 16.5t12 20l10 18t10.5 20t10 18.5q5 11 15.5 12.5t18.5 -3.5q15 -7 16 -22q8 -75 10 -179v-15q43 1 85 -6zM210 23v54q-110 -21 -188 -104q-48 -50 -68 -106q-21 -63 5 -98q18 -24 50.5 -28.5t58.5 6.5
q48 16 81 66q59 85 61 210z" />
    <glyph glyph-name="z" unicode="z" horiz-adv-x="314" 
d="M247 128q14 -6 16.5 -21t-6.5 -25t-24 -4q-20 8 -66 6q-7 0 -80 -5q-2 0 -10 -1t-12.5 -1h-12.5t-13 0.5t-12 2t-11 4t-8 6.5t-6 9.5t-2 13.5q0 9 4 18.5t11.5 20t13 17t16.5 17t14 13.5q12 13 34 35.5t40 41.5t33 36q-62 11 -117 -6q-15 -5 -24.5 5.5t-7 25t17.5 18.5
q90 29 186 -4q14 -5 17.5 -18.5t-6.5 -24.5q-36 -41 -120 -128q-29 -30 -42 -45q-2 -3 -5 -6q8 1 62 5q2 0 19 1t21.5 1.5t19 0.5t22 -1t18.5 -3t20 -5z" />
    <glyph glyph-name="braceleft" unicode="{" horiz-adv-x="243" 
d="M173 73q15 -3 18 -16.5t-7 -25t-25 -8.5q-30 6 -48 26t-22.5 46t-6.5 55t0 53q2 49 0 81q-2 21 -7 34q-2 6 -4 9q-2 0 -2 1q-16 2 -18.5 21t12.5 26q7 3 12 15q5 13 7 35q3 29 2 87q0 30 1.5 51.5t8.5 48.5t24 45t44 25q15 5 24.5 -6t6.5 -25t-18 -18q-16 -5 -25.5 -18.5
t-12.5 -34t-3.5 -37.5t1 -41t1.5 -32q-1 -85 -20 -116q19 -29 19 -111q0 -12 -2 -70q0 -19 -0.5 -39.5t9.5 -38.5t31 -22z" />
    <glyph glyph-name="verticalbar" unicode="|" horiz-adv-x="153" 
d="M102 664q0 -103 0.5 -308.5t0.5 -308.5q0 -15 -13 -21.5t-25.5 0t-12.5 21.5q-1 103 -1.5 308.5t-0.5 308.5q0 16 13 22.5t26 0t13 -22.5z" />
    <glyph glyph-name="braceright" unicode="}" horiz-adv-x="243" 
d="M181 375q15 -7 12.5 -26t-18.5 -21q-1 -1 -2 -1q-3 -4 -5 -11q-4 -13 -6 -34q-3 -31 -1 -79q3 -24 1 -53t-7 -55t-23 -46t-47 -26q-16 -3 -25.5 8.5t-6.5 25t18 16.5q21 4 31 23t9 40.5t0 40.5q-2 54 -2 66q0 82 19 111q-19 31 -20 116q-1 8 0.5 32t1 41t-3.5 37.5
t-12.5 34t-25.5 18.5q-15 4 -17.5 18t7 25t24.5 6q27 -7 44 -25t23.5 -45t8.5 -48.5t1 -51.5q-1 -60 3 -89q5 -42 19 -48z" />
    <glyph glyph-name="asciitilde" unicode="~" horiz-adv-x="392" 
d="M298 389q11 11 25 6.5t18 -17.5t-6 -26q-25 -26 -60 -33t-69 7q-5 2 -27.5 15t-35.5 14q-30 3 -45 -27q-9 -13 -22 -12.5t-21.5 13t-1.5 25.5q16 30 48 44t64 5q12 -4 34 -16.5t35 -15.5q37 -11 64 18z" />
    <glyph glyph-name="nonbreakingspace" unicode="&#xa0;" horiz-adv-x="238" 
 />
    <glyph glyph-name="exclamdown" unicode="&#xa1;" horiz-adv-x="167" 
d="M82.5 652q-15.5 0 -22 13t0 25.5t22 12.5t22 -12.5t0 -25.5t-22 -13zM117 25q1 -16 -11.5 -22.5t-25.5 0t-15 22.5q-20 278 -13 558q0 16 13 22.5t25.5 0t12.5 -22.5q-6 -280 14 -558z" />
    <glyph glyph-name="cent" unicode="&#xa2;" horiz-adv-x="281" 
d="M180 278q5 15 19.5 17.5t25 -7t5.5 -24.5q-10 -33 -40.5 -49.5t-64.5 -5.5q-6 2 -13 5q-20 -39 -38 -75q-5 -7 -11 -7t-10.5 6.5t-0.5 13.5q19 37 38 77q-36 32 -38 84q-1 35 15 65.5t45 44.5q34 15 67 2q14 33 25 59q3 7 10.5 8.5t12.5 -3t2 -12.5q-12 -30 -27 -66
q10 -8 16 -19q12 -18 -5.5 -31.5t-33.5 -0.5q-22 -52 -45 -99q13 -7 27.5 -2.5t18.5 19.5zM114 278q23 48 45 100q-16 5 -31 -5q-23 -16 -24 -53q-1 -24 10 -42z" />
    <glyph glyph-name="currency" unicode="&#xa4;" horiz-adv-x="404" 
d="M297 249q29 -18 49 -42q17 -20 0 -37q-7 -7 -18 -7.5t-18 7.5q-22 26 -50 41q-1 0 -2 1q-26 -14 -55 -14q-30 0 -56 14q-32 -19 -49 -52q-9 -13 -22 -13t-21.5 12.5t-1.5 26.5q20 38 54 62q-21 30 -21 66q0 40 26 71l-1 2q-20 31 -49 57q-8 7 -8 18t8 18q8 8 18 7.5
t18 -7.5q30 -26 54 -62q24 12 51 12q22 0 43 -9q31 35 64 65q11 10 25.5 5t17.5 -17.5t-7 -24.5q-30 -27 -58 -58q27 -31 30 -72q1 -3 1 -5.5t-1 -4.5q-2 -33 -21 -60zM203 249q26 0 44.5 19t19.5 46q-1 27 -20.5 46t-46.5 18q-26 -1 -44 -20t-18 -44q0 -27 19 -46t46 -19z
" />
    <glyph glyph-name="yen" unicode="&#xa5;" horiz-adv-x="486" 
d="M378 539q-67 -159 -135 -183q1 -10 1 -23q11 1 136 14q15 2 21.5 -10.5t0 -26t-21.5 -14.5q-125 -13 -136 -14q0 -3 1 -58q14 0 32.5 1t37.5 2.5t33 1.5q16 1 22 -11.5t0 -25.5t-22 -14q-17 -1 -51.5 -3t-51.5 -3q1 -80 6 -138q2 -15 -10.5 -21.5t-26 0t-14.5 21.5
q-5 57 -6 135q-16 -1 -47.5 -2.5t-47.5 -2.5t-22.5 11.5t0 26t22 14t47 2.5t47.5 3v17.5v21v18.5q-65 -4 -118 -2q-16 0 -22.5 13t0 26t22.5 12q53 -2 117 2v27q-8 3 -16 7q-52 30 -73 137q-18 91 -15 218q0 15 13 21.5t26 0t12 -21.5q-3 -130 15 -213l7.5 -28.5t9 -28.5
t16.5 -29.5t23 -13.5q14 -4 31 10q17 13 37 42q73 110 107 272q5 22 27 18q21 -3 23 -23q1 -4 0 -9q-17 -82 -57 -176z" />
    <glyph glyph-name="brokenbar" unicode="&#xa6;" horiz-adv-x="155" 
d="M102 414q0 -16 -12.5 -22.5t-25.5 0t-13 22.5q-2 113 0 226q0 16 13 22.5t26 0t13 -22.5q-2 -113 -1 -226zM53 314q0 15 13 21.5t26 0t13 -21.5v-244q0 -16 -13 -22t-26 0.5t-13 21.5v244z" />
    <glyph glyph-name="section" unicode="&#xa7;" horiz-adv-x="379" 
d="M317 206q17 -37 9.5 -75t-36.5 -66q-32 -28 -75.5 -33t-81.5 14q-39 21 -56.5 60t-7.5 83q4 15 17.5 18t24.5 -7t8 -25q-6 -25 4.5 -47.5t30.5 -33t44 -12.5t46 13q21 14 28.5 33t2.5 38t-17 37t-30 31q-19 16 -54.5 34t-64 37.5t-44.5 45.5q-19 31 -13 64t32 53
q-14 17 -22 35q-17 37 -10 75.5t37 65.5q32 29 75 33.5t82 -14.5q39 -21 56 -60t8 -83q-4 -15 -18 -18t-25 7t-7 25q6 25 -5 47.5t-30.5 33t-44 12.5t-45.5 -13q-28 -18 -32 -45t10 -51.5t37 -42.5q20 -16 55.5 -34t63.5 -37t45 -46q19 -31 13 -64t-32 -53q14 -17 22 -35z
M255 278q15 7 20 20t-2 29q-7 13 -22 26t-24.5 18t-30.5 17q-48 25 -73 43q-14 -6 -19.5 -19.5t2.5 -29.5q7 -13 22 -26t24 -18t31 -17q48 -25 72 -43z" />
    <glyph glyph-name="dieresis" unicode="&#xa8;" horiz-adv-x="249" 
d="M75 647q16 0 22 -12.5t0 -25.5t-22 -13t-22.5 13t0 25.5t22.5 12.5zM173.5 647q15.5 0 22 -12.5t0 -25.5t-22 -13t-22 13t0 25.5t22 12.5z" />
    <glyph glyph-name="copyright" unicode="&#xa9;" horiz-adv-x="426" 
d="M270 664q31 -11 55 -34.5t37.5 -54t13.5 -64.5q-1 -58 -37.5 -103.5t-93.5 -56.5q-51 -10 -99 11.5t-74 66.5q-26 44 -21.5 95t35.5 91q33 40 84 54t100 -5zM260 382q16 6 30 15.5t25 22t19 27t12 31t4 33.5q0 50 -31.5 88t-80.5 48q-42 8 -82 -10.5t-62 -56t-18 -81.5
t32 -77q28 -32 70 -43t82 3zM254 468q3 7 10 8.5t12 -3.5t3 -12q-9 -28 -34.5 -41.5t-54.5 -4.5q-19 6 -33.5 20t-22 32.5t-8.5 39.5q0 31 14 58.5t40 39.5q24 11 49.5 3.5t38.5 -29.5q5 -6 0.5 -12.5t-11 -6.5t-11.5 6q-9 16 -28.5 19t-34.5 -7q-29 -20 -31 -64
q0 -23 9.5 -42.5t28.5 -29.5q19 -9 38.5 -2t25.5 28z" />
    <glyph glyph-name="guillemotleft" unicode="&#xab;" horiz-adv-x="308" 
d="M128 300q14 -23 31 -49q9 -13 1 -25t-21.5 -12.5t-23.5 11.5q-22 33 -40 62q-2 3 -8.5 12.5t-9 14.5t-5.5 13t-2 16q1 9 5.5 18.5t13 22.5t10.5 16q6 10 17 30t17 30q5 8 12.5 11t15 0.5t13.5 -7.5t7 -13.5t-3 -16.5l-29 -49q-5 -10 -16 -28q-1 -2 -5 -8t-5 -9q1 1 3 -2
t4 -8t3 -6q8 -13 15 -24zM254 251q13 -20 -8 -33q-20 -13 -34 4q-2 1 -3 3q-21 33 -40 62q-2 4 -5.5 9t-6 8.5t-5 9t-4.5 9.5t-3 9.5t0 10.5q1 9 5 18.5t13 22.5t10 16q5 9 11 19.5t12.5 21.5t11 19t12.5 11t15 0.5t13 -7.5t7 -13.5t-3 -16.5l-28 -49q-5 -10 -16 -28
q-1 -2 -5 -8l-6 -9q1 1 3 -2t4.5 -8t2.5 -6q8 -13 16 -24q14 -23 31 -49z" />
    <glyph glyph-name="logicalnot" unicode="&#xac;" horiz-adv-x="457" 
d="M402 330q4 -13 4.5 -28.5t0 -36t-0.5 -29.5q0 -15 -12.5 -21.5t-25.5 0t-14 21.5q0 7 1 32t0 33q-16 0 -120.5 2.5t-159.5 1.5q-11 -1 -17.5 6t-7.5 16q0 7 2.5 13.5t8 11t14.5 4.5q106 3 246 -1q3 0 20.5 0.5t28.5 -1t19 -5.5q9 -6 13 -19z" />
    <glyph glyph-name="softhyphen" unicode="&#xad;" horiz-adv-x="0" 
 />
    <glyph glyph-name="registered" unicode="&#xae;" horiz-adv-x="426" 
d="M270 660q47 -18 76 -60t30 -93q-1 -58 -37.5 -103.5t-93.5 -56.5q-51 -10 -99 11.5t-74 66.5q-26 43 -21.5 94.5t35.5 90.5q33 40 84 54t100 -4zM260 378q16 6 30 15.5t25 22t19 27t12 31t4 33.5q0 50 -31.5 88t-80.5 47q-42 8 -82 -10t-62 -55.5t-18 -81.5t32 -77
t70 -44t82 4zM273 563q2 -21 -14.5 -38.5t-41.5 -26.5q36 -29 54 -71q3 -8 -1.5 -14t-10.5 -6t-10 7q-21 48 -64 76v-22v-24t1 -21q0 -8 -6.5 -11.5t-13 0t-6.5 11.5q0 58 -1 176q0 8 7.5 11t12.5 -1q27 10 58.5 -4.5t35.5 -41.5zM245 549q9 20 -17 31.5t-43 2.5v-65
q15 0 34.5 9t25.5 22z" />
    <glyph glyph-name="degree" unicode="&#xb0;" horiz-adv-x="272" 
d="M221 631q1 -4 1 -8t-1 -8q-4 -33 -28 -55.5t-57 -22.5q-35 0 -60.5 25.5t-25.5 60.5t25.5 60.5t60.5 25.5q33 0 57 -22.5t28 -55.5zM102 623q0 -21 16.5 -29.5t33.5 0t18 29.5q-1 21 -18 29.5t-33.5 0t-16.5 -29.5z" />
    <glyph glyph-name="plusminus" unicode="&#xb1;" horiz-adv-x="414" 
d="M75 408q-21 -2 -24 19q-4 21 15 30l9 2q19 2 53.5 5t42.5 4q-1 57 -3 111q0 15 12.5 21.5t25.5 0t14 -21.5q2 -52 2 -107q67 4 117 -1q15 -2 21.5 -15.5t0 -26t-21.5 -10.5q-50 6 -117 2q0 -79 -5 -158q-1 -15 -14 -21.5t-25.5 0t-11.5 21.5q4 77 5 154q-8 -1 -42.5 -4.5
t-53.5 -4.5zM345 184q16 -3 19 -16.5t-7 -24.5t-25 -8q-30 5 -65.5 7.5t-61 2.5t-68 -1t-62.5 -1q-16 0 -22.5 13t0 25.5t22.5 12.5q18 0 65 1t72.5 1t63.5 -3t69 -9z" />
    <glyph glyph-name="acute" unicode="&#xb4;" horiz-adv-x="191" 
d="M133 690q8 -8 7.5 -18t-7.5 -18q-11 -13 -17 -21q-4 -5 -18 -25q-6 -9 -15.5 -12t-19.5 3q-9 5 -12 15.5t3 19.5q25 36 43 56q7 8 18 8t18 -8z" />
    <glyph glyph-name="cedilla" unicode="&#xb8;" horiz-adv-x="232" 
d="M129 17q54 -20 53 -81q-1 -42 -34 -62q-6 -3 -12.5 -5.5t-10.5 -3.5t-13 -1.5t-11.5 -1t-13.5 -0.5h-12q-16 0 -22.5 13t0 26t22.5 13q1 0 12.5 -0.5t16 0t12 2.5t11 7t4.5 13q1 18 -8 26.5t-27 10.5q-12 1 -20 10.5t-4 21.5q5 20 17 60q4 15 18 17.5t25 -7t6 -24.5
q-2 -7 -9 -34z" />
    <glyph glyph-name="guillemotright" unicode="&#xbb;" horiz-adv-x="308" 
d="M258 343q0 -8 -2.5 -16.5t-6 -14t-10 -15.5t-8.5 -13q-18 -28 -38 -59q-8 -13 -23 -11.5t-21.5 12.5t0.5 25q16 26 31 49q8 13 17 27q1 2 2.5 5.5t3 6t2.5 2.5l-7 10.5t-5 8.5q-7 12 -14 25l-29 49q-4 8 -3 16.5t7 13.5t13 7.5t15 -0.5t13 -11q6 -11 18 -32t18 -31
q2 -3 10 -15.5t12 -21.5t5 -17zM163 343q1 -8 -2 -16.5t-6 -14t-10 -15.5t-9 -13q-17 -28 -37 -59q-9 -13 -24 -11.5t-21.5 12.5t0.5 25q17 26 31 49q9 13 18 27q0 2 2 5.5t3.5 6t2.5 2.5l-7 10.5t-6 8.5q-7 12 -14 25l-28 49q-8 14 0.5 26t21.5 12.5t22 -12.5
q6 -11 18.5 -32t18.5 -31q1 -3 9 -15.5t12 -21.5t5 -17z" />
    <glyph glyph-name="questiondown" unicode="&#xbf;" horiz-adv-x="466" 
d="M416 140q2 -38 -17.5 -71t-51 -53.5t-68.5 -27.5q-43 -10 -90 -1t-81 37q-35 29 -49 73.5t-7 92.5q7 47 29.5 89t61.5 94q2 3 7 9q27 36 41 57t29.5 56.5t18.5 67.5q1 16 14.5 22.5t26 0t10.5 -22.5q-4 -54 -28.5 -102t-67.5 -106q-24 -32 -33.5 -45.5t-27 -42.5
t-24.5 -54t-8 -52q-1 -52 31 -87t85 -39q34 -3 67.5 7t58 36t21.5 62q-1 21 19 25q22 3 30 -16q2 -4 3 -9zM265.5 658q-15.5 0 -22 12.5t0 25.5t22 13t22 -13t0 -25.5t-22 -12.5z" />
    <glyph glyph-name="Agrave" unicode="&#xc0;" 
d="M466 468q10 0 16 -5.5t7.5 -13t0 -15t-7.5 -12.5t-16 -5q-26 1 -55 1q8 -48 16 -115q18 -138 22 -213q1 -15 -11.5 -21.5t-26 0t-14.5 21.5q-4 82 -23 229q-7 53 -14 98q-48 -2 -114 -6q-11 -1 -34.5 -2.5t-36.5 -2.5q-20 -133 -31 -316q-1 -15 -14.5 -21.5t-26 0
t-11.5 21.5q12 185 30 311q-22 -4 -40 -9q-15 -4 -24.5 6.5t-7 24.5t17.5 19q27 7 62 12q9 60 22 114q21 98 48 148q32 59 75 57q35 -1 61 -53q20 -40 38 -112q16 -63 29 -139q34 0 63 -1zM240 462q65 4 111 6q-12 70 -27 128q-17 67 -33 99l-10 18l-2 2q-3 3 -5 6h-1l-1 1
q-1 0 -2 -1q-3 -1 -7 -4q-6 -6 -11 -14q-13 -20 -23 -50q-22 -61 -40 -162q-3 -14 -6 -33q8 1 18.5 1.5t20.5 1t18 1.5zM242 852q-4 5 -11 12q-7 9 -7.5 19t7.5 18q7 7 18 7.5t18 -7.5q18 -21 43 -57q6 -8 3 -19t-12 -16q-10 -5 -19.5 -2.5t-15.5 11.5q-14 20 -18 26
q-3 3 -6 8z" />
    <glyph glyph-name="Aacute" unicode="&#xc1;" 
d="M466 468q10 0 16 -5.5t7.5 -13t0 -15t-7.5 -12.5t-16 -5q-26 1 -55 1q8 -48 16 -115q18 -138 22 -213q1 -15 -11.5 -21.5t-26 0t-14.5 21.5q-4 82 -23 229q-7 53 -14 98q-48 -2 -114 -6q-11 -1 -34.5 -2.5t-36.5 -2.5q-20 -133 -31 -316q-1 -15 -14.5 -21.5t-26 0
t-11.5 21.5q12 185 30 311q-22 -4 -40 -9q-15 -4 -24.5 6.5t-7 24.5t17.5 19q27 7 62 12q9 60 22 114q21 98 48 148q32 59 75 57q35 -1 61 -53q20 -40 38 -112q16 -63 29 -139q34 0 63 -1zM240 462q65 4 111 6q-12 70 -27 128q-17 67 -33 99l-10 18l-2 2q-3 3 -5 6h-1l-1 1
q-1 0 -2 -1q-3 -1 -7 -4q-6 -6 -11 -14q-13 -20 -23 -50q-22 -61 -40 -162q-3 -14 -6 -33q8 1 18.5 1.5t20.5 1t18 1.5zM236 809q-9 5 -12 16t3 19q25 36 43 57q7 8 18 7.5t18 -7.5q8 -8 7.5 -18t-7.5 -19q-11 -13 -17 -20q-3 -5 -18 -26q-6 -9 -15.5 -11.5t-19.5 2.5z" />
    <glyph glyph-name="Acircumflex" unicode="&#xc2;" 
d="M466 468q10 0 16 -5.5t7.5 -13t0 -15t-7.5 -12.5t-16 -5q-26 1 -55 1q8 -48 16 -115q18 -138 22 -213q1 -15 -11.5 -21.5t-26 0t-14.5 21.5q-4 82 -23 229q-7 53 -14 98q-48 -2 -114 -6q-11 -1 -34.5 -2.5t-36.5 -2.5q-20 -133 -31 -316q-1 -15 -14.5 -21.5t-26 0
t-11.5 21.5q12 185 30 311q-22 -4 -40 -9q-15 -4 -24.5 6.5t-7 24.5t17.5 19q27 7 62 12q9 60 22 114q21 98 48 148q32 59 75 57q35 -1 61 -53q20 -40 38 -112q16 -63 29 -139q34 0 63 -1zM240 462q65 4 111 6q-12 70 -27 128q-17 67 -33 99l-10 18l-2 2q-3 3 -5 6h-1l-1 1
q-1 0 -2 -1q-3 -1 -7 -4q-6 -6 -11 -14q-13 -20 -23 -50q-22 -61 -40 -162q-3 -14 -6 -33q8 1 18.5 1.5t20.5 1t18 1.5zM222 770q-8 -13 -23 -12t-21.5 12.5t0.5 25.5q7 12 22.5 35.5t22.5 35.5q2 2 5.5 8t5.5 9t5.5 7.5t7 7.5t8 4.5t9.5 2.5q7 0 13 -2.5t11 -8t8.5 -9.5
t9 -12t6.5 -10q7 -10 16 -21.5t17.5 -23.5t15.5 -21q9 -13 1.5 -24.5t-21.5 -12.5t-25 11q-5 7 -16 22t-17 23q-2 3 -5 7l-6 8t-5 7q-7 -10 -13 -19q-3 -6 -7.5 -13t-8 -12.5t-8 -12.5t-8.5 -12z" />
    <glyph glyph-name="Atilde" unicode="&#xc3;" 
d="M466 468q10 0 16 -5.5t7.5 -13t0 -15t-7.5 -12.5t-16 -5q-26 1 -55 1q8 -48 16 -115q18 -138 22 -213q1 -15 -11.5 -21.5t-26 0t-14.5 21.5q-4 82 -23 229q-7 53 -14 98q-48 -2 -114 -6q-11 -1 -34.5 -2.5t-36.5 -2.5q-20 -133 -31 -316q-1 -15 -14.5 -21.5t-26 0
t-11.5 21.5q12 185 30 311q-22 -4 -40 -9q-15 -4 -24.5 6.5t-7 24.5t17.5 19q27 7 62 12q9 60 22 114q21 98 48 148q32 59 75 57q35 -1 61 -53q20 -40 38 -112q16 -63 29 -139q34 0 63 -1zM240 462q65 4 111 6q-12 70 -27 128q-17 67 -33 99l-10 18l-2 2q-3 3 -5 6h-1l-1 1
q-1 0 -2 -1q-3 -1 -7 -4q-6 -6 -11 -14q-13 -20 -23 -50q-22 -61 -40 -162q-3 -14 -6 -33q8 1 18.5 1.5t20.5 1t18 1.5zM198 798q-5 -8 -13 -11t-15 -0.5t-13 7.5t-7 13t3 17q16 27 41 37.5t56 1.5q7 -2 14.5 -7.5l15 -11t14.5 -7.5q23 -8 45 23q9 12 24.5 10.5t21.5 -12.5
t-1 -24q-23 -30 -52.5 -44t-60.5 1q-5 2 -19 12.5t-23 11.5q-13 1 -18.5 -2.5t-12.5 -14.5z" />
    <glyph glyph-name="Adieresis" unicode="&#xc4;" 
d="M466 468q10 0 16 -5.5t7.5 -13t0 -15t-7.5 -12.5t-16 -5q-26 1 -55 1q8 -48 16 -115q18 -138 22 -213q1 -15 -11.5 -21.5t-26 0t-14.5 21.5q-4 82 -23 229q-7 53 -14 98q-48 -2 -114 -6q-11 -1 -34.5 -2.5t-36.5 -2.5q-20 -133 -31 -316q-1 -15 -14.5 -21.5t-26 0
t-11.5 21.5q12 185 30 311q-22 -4 -40 -9q-15 -4 -24.5 6.5t-7 24.5t17.5 19q27 7 62 12q9 60 22 114q21 98 48 148q32 59 75 57q35 -1 61 -53q20 -40 38 -112q16 -63 29 -139q34 0 63 -1zM240 462q65 4 111 6q-12 70 -27 128q-17 67 -33 99l-10 18l-2 2q-3 3 -5 6h-1l-1 1
q-1 0 -2 -1q-3 -1 -7 -4q-6 -6 -11 -14q-13 -20 -23 -50q-22 -61 -40 -162q-3 -14 -6 -33q8 1 18.5 1.5t20.5 1t18 1.5zM219.5 798q-15.5 0 -22 13t0 25.5t22 12.5t22 -12.5t0 -25.5t-22 -13zM318.5 798q-15.5 0 -22 13t0 25.5t22 12.5t22 -12.5t0 -25.5t-22 -13z" />
    <glyph glyph-name="Aring" unicode="&#xc5;" 
d="M466 464q16 0 22.5 -13.5t0 -26t-22.5 -11.5h-55q8 -47 16 -114q18 -138 22 -213q1 -16 -11.5 -22.5t-26 0t-14.5 22.5q-4 81 -23 228q-7 54 -14 98q-48 -1 -114 -6q-9 0 -22 -1t-26 -1.5t-23 -1.5q-20 -134 -31 -316q-1 -16 -14.5 -22.5t-26 0t-11.5 22.5q12 185 30 310
q-22 -3 -40 -8q-15 -5 -24.5 6t-7 25t17.5 18q27 8 62 12q9 61 22 115q21 98 48 148q9 17 20 29q-33 26 -33 67q0 35 25.5 60.5t60.5 25.5q33 0 57 -22.5t28 -55.5q1 -4 1 -8t-1 -8q-5 -39 -35 -62q6 -9 13 -22q20 -41 38 -112q16 -63 29 -139q34 0 63 -1zM307 808
q-1 21 -18 29.5t-34 0t-17 -29.5t17 -29.5t34 0t18 29.5zM240 457q65 5 111 7q-12 70 -27 128q-17 67 -33 99q-5 9 -10 17q-1 2 -2 2v1l-5 5l-1 1q-1 0 -1 1q-1 -1 -2 -1q-3 -1 -7 -5q-6 -6 -11 -14q-13 -19 -23 -49q-22 -61 -40 -163q-3 -14 -6 -32q8 0 27.5 1.5t29.5 1.5z
" />
    <glyph glyph-name="AE" unicode="&#xc6;" horiz-adv-x="903" 
d="M802 325q8 22 32 17q20 -5 19 -23q0 -4 -1 -8q-48 -135 -124 -197q-44 -36 -96 -46t-105 11q-47 19 -80 57q1 -28 2 -50q1 -16 -12 -22.5t-26 0t-14 22.5q-3 6 -1.5 116t1.5 116v95q-62 -1 -151 -7q-10 0 -38 -2q-54 -168 -64 -318q-1 -16 -14.5 -22.5t-26 0t-11.5 22.5
q10 153 60 314q-41 -4 -70 -12q-15 -5 -24.5 6t-7 25t17.5 18q39 12 102 16q18 53 39 103q41 96 79 149q48 64 88 64q33 0 48 -51q10 -35 16 -110q6 -64 8 -143q14 -1 18 -1t7 -1q22 20 50 33q-35 21 -54 55q-18 33 -17.5 69.5t17.5 70.5q28 56 85 72.5t113 -6.5t85 -74
q7 -14 -1.5 -26.5t-21.5 -12.5t-22 13q-20 35 -58 52t-77.5 6t-57.5 -50q-27 -56 11 -101t99 -42q16 0 22.5 -12.5t0 -25.5t-22.5 -14q-110 -8 -152 -93q-16 -31 -21 -69t2 -72q5 -21 15.5 -40.5t25.5 -34.5t34 -26t41 -16q35 -8 67.5 2t57.5 31t47 52t36 60t25 61zM377 718
zM368 721v-1v1zM240 457q92 7 156 8q-2 77 -7 140t-14 96l-4 14h-1q-27 -14 -64 -78q-38 -65 -72 -158l-8 -22h14z" />
    <glyph glyph-name="Ccedilla" unicode="&#xc7;" horiz-adv-x="454" 
d="M353 305q1 16 14.5 22t26 0t10.5 -22q-3 -37 -13.5 -72.5t-28.5 -70t-47.5 -57.5t-66.5 -27l-5 -18q55 -20 54 -81q-1 -42 -35 -62q-5 -4 -11.5 -6t-11 -3t-13.5 -1.5t-11.5 -1t-13.5 -0.5h-12q-15 0 -21.5 13t0 26t21.5 13q2 0 13.5 -0.5t15.5 0t12 2.5t11.5 7t3.5 13
q3 34 -34 37q-13 1 -20.5 10.5t-4.5 21.5q2 6 5 17t5 16q-47 11 -79 46t-46 85q-36 123 -10 313q5 36 11.5 64.5t19 63t33.5 60.5t49 39q28 15 60 13t59 -13.5t45 -36.5t19 -58q0 -15 -12.5 -21.5t-25.5 0t-14 21.5q0 23 -16.5 37.5t-40.5 17.5q-52 8 -83 -33t-43 -96.5
t-16 -128.5q-10 -156 18 -240q14 -43 47.5 -67.5t76.5 -16.5q26 5 46 24t31.5 46t18 53t9.5 52z" />
    <glyph glyph-name="Egrave" unicode="&#xc8;" horiz-adv-x="556" 
d="M208 843q-5 5 -11 13q-8 8 -8 18t8 18q7 8 18 8t18 -8q18 -20 43 -56q6 -9 3 -19.5t-12 -16.5q-10 -5 -19.5 -2t-15.5 12q-14 20 -18 25zM454 325q5 15 20 17.5t25 -7t5 -24.5q-48 -135 -124 -197q-44 -36 -96 -46t-105 11q-54 22 -89 69.5t-39 105.5q-8 99 42 172
q30 45 82 70q-35 21 -54 55q-18 33 -17.5 69.5t17.5 70.5q28 56 85 72.5t113 -6.5t85 -74q4 -9 3 -17t-7 -13.5t-13.5 -8t-15 0.5t-12.5 12q-20 35 -58 52t-77.5 6t-57.5 -50q-27 -56 11 -101t99 -42q16 0 22.5 -12.5t0 -25.5t-22.5 -14q-110 -8 -152 -93q-15 -31 -20.5 -69
t1.5 -72q6 -28 22.5 -52.5t40.5 -41t53 -23.5q35 -8 67.5 2t57.5 31t47 52t36 60t25 61z" />
    <glyph glyph-name="Eacute" unicode="&#xc9;" horiz-adv-x="556" 
d="M258 800q-9 6 -12 16.5t2 19.5q25 36 44 56q7 8 18 8t18 -8t7 -18t-7 -18q-12 -14 -17 -21q-4 -5 -18 -25q-6 -9 -16 -12t-19 2zM454 325q5 15 20 17.5t25 -7t5 -24.5q-48 -135 -124 -197q-44 -36 -96 -46t-105 11q-54 22 -89 69.5t-39 105.5q-8 99 42 172q30 45 82 70
q-35 21 -54 55q-18 33 -17.5 69.5t17.5 70.5q28 56 85 72.5t113 -6.5t85 -74q4 -9 3 -17t-7 -13.5t-13.5 -8t-15 0.5t-12.5 12q-20 35 -58 52t-77.5 6t-57.5 -50q-27 -56 11 -101t99 -42q16 0 22.5 -12.5t0 -25.5t-22.5 -14q-110 -8 -152 -93q-15 -31 -20.5 -69t1.5 -72
q10 -43 41.5 -75t74.5 -42q35 -8 67.5 2t57.5 31t47 52t36 60t25 61z" />
    <glyph glyph-name="Ecircumflex" unicode="&#xca;" horiz-adv-x="556" 
d="M218 787q-8 -13 -23.5 -12t-21.5 12.5t0 25.5q8 12 23.5 35.5t22.5 35.5q1 2 5.5 9.5t7 11t7.5 8.5t10 7.5t11 2.5q8 0 16 -5t11.5 -9t12 -15.5t8.5 -12.5q8 -11 24.5 -33t24.5 -33q9 -13 1 -24.5t-21.5 -12t-24.5 10.5q-5 8 -16 23t-17 22q-3 4 -8.5 11.5t-8.5 10.5
q-2 -3 -6 -9.5t-6 -9.5q-5 -8 -16 -25t-16 -25zM454 325q5 15 20 17.5t25 -7t5 -24.5q-48 -135 -124 -197q-44 -36 -96 -46t-105 11q-54 22 -89 69.5t-39 105.5q-8 99 42 172q30 45 82 70q-35 21 -54 55q-18 33 -17.5 69.5t17.5 70.5q21 42 60.5 62t81 17t80.5 -26t61 -61
q4 -9 3 -17t-7 -13.5t-13.5 -8t-15 0.5t-12.5 12q-20 35 -58 52t-77.5 6t-57.5 -50q-27 -56 11 -101t99 -42q16 0 22.5 -12.5t0 -25.5t-22.5 -14q-110 -8 -152 -93q-15 -31 -20.5 -69t1.5 -72q6 -28 22.5 -52.5t40.5 -41t53 -23.5q35 -8 67.5 2t57.5 31t47 52t36 60t25 61z
" />
    <glyph glyph-name="Edieresis" unicode="&#xcb;" horiz-adv-x="556" 
d="M211 798q-16 0 -22 13t0.5 25.5t22 12.5t22 -12.5t0 -25.5t-22.5 -13zM310 798q-16 0 -22.5 13t0 25.5t22.5 12.5t22.5 -12.5t0 -25.5t-22.5 -13zM454 325q5 15 20 17.5t25 -7t5 -24.5q-48 -135 -124 -197q-44 -36 -96 -46t-105 11q-54 22 -89 69.5t-39 105.5
q-8 99 42 172q30 45 82 70q-35 21 -54 55q-18 33 -17.5 69.5t17.5 70.5t46 54t62 23.5t66.5 -4.5t62.5 -29.5t46 -51.5q4 -9 3 -17t-7 -13.5t-13.5 -8t-15 0.5t-12.5 12q-20 35 -58 52t-77.5 6t-57.5 -50q-27 -56 11 -101t99 -42q16 0 22.5 -12.5t0 -25.5t-22.5 -14
q-110 -8 -152 -93q-15 -31 -20.5 -69t1.5 -72q6 -28 22.5 -52.5t40.5 -41t53 -23.5q35 -8 67.5 2t57.5 31t47 52t36 60t25 61z" />
    <glyph glyph-name="Igrave" unicode="&#xcc;" horiz-adv-x="322" 
d="M138 843q-4 5 -11 13t-7 18t7 18q8 8 19 8t18 -8q18 -20 43 -56q6 -9 3 -19.5t-12 -16.5q-10 -5 -19.5 -2t-15.5 12q-14 20 -18 25q-3 4 -7 8zM185 723q-3 -33 -6 -87q-10 -160 -9 -298v-36v-41.5t1 -36t2.5 -41t4.5 -35.5t7 -39q35 2 53 3q16 0 22.5 -12.5t0 -25.5
t-22.5 -14q-57 -3 -163 -8q-16 -1 -22.5 11.5t0 25.5t22.5 14l58 3q-7 34 -11 97q-8 120 -1 309q5 132 12 208q-17 -1 -50 -2q-15 -1 -21.5 11.5t0 26t21.5 13.5q28 2 82.5 4.5t81.5 4.5q15 1 21.5 -12t0 -26t-21.5 -14q-11 0 -31.5 -1t-30.5 -2z" />
    <glyph glyph-name="Iacute" unicode="&#xcd;" horiz-adv-x="322" 
d="M133 800q-9 6 -12 16.5t2 19.5q26 36 44 56q7 8 18 8t18 -8q8 -8 7.5 -18t-7.5 -18q-12 -14 -17 -21q-4 -5 -18 -25q-6 -9 -15.5 -12t-19.5 2zM185 723q-3 -33 -6 -87q-10 -160 -9 -298v-28v-29v-29t0.5 -29t2 -29t3 -29t4 -28.5t5.5 -27.5q35 2 53 3q16 0 22.5 -12.5
t0 -25.5t-22.5 -14q-57 -3 -163 -8q-16 -1 -22.5 11.5t0 25.5t22.5 14l58 3q-7 34 -11 97q-8 120 -1 309q5 132 12 208q-17 -1 -50 -2q-15 -1 -21.5 11.5t0 26t21.5 13.5q28 2 82.5 4.5t81.5 4.5q15 1 21.5 -12t0 -26t-21.5 -14q-11 0 -31.5 -1t-30.5 -2z" />
    <glyph glyph-name="Icircumflex" unicode="&#xce;" horiz-adv-x="322" 
d="M119 796q-9 -14 -24 -12.5t-21.5 12.5t0.5 26q8 11 23 35t23 36q1 2 5.5 9.5t7 11t7 8.5t10 7t11.5 2q8 1 16 -4.5t11.5 -9t12 -15.5t8.5 -13q8 -11 24.5 -32.5t24.5 -32.5q14 -19 -7 -33q-21 -13 -36 5l-2 2q-5 7 -16.5 22t-16.5 23q-3 3 -8.5 10.5t-8.5 11.5l-2.5 -5
t-3 -5t-3.5 -4.5t-3 -4.5q-5 -9 -16 -25.5t-16 -24.5zM185 723q-3 -33 -6 -87q-10 -160 -9 -298v-28v-29v-29t0.5 -29t2 -29t3 -29t4 -28.5t5.5 -27.5q35 2 53 3q16 0 22.5 -12.5t0 -25.5t-22.5 -14q-57 -3 -163 -8q-16 -1 -22.5 11.5t0 25.5t22.5 14l58 3q-7 34 -11 97
q-8 120 -1 309q5 132 12 208q-17 -1 -50 -2q-15 -1 -21.5 11.5t0 26t21.5 13.5q28 2 82.5 4.5t81.5 4.5q15 1 21.5 -12t0 -26t-21.5 -14q-11 0 -31.5 -1t-30.5 -2z" />
    <glyph glyph-name="Idieresis" unicode="&#xcf;" horiz-adv-x="322" 
d="M116.5 798q-15.5 0 -22 13t0 25.5t22 12.5t22 -12.5t0 -25.5t-22 -13zM215.5 798q-15.5 0 -22 13t0 25.5t22 12.5t22 -12.5t0 -25.5t-22 -13zM185 723q-3 -33 -6 -87q-10 -160 -9 -298v-28v-29v-29t0.5 -29t2 -29t3 -29t4 -28.5t5.5 -27.5q35 2 53 3q16 0 22.5 -12.5
t0 -25.5t-22.5 -14q-57 -3 -163 -8q-16 -1 -22.5 11.5t0 25.5t22.5 14l58 3q-7 34 -11 97q-8 120 -1 309q5 132 12 208q-17 -1 -50 -2q-15 -1 -21.5 11.5t0 26t21.5 13.5q28 2 82.5 4.5t81.5 4.5q15 1 21.5 -12t0 -26t-21.5 -14q-11 0 -31.5 -1t-30.5 -2z" />
    <glyph glyph-name="Eth" unicode="&#xd0;" horiz-adv-x="520" 
d="M469 534q9 -146 -68.5 -272t-210.5 -184q-6 -16 -25 -17t-25 18q-12 44 -18 132q-5 77 -4 171h-43q-16 0 -22.5 13t0 26t22.5 13h44q1 44 2 94q6 152 14 237q2 15 15.5 21.5t25.5 0t11 -21.5q-4 -39 -8 -108q-2 -26 -3 -57q14 29 30 54t33.5 43.5t41.5 34t48.5 16
t53.5 -12.5q76 -40 86 -201zM378 326q49 99 38 221q-11 138 -73 148q-20 4 -38.5 -6t-34.5 -32t-24.5 -36t-19.5 -37q-37 -76 -54 -150h101q15 0 21.5 -13t0 -26t-21.5 -13h-103v-33v-36v-36.5t0.5 -37t2 -37t3.5 -36.5t5 -36q64 29 115 80.5t82 115.5z" />
    <glyph glyph-name="Ntilde" unicode="&#xd1;" horiz-adv-x="481" 
d="M188 793q-4 -8 -12 -10.5t-15.5 0t-13.5 7.5t-7 13t4 17q10 17 25 28t33 14t38 -3q8 -2 15.5 -7.5l15 -11t14.5 -8.5q22 -7 45 23q9 13 24.5 11.5t21.5 -12.5t-2 -25q-22 -30 -51.5 -43.5t-61.5 0.5q-4 3 -18 13t-23 11q-14 2 -19.5 -1.5t-12.5 -15.5zM340 111zM339 111
h1h-1zM430 767q-3 -9 -5 -18t-3.5 -20t-2.5 -18.5t-1.5 -20.5t-0.5 -19v-21v-20q-1 -38 2 -200q2 -114 -1 -176q-3 -93 -17 -136q-20 -60 -64 -58q-43 2 -82 68q-29 50 -59 143q-25 76 -51 184q-5 21 -12 49q1 -99 -2 -180q0 -4 -1 -33.5t-1.5 -37.5t-2 -33t-3.5 -37.5
t-5 -33t-7 -36.5t-10 -32q-5 -15 -19.5 -17.5t-25 7t-4.5 24.5q13 38 20 112q11 114 11 258t-5 258q-1 24 -2 35q0 16 13.5 22.5t25.5 -0.5q11 -4 14 -17q12 -48 35 -156t37 -164q25 -101 49 -171q28 -84 56 -127q7 -12 13 -18q4 -5 8 -8l3 -3l6 -4l-1 1h1l1 -1q0 -1 3 -1v1
q2 1 4 4q3 5 4 8l2 6q7 22 11 49q5 38 7 84.5t2 75.5t-2 88.5t-2 78.5q-2 107 0 160q3 80 14 114q5 15 19.5 18t25 -6.5t5.5 -24.5z" />
    <glyph glyph-name="Ograve" unicode="&#xd2;" horiz-adv-x="453" 
d="M200 826q-4 5 -11 13t-7.5 18t7.5 18q7 7 18 7.5t19 -7.5q18 -20 43 -56q5 -9 2 -20t-12 -16t-19 -2t-16 12q-14 20 -18 25q-2 3 -6 8zM401 487q6 -98 -1 -176q-10 -112 -48 -174q-39 -64 -102 -75q-36 -6 -71.5 4.5t-60.5 36.5q-47 48 -61 154q-13 98 -1 216
q26 269 167 275h3.5h3.5q155 -6 171 -261zM351 387q0 80 -4 129q-18 179 -120 180q-60 -1 -92 -91q-28 -78 -32 -198q-4 -109 10 -177q17 -79 57 -104q21 -13 47.5 -14.5t47.5 9.5q40 20 62 85q24 70 24 181z" />
    <glyph glyph-name="Oacute" unicode="&#xd3;" horiz-adv-x="453" 
d="M224 783q-8 5 -11.5 16t2.5 20q25 35 43 56q7 8 18.5 7.5t18.5 -7.5q7 -8 7 -18t-7 -18q-12 -14 -17 -21q-4 -5 -18 -25q-7 -9 -16.5 -12t-19.5 2zM401 487q6 -98 -1 -176q-10 -112 -48 -174q-39 -64 -102 -75q-36 -6 -71.5 4.5t-60.5 36.5q-47 48 -61 154q-13 98 -1 216
q26 269 167 275h3.5h3.5q155 -6 171 -261zM351 387q0 80 -4 129q-18 179 -120 180q-60 -1 -92 -91q-28 -78 -32 -198q-4 -109 10 -177q17 -79 57 -104q21 -13 47.5 -14.5t47.5 9.5q40 20 62 85q24 70 24 181z" />
    <glyph glyph-name="Ocircumflex" unicode="&#xd4;" horiz-adv-x="453" 
d="M180 770q-8 -13 -23 -12t-21.5 12.5t0.5 25.5q8 12 23 35.5t23 35.5q1 2 5.5 9.5t7 11t7 8.5t9.5 7t11 3q6 0 11.5 -2t9.5 -5t8 -8t7 -9t7 -10t6 -8l24 -33l24 -33q9 -13 1.5 -24.5t-21.5 -12.5t-24 11q-6 7 -17 22t-17 23q-2 4 -7.5 11t-8.5 11q-2 -3 -6 -9.5t-7 -9.5
q-5 -9 -15.5 -25.5t-16.5 -24.5zM401 487q6 -98 -1 -176q-10 -112 -48 -174q-39 -64 -102 -75q-36 -6 -71.5 4.5t-60.5 36.5q-47 48 -61 154q-13 98 -1 216q26 269 167 275h3.5h3.5q155 -6 171 -261zM351 387q0 80 -4 129q-18 179 -120 180q-60 -1 -92 -91q-28 -78 -32 -198
q-4 -109 10 -177q17 -79 57 -104q21 -13 47.5 -14.5t47.5 9.5q40 20 62 85q24 70 24 181z" />
    <glyph glyph-name="Otilde" unicode="&#xd5;" horiz-adv-x="453" 
d="M156 798q-5 -8 -13 -11t-15 -0.5t-13 7.5t-7 13t4 17q15 27 40.5 37.5t55.5 1.5q9 -2 22.5 -13t21.5 -13q23 -8 45 23q10 12 25 10.5t21.5 -12.5t-1.5 -24q-22 -30 -52 -44t-61 1q-5 2 -18.5 12.5t-23.5 11.5q-13 1 -18.5 -2.5t-12.5 -14.5zM401 487q6 -98 -1 -176
q-10 -112 -48 -174q-39 -64 -102 -75q-36 -6 -71.5 4.5t-60.5 36.5q-47 48 -61 154q-13 98 -1 216q26 269 167 275h3.5h3.5q155 -6 171 -261zM351 387q0 80 -4 129q-18 179 -120 180q-60 -1 -92 -91q-28 -78 -32 -198q-4 -109 10 -177q17 -79 57 -104q21 -13 47.5 -14.5
t47.5 9.5q40 20 62 85q24 70 24 181z" />
    <glyph glyph-name="Odieresis" unicode="&#xd6;" horiz-adv-x="453" 
d="M178 785q-16 0 -22.5 13t0 26t22.5 13t22.5 -13t0 -26t-22.5 -13zM276.5 785q-15.5 0 -22 13t0 26t22 13t22 -13t0 -26t-22 -13zM401 487q6 -98 -1 -176q-10 -112 -48 -174q-39 -64 -102 -75q-36 -6 -71.5 4.5t-60.5 36.5q-47 48 -61 154q-13 98 -1 216q26 269 167 275
h3.5h3.5q155 -6 171 -261zM351 387q0 80 -4 129q-18 179 -120 180q-60 -1 -92 -91q-28 -78 -32 -198q-4 -109 10 -177q17 -79 57 -104q21 -13 47.5 -14.5t47.5 9.5q40 20 62 85q24 70 24 181z" />
    <glyph glyph-name="multiply" unicode="&#xd7;" horiz-adv-x="388" 
d="M330 436q-51 -48 -100 -102q48 -58 82 -125q10 -21 -10 -34t-33 5q-1 1 -2 3q-30 60 -71 112q-52 -60 -97 -122q-14 -19 -35 -8t-11 30q0 2 2 4q50 70 107 136q-42 46 -92 83q-12 9 -10.5 24.5t12.5 21.5t24 -2q54 -40 100 -89q48 52 98 100q11 11 25 6t17.5 -18
t-6.5 -25z" />
    <glyph glyph-name="Oslash" unicode="&#xd8;" horiz-adv-x="500" 
d="M402 722q4 8 12 11t15 0.5t13 -7.5t7.5 -13.5t-3.5 -16.5q-7 -12 -20.5 -35.5t-20.5 -35.5q20 -56 25 -138q6 -98 -1 -176q-10 -112 -48 -174q-39 -64 -101 -75q-36 -6 -71.5 4.5t-60.5 36.5q-14 14 -24 31q-4 -6 -8.5 -14l-9 -16t-8.5 -14q-9 -13 -22.5 -12.5t-21.5 13
t0 25.5l43 76l0.5 1t1.5 1q-8 27 -12 63q-13 98 -2 216q27 269 168 275h3.5h3.5q76 -3 118 -67q4 7 12 20.5t12 20.5zM137 262q27 45 99.5 172t112.5 196q-31 65 -93 66q-60 -1 -92 -91q-27 -78 -31 -198q-4 -88 4 -145zM381 387q0 80 -5 129q-2 25 -6 47q-36 -62 -108 -187
t-107 -188q16 -44 45 -62q21 -13 47 -14.5t48 9.5q40 20 62 85q24 70 24 181z" />
    <glyph glyph-name="Ugrave" unicode="&#xd9;" horiz-adv-x="476" 
d="M210 770q-4 5 -11 13t-7.5 18t7.5 18q7 7 18 7.5t18 -7.5q18 -20 43 -56q6 -9 3 -19.5t-12 -16.5q-10 -5 -19.5 -2t-15.5 12q-14 20 -18 25zM425 50q4 -15 -7 -25t-25 -7t-18 18q-13 44 -18 130q-7 106 -3 254q-50 -182 -100 -292q-72 -158 -141 -93q-31 29 -46 109
q-12 70 -16 179q-2 82 5 334q0 16 13.5 22.5t26 0t11.5 -22.5q-7 -266 -3 -357q4 -99 16 -157q8 -35 16 -52q5 -10 9 -15l5 -5q1 0 2 -1l1 -1h2q1 0 4 3q9 7 20 25q24 37 51 107q48 123 95 309q19 73 32 132q6 29 9 49q1 7 3 14v4v4l0.5 0.5t0.5 1.5q0 13 10.5 19.5
t21.5 4.5q21 -3 19 -24q0 -7 -1 -15q-3 -36 -7 -94q-9 -164 -9 -305v-31.5v-32t0.5 -32t1.5 -32.5t2.5 -32.5t3.5 -32t5 -31t8 -30.5z" />
    <glyph glyph-name="Uacute" unicode="&#xda;" horiz-adv-x="476" 
d="M217 727q-9 6 -12 16.5t3 19.5q25 36 43 56q7 8 18 7.5t18 -7.5q8 -8 7.5 -18t-7.5 -18q-11 -14 -17 -21q-4 -5 -18 -25q-6 -9 -15.5 -12t-19.5 2zM425 50q4 -15 -7 -25t-25 -7t-18 18q-13 44 -18 130q-7 106 -3 254q-50 -182 -100 -292q-72 -158 -141 -93
q-31 29 -46 109q-12 70 -16 179q-2 82 5 334q0 16 13.5 22.5t26 0t11.5 -22.5q-7 -266 -3 -357q4 -99 16 -157q8 -35 16 -52q5 -10 9 -15l5 -5q1 0 2 -1l1 -1h2q1 0 4 3q9 7 20 25q24 37 51 107q48 123 95 309q19 73 32 132q6 29 9 49q1 7 3 14v4v4l0.5 0.5t0.5 1.5
q0 13 10.5 19.5t21.5 4.5q21 -3 19 -24q0 -7 -1 -15q-3 -36 -7 -94q-9 -164 -9 -305v-31.5v-32t0.5 -32t1.5 -32.5t2.5 -32.5t3.5 -32t5 -31t8 -30.5z" />
    <glyph glyph-name="Ucircumflex" unicode="&#xdb;" horiz-adv-x="476" 
d="M190 714q-8 -13 -23 -12t-21.5 12.5t0.5 25.5q30 48 45 71q2 3 5.5 8.5t5.5 8.5t5.5 8t7 7.5t8 4.5t9.5 2q8 0 16.5 -5t12 -9t11.5 -16l8 -12q9 -11 25 -33l24 -33q9 -13 1.5 -24.5t-21.5 -12t-25 10.5q-5 8 -16 22.5t-17 22.5q-3 4 -8.5 11.5t-7.5 10.5q-2 -3 -6.5 -9.5
t-6.5 -9.5q-3 -6 -7.5 -13t-8 -12.5t-8 -12.5t-8.5 -12zM425 50q4 -15 -7 -25t-25 -7t-18 18q-13 44 -18 130q-7 106 -3 254q-50 -182 -100 -292q-72 -158 -141 -93q-31 29 -46 109q-12 70 -16 179q-2 82 5 334q0 16 13.5 22.5t26 0t12.5 -22.5q-8 -266 -4 -357
q4 -99 16 -157q8 -35 16 -52q5 -10 9 -15l5 -5q1 0 2 -1l1 -1h2q1 0 4 3q9 7 20 25q24 37 51 107q48 123 95 309q19 73 32 132q6 29 9 49q1 7 3 14v4v4l0.5 0.5t0.5 1.5q1 13 11 19.5t21 4.5q21 -3 19 -24q0 -7 -1 -15q-3 -36 -7 -94q-9 -164 -9 -305q1 -19 0.5 -36.5
t0 -36.5t1 -37t2 -36.5t3.5 -36.5t5.5 -36t8.5 -35z" />
    <glyph glyph-name="Udieresis" unicode="&#xdc;" horiz-adv-x="476" 
d="M187.5 733q-15.5 0 -22 13t0 26t22 13t22 -13t0 -26t-22 -13zM286.5 733q-15.5 0 -22 13t0 26t22 13t22 -13t0 -26t-22 -13zM425 50q4 -15 -6.5 -25t-25 -7t-18.5 18q-13 44 -18 130q-7 106 -3 254q-50 -182 -100 -292q-72 -158 -141 -93q-31 29 -46 109q-12 70 -16 179
q-2 82 5 334q0 16 13.5 22.5t26 0t12.5 -22.5q-8 -266 -4 -357q4 -99 16 -157q8 -35 16 -52q5 -10 9 -15l5 -5q1 0 2 -1l1 -1h2q1 0 4 3q9 7 20 25q24 37 51 107q48 123 95 309q19 73 32 132q6 29 9 49q1 7 3 14v4v4l0.5 0.5t0.5 1.5q0 9 5.5 15t12.5 8t14 1q21 -3 19 -24
q0 -7 -1 -15q-3 -36 -7 -94q-9 -164 -9 -305q1 -19 0.5 -36.5t0 -36.5t1 -37t2 -36.5t3.5 -36.5t5.5 -36t8.5 -35z" />
    <glyph glyph-name="Yacute" unicode="&#xdd;" horiz-adv-x="449" 
d="M211 770q-9 6 -12 16.5t3 19.5q25 36 43 56q7 8 18 7.5t18 -7.5q8 -8 7.5 -18t-7.5 -18q-11 -14 -17 -21q-4 -5 -18 -25q-6 -9 -15.5 -12t-19.5 2zM393 525q8 -139 5 -236q-5 -130 -31 -194q-16 -41 -46.5 -63t-69.5 -8q-44 16 -70.5 65.5t-35.5 105.5q-2 15 9.5 25t25 7
t15.5 -18q7 -47 29 -88q15 -29 31 -41q9 -7 21 -9h7h3q7 2 13 8q7 8 13 18q12 23 21 66q14 70 14 193q0 36 -1 76q-39 -132 -113 -150q-39 -10 -68 14.5t-47 66.5q-34 74 -53 200q-15 101 -15 163q0 16 13 22.5t26 0t13 -22.5q0 -67 15 -163q18 -114 45 -174q17 -39 35 -53
l8 -4l5 -1q10 -1 21 5q25 13 47 60q17 37 30 99q23 109 17 231q-1 20 17.5 24.5t28.5 -9.5q7 -7 8 -17q2 -30 7 -97t7 -102z" />
    <glyph glyph-name="Thorn" unicode="&#xde;" horiz-adv-x="399" 
d="M349 371q2 -28 -8.5 -55t-28 -48t-41.5 -38q-60 -40 -168 -42q3 -83 19 -138q4 -15 -6.5 -25t-24.5 -7t-19 18q-12 43 -18 128q-7 120 -1 310q6 147 14 231q2 15 15.5 21.5t25.5 0t11 -21.5q-4 -39 -8 -107q-2 -26 -3 -57q90 7 153 -30q38 -22 62 -59.5t26 -80.5z
M234 268q28 17 46 42.5t18 54.5q0 47 -32 77.5t-74 40.5t-87 6q-3 -99 -3 -189v-30v-31q85 2 132 29z" />
    <glyph glyph-name="agrave" unicode="&#xe0;" horiz-adv-x="547" 
d="M153 516q-5 6 -11 13q-7 8 -7.5 18.5t7.5 18.5q7 7 18 7t18 -7q18 -21 43 -57q6 -9 3 -19.5t-12 -15.5q-10 -5 -19.5 -2.5t-15.5 11.5q-14 20 -18 25zM449 314q11 21 33 10q21 -11 13 -32q0 -2 -1 -4q-48 -95 -104 -129q-16 -10 -32.5 -14.5t-34.5 -1t-31 17.5
q-21 24 -29 76q-21 -35 -50 -60q-18 -15 -39 -24.5t-45 -11t-45 11.5q-22 13 -29.5 39.5t-3.5 53t15 48.5q16 33 46 57.5t66 36.5q41 13 77 2q2 56 2 70q0 15 13 21.5t25.5 0t12.5 -21.5q0 -14 -1.5 -68t0 -88t8.5 -67q6 -28 14 -39q1 -3 3 -4h1l1 -1q3 0 5 1q8 1 13 3
q13 5 26 15.5t22 21t19.5 26.5t16 26.5t13.5 27.5zM181 217q52 48 68 121q-10 9 -28 6.5t-32.5 -8t-26.5 -12.5q-29 -18 -46.5 -47.5t-12.5 -61.5q2 -15 11.5 -20t22.5 -1t24.5 10t19.5 13zM333 193l-1 1zM333 193z" />
    <glyph glyph-name="aacute" unicode="&#xe1;" horiz-adv-x="547" 
d="M164 474q-9 5 -12 15.5t3 19.5q25 36 43 57q7 7 18 7t18 -7q8 -8 8 -18.5t-8 -18.5q-11 -13 -17 -21q-3 -5 -18 -25q-6 -9 -15.5 -11.5t-19.5 2.5zM449 314q9 13 22 13t21.5 -12.5t1.5 -26.5q-48 -95 -104 -129q-9 -6 -19 -10t-20.5 -5.5t-21 -1t-20 5.5t-17.5 13
q-21 24 -29 76q-21 -35 -50 -60q-18 -15 -39 -24.5t-45 -11t-45 11.5q-22 13 -29.5 39.5t-3.5 53t15 48.5q16 33 46 57.5t66 36.5q41 13 77 2q2 56 2 70q0 15 13 21.5t25.5 0t12.5 -21.5q0 -19 -1 -54.5t-1.5 -58t2 -53.5t7.5 -57q6 -28 14 -39q1 -3 3 -4h1l1 -1q3 0 5 1
q8 1 13 3q21 8 41.5 30.5t31 40t24.5 46.5zM181 217q52 48 68 121q-10 9 -28 6.5t-32.5 -8t-26.5 -12.5q-29 -18 -46.5 -47.5t-12.5 -61.5q2 -15 11.5 -20t22.5 -1t24.5 10t19.5 13zM333 193l-1 1zM333 193z" />
    <glyph glyph-name="acircumflex" unicode="&#xe2;" horiz-adv-x="547" 
d="M159 482q-9 -13 -24 -12t-21.5 12.5t0.5 25.5q8 12 23 35.5t23 35.5q1 2 5.5 9.5t7 11t7 8.5t10 7.5t11.5 2.5q5 0 10 -2t8.5 -4t8 -7t6.5 -8l6 -9t6 -8q31 -44 33 -47q9 -13 1.5 -24.5t-21.5 -12.5t-25 11q-11 15 -23 33q-2 3 -8 11q-9 -14 -12 -19q-5 -9 -16 -25.5
t-16 -24.5zM449 314q11 21 33 10q21 -11 13 -32q0 -2 -1 -4q-48 -95 -104 -129q-16 -10 -32.5 -14.5t-34.5 -1t-31 17.5q-21 24 -29 76q-21 -35 -50 -60q-18 -15 -39 -24.5t-45 -11t-45 11.5q-22 13 -29.5 39.5t-3.5 53t15 48.5q16 33 46 57.5t66 36.5q41 13 77 2q2 56 2 70
q0 15 13 21.5t25.5 0t12.5 -21.5q0 -19 -1 -54.5t-1.5 -58t2 -53.5t7.5 -57q6 -28 14 -39q1 -3 3 -4h1l1 -1q3 0 5 1q8 1 13 3q21 8 41.5 30.5t31 40t24.5 46.5zM181 217q52 48 68 121q-10 9 -28 6.5t-32.5 -8t-26.5 -12.5q-29 -18 -46.5 -47.5t-12.5 -61.5q2 -15 11.5 -20
t22.5 -1t24.5 10t19.5 13zM333 193l-1 1zM333 193z" />
    <glyph glyph-name="atilde" unicode="&#xe3;" horiz-adv-x="547" 
d="M109 488q-10 -12 -23 -12t-21.5 12.5t-0.5 25.5q11 18 25.5 29t32.5 14t38 -3q9 -2 23 -13t22 -14q23 -7 45 23q9 13 24.5 11.5t21.5 -12.5t-1 -25q-23 -30 -52.5 -43.5t-60.5 0.5q-5 2 -19 12.5t-23 11.5q-13 2 -18.5 -1.5t-12.5 -15.5zM449 314q9 13 22 13t21.5 -12.5
t1.5 -26.5q-48 -95 -104 -129q-9 -6 -19 -10t-20.5 -5.5t-21 -1t-20 5.5t-17.5 13q-21 24 -29 76q-21 -35 -50 -60q-18 -15 -39 -24.5t-45 -11t-45 11.5q-22 13 -29.5 39.5t-3.5 53t15 48.5q16 33 46 57.5t66 36.5q41 13 77 2q2 56 2 70q0 15 13 21.5t25.5 0t12.5 -21.5
q0 -19 -1 -54.5t-1.5 -58t2 -53.5t7.5 -57q6 -28 14 -39q1 -3 3 -4h1l1 -1q3 0 5 1q8 1 13 3q21 8 41.5 30.5t31 40t24.5 46.5zM181 217q52 48 68 121q-10 9 -28 6.5t-32.5 -8t-26.5 -12.5q-29 -18 -46.5 -47.5t-12.5 -61.5q2 -15 11.5 -20t22.5 -1t24.5 10t19.5 13z
M333 193l-1 1zM333 193z" />
    <glyph glyph-name="adieresis" unicode="&#xe4;" horiz-adv-x="547" 
d="M126.5 484q-15.5 0 -22 13t0 26t22 13t22 -13t0 -26t-22 -13zM225 484q-16 0 -22 13t0 26t22 13t22.5 -13t0 -26t-22.5 -13zM449 314q9 13 22 13t21.5 -12.5t1.5 -26.5q-48 -95 -104 -129q-16 -10 -32.5 -14.5t-34.5 -1t-31 17.5q-21 24 -29 76q-21 -35 -50 -60
q-18 -15 -39 -24.5t-45 -11t-45 11.5q-22 13 -29.5 39.5t-3.5 53t15 48.5q16 33 46 57.5t66 36.5q41 13 77 2q2 56 2 70q0 15 13 21.5t25.5 0t12.5 -21.5q0 -14 -1.5 -68t0 -88t8.5 -67q6 -28 14 -39q1 -3 3 -4h1l1 -1q3 0 5 1q8 1 13 3q21 8 41.5 30.5t31 40t24.5 46.5z
M181 217q52 48 68 121q-10 9 -28 6.5t-32.5 -8t-26.5 -12.5q-29 -18 -46.5 -47.5t-12.5 -61.5q2 -15 11.5 -20t22.5 -1t24.5 10t19.5 13zM333 193l-1 1zM333 193z" />
    <glyph glyph-name="aring" unicode="&#xe5;" horiz-adv-x="547" 
d="M176 434q-30 1 -52 24t-22 53q0 21 10.5 39t28.5 28.5t38 10.5q12 0 23 -3.5t20 -10t16 -15t11.5 -18.5t6.5 -22q1 -4 1 -9q0 -4 -1 -9q-5 -30 -27 -49.5t-53 -18.5zM205 511q-1 16 -13.5 22.5t-25.5 0t-13 -22t13 -22t25.5 0t13.5 21.5zM449 314q9 13 22 13t21.5 -12.5
t1.5 -26.5q-48 -95 -104 -129q-16 -10 -32.5 -14.5t-34.5 -1t-31 17.5q-21 24 -29 76q-21 -35 -50 -60q-18 -15 -39 -24.5t-45 -11t-45 11.5q-22 13 -29.5 39.5t-3.5 53t15 48.5q16 33 46 57.5t66 36.5q41 13 77 2q2 56 2 70q0 15 13 21.5t25.5 0t12.5 -21.5q0 -14 -1.5 -68
t0 -88t8.5 -67q6 -28 14 -39q1 -3 3 -4h1l1 -1q3 0 5 1q8 1 13 3q21 8 41.5 30.5t31 40t24.5 46.5zM181 217q52 48 68 121q-10 9 -28 6.5t-32.5 -8t-26.5 -12.5q-29 -18 -46.5 -47.5t-12.5 -61.5q2 -15 11.5 -20t22.5 -1t24.5 10t19.5 13zM333 193l-1 1zM333 193z" />
    <glyph glyph-name="ae" unicode="&#xe6;" horiz-adv-x="630" 
d="M528 308q5 14 20 17t25 -6.5t5 -24.5q-21 -60 -65 -111.5t-98 -65.5q-54 -13 -93 15l-6 4q-42 37 -56 96q-21 -32 -47 -55q-18 -15 -39 -24.5t-45 -11t-45 11.5q-22 13 -29.5 39.5t-3.5 53t15 48.5q16 33 46 57.5t66 36.5q39 13 76 3q2 48 3 69q0 15 13 21.5t25.5 0
t12.5 -21.5q0 -19 -3 -53h1q18 21 46 30t53 0q22 -7 32 -27.5t9 -44.5q-3 -30 -24 -51.5t-49.5 -31t-60.5 -8.5q0 -48 19 -78q6 -8 13 -15q23 -17 48.5 -14t49.5 21q28 21 51 53.5t35 66.5zM349 378q-20 -16 -30 -53q32 1 56 15.5t19 38.5q-2 9 -11 10t-18 -2.5t-16 -8.5z
M181 217q52 48 68 121q-10 9 -28 6.5t-32.5 -8t-26.5 -12.5q-29 -18 -46.5 -47.5t-12.5 -61.5q2 -15 11.5 -20t22.5 -1t24.5 10t19.5 13z" />
    <glyph glyph-name="ccedilla" unicode="&#xe7;" horiz-adv-x="424" 
d="M324 308q4 15 18 17.5t25 -7t6 -24.5q-29 -106 -115 -142q-28 -11 -59 -14q-35 -44 -29 -92q5 -31 29 -32q10 0 18 7t9 18q2 15 15.5 21.5t25.5 0t11 -21.5q-3 -26 -17 -45.5t-37 -27.5q-22 -7 -45.5 -0.5t-38.5 24.5q-17 20 -21 47.5t2 53t20 50.5q-10 2 -18 5
q-36 14 -54 47t-19 75q-1 28 8.5 58t29.5 55t48 33q19 6 37 0.5t32.5 -18t23.5 -30t10 -35.5q1 -16 -11.5 -22.5t-26 0t-14.5 22.5q0 9 -9.5 21t-20.5 13q-24 3 -45 -44q-8 -19 -10.5 -42t5 -46t25.5 -34q24 -12 52.5 -11t54.5 12q62 25 85 108z" />
    <glyph glyph-name="egrave" unicode="&#xe8;" horiz-adv-x="418" 
d="M134 499q-4 5 -11 13t-7.5 18t7.5 19q7 7 18 7t18 -7q19 -21 44 -57q5 -9 2 -19.5t-12 -15.5q-9 -6 -19 -3t-16 12q-14 20 -18 25q-2 4 -6 8zM316 308q5 14 19.5 17t25 -6.5t5.5 -24.5q-13 -38 -35.5 -73.5t-56.5 -65t-71 -38.5q-38 -9 -68.5 2t-48.5 36t-27.5 59
t-8.5 69t12 68.5t32 55.5q12 13 28.5 22t35 11.5t35.5 -3.5q22 -7 32 -27.5t8 -44.5q-3 -44 -43 -68t-90 -23q0 -55 25 -86q13 -16 32.5 -20t37.5 1.5t35 18.5q28 21 51 53.5t35 66.5zM137 378q-20 -16 -30 -53q32 1 56 15.5t19 38.5q-2 7 -7.5 9.5t-12.5 1t-13.5 -5
t-11.5 -6.5z" />
    <glyph glyph-name="eacute" unicode="&#xe9;" horiz-adv-x="418" 
d="M145 457q-8 5 -11.5 15.5t2.5 19.5q25 36 43 57q7 7 18.5 7t18.5 -7q7 -8 7 -18.5t-7 -18.5q-12 -13 -17 -21q-4 -5 -18 -25q-7 -9 -16.5 -12t-19.5 3zM316 308q5 14 19.5 17t25 -6.5t5.5 -24.5q-21 -60 -65 -111.5t-98 -65.5q-38 -9 -68.5 2t-48.5 36t-27.5 59t-8.5 69
t12 68.5t32 55.5q12 13 28.5 22t35 11.5t35.5 -3.5q22 -7 32 -27.5t8 -44.5q-3 -44 -43 -68t-90 -23q0 -55 25 -86q13 -16 32.5 -20t37.5 1.5t35 18.5q28 21 51 53.5t35 66.5zM137 378q-20 -16 -30 -53q32 1 56 15.5t19 38.5q-2 7 -7.5 9.5t-12.5 1t-13.5 -5t-11.5 -6.5z
" />
    <glyph glyph-name="ecircumflex" unicode="&#xea;" horiz-adv-x="418" 
d="M119 443q-9 -13 -24 -11.5t-21.5 12.5t0.5 25q7 10 15 23t16.5 26t14.5 23q1 1 5.5 9t7 11t7 8t9.5 7.5t11 2.5q9 0 17 -5t11.5 -8.5t11.5 -15.5t9 -13l24 -33l24 -33q15 -19 -6 -32t-36 4l-2 2q-6 8 -17 23t-16 22q-3 4 -8.5 11.5t-8.5 11.5q-2 -4 -6 -10.5t-6 -9.5
q-6 -8 -16.5 -24.5t-15.5 -25.5zM316 308q5 14 19.5 17t25 -6.5t5.5 -24.5q-21 -60 -65 -111.5t-98 -65.5q-38 -9 -68.5 2t-48.5 36t-27.5 59t-8.5 69t12 68.5t32 55.5q18 21 46 30t53 0q22 -7 32 -27.5t8 -44.5q-2 -30 -23 -51.5t-50 -31t-60 -8.5q0 -55 25 -86
q10 -12 23.5 -17.5t27.5 -4.5t28 6.5t26 15.5q28 21 51 53.5t35 66.5zM137 378q-20 -16 -30 -53q32 1 56 15.5t19 38.5q-2 7 -7.5 9.5t-12.5 1t-13.5 -5t-11.5 -6.5z" />
    <glyph glyph-name="edieresis" unicode="&#xeb;" horiz-adv-x="418" 
d="M120.5 463q-15.5 0 -22 12.5t0 25.5t22 13t22 -13t0 -25.5t-22 -12.5zM219.5 463q-15.5 0 -22 12.5t0 25.5t22 13t22 -13t0 -25.5t-22 -12.5zM316 308q5 14 19.5 17t25 -6.5t5.5 -24.5q-21 -60 -65 -111.5t-98 -65.5q-38 -9 -68.5 2t-48.5 36t-27.5 59t-8.5 69t12 68.5
t32 55.5q18 21 46 30t53 0q22 -7 32 -27.5t8 -44.5q-2 -30 -23 -51.5t-50 -31t-60 -8.5q0 -55 25 -86q13 -16 32.5 -20t37.5 1.5t35 18.5q28 21 51 53.5t35 66.5zM137 378q-20 -16 -30 -53q32 1 56 15.5t19 38.5q-2 7 -7.5 9.5t-12.5 1t-13.5 -5t-11.5 -6.5z" />
    <glyph glyph-name="igrave" unicode="&#xec;" horiz-adv-x="376" 
d="M128 440q-10 -6 -19.5 -3t-16.5 12q-14 20 -17 25q-3 4 -7 8q-4 5 -11 13t-7 18t7 18q8 8 19 8t18 -8q18 -20 43 -56q6 -9 2.5 -19.5t-11.5 -15.5zM279 314q9 13 21.5 13t21.5 -12.5t1 -26.5q-43 -86 -94 -123q-17 -12 -36 -18.5t-40 -3.5t-35 18q-28 29 -33 106
q-1 5 0 57.5t1 57.5q0 16 13 22.5t26 0t13 -22.5q0 -12 -1 -43.5t-1 -48.5q1 -61 13 -84q6 -12 15 -13q19 -1 45 21q36 32 70 100z" />
    <glyph glyph-name="iacute" unicode="&#xed;" horiz-adv-x="342" 
d="M63 440q-9 5 -12 15.5t3 19.5q25 36 43 56q7 8 18 8t18 -8q8 -8 7.5 -18t-7.5 -18q-11 -13 -17 -21q-4 -5 -18 -25q-6 -9 -15.5 -12t-19.5 3zM245 314q9 13 21.5 13t21 -12.5t1.5 -26.5q-43 -86 -94 -123q-17 -12 -36 -18.5t-40 -3.5t-35 18q-28 29 -33 106
q-2 5 -0.5 57.5t1.5 57.5q0 16 13 22.5t26 0t13 -22.5q0 -12 -1 -43.5t-1 -48.5q1 -61 13 -84q6 -12 15 -13q19 -1 45 21q35 32 70 100z" />
    <glyph glyph-name="icircumflex" unicode="&#xee;" horiz-adv-x="414" 
d="M143 495q-1 -1 -5.5 -8t-6.5 -11q-6 -8 -16.5 -25t-15.5 -25q-9 -13 -24 -12t-21.5 12.5t0.5 25.5q8 12 23 35.5t23 35.5q1 2 5.5 9.5t7 11t7 8.5t9.5 7.5t11 2.5q7 0 13 -2.5t11.5 -8t9 -9.5t8.5 -12t7 -10q4 -6 9.5 -13t10 -13.5t9.5 -13t10 -13.5t9 -13q15 -19 -6 -32
t-36 4l-2 2q-6 8 -17 23t-16 22q-3 4 -8.5 11.5t-8.5 10.5zM316 314q9 13 21.5 13t21.5 -12.5t2 -26.5q-44 -86 -95 -123q-17 -12 -36 -18.5t-40 -3.5t-35 18q-28 29 -33 106q-1 5 0 57.5t1 57.5q1 16 13.5 22.5t25.5 0t13 -22.5q0 -12 -1 -43.5t-1 -48.5q1 -61 13 -84
q6 -12 15 -13q19 -1 45 21q36 32 70 100z" />
    <glyph glyph-name="idieresis" unicode="&#xef;" horiz-adv-x="392" 
d="M75 488q16 0 22.5 -12.5t0 -25.5t-22.5 -13t-22.5 13t0 25.5t22.5 12.5zM173.5 437q-15.5 0 -22 13t0 25.5t22 12.5t22 -12.5t0 -25.5t-22 -13zM295 314q8 13 21 13t21.5 -12.5t1.5 -26.5q-43 -86 -94 -123q-17 -12 -36 -18.5t-40 -3.5t-35 18q-29 29 -33 106
q-2 5 -0.5 57.5t1.5 57.5q0 16 13 22.5t26 0t13 -22.5q0 -12 -1 -43.5t-1 -48.5q1 -61 13 -84q6 -12 14 -13q20 -1 45 21q36 32 71 100z" />
    <glyph glyph-name="ntilde" unicode="&#xf1;" horiz-adv-x="533" 
d="M131 506q-8 -14 -21 -14t-21.5 12.5t-2.5 27.5q12 24 32 35.5t46 4.5q12 -3 23 -12q2 -1 7 -7t8 -8q3 -1 5 -1t4 0.5t3.5 1.5t3.5 3l3 3t3 4t2.5 4l2 4t2.5 3q9 13 22.5 13t21.5 -12.5t0 -26.5q-16 -28 -41 -42.5t-52 -0.5q-6 2 -15.5 12.5t-15.5 12.5q-5 -1 -7 0.5
t-5 -2t-3.5 -4.5t-2.5 -5.5t-2 -5.5zM432 308q5 14 19.5 17t25 -6.5t5.5 -24.5q-22 -60 -61 -105t-94 -47q-35 -2 -58 21t-32 61q-2 11 -6 32t-6 30q-4 18 -8 27q-5 10 -10 12q-15 7 -31 -14q-18 -22 -32 -71q-26 -88 -23 -184q1 -12 -7 -19q-9 -13 -25.5 -11.5t-19.5 18.5
q-38 210 -1 421q3 15 16.5 18t25 -6.5t8.5 -25.5q-15 -86 -17 -175q34 98 93 102q24 1 41.5 -11t26.5 -29.5t14 -41.5q1 -5 3.5 -24.5t5.5 -32.5t9.5 -26.5t16.5 -17.5q26 -9 59 18q39 31 62 95z" />
    <glyph glyph-name="ograve" unicode="&#xf2;" horiz-adv-x="456" 
d="M135 499q-4 5 -11 13t-7.5 18t7.5 19q7 7 18 7t18 -7q18 -21 43 -57q6 -9 3 -19.5t-12 -15.5q-10 -6 -19.5 -3t-15.5 12q-14 20 -18 25zM403 314q11 -20 -9 -35q-57 -44 -130 -53q-2 -10 -5 -18q-21 -58 -77 -68q-24 -4 -45.5 1.5t-38 19t-28.5 34.5q-38 69 -7 146
q14 35 37.5 59t56.5 25q4 1 8 0q8 0 16 -2q46 -8 68.5 -49t21.5 -95q50 8 96 44q9 6 20 2.5t16 -11.5zM193 199q12 9 18 28q-51 9 -82 47q-14 17 -22 39q-2 -8 -3 -15q-6 -27 1 -55t27 -44q12 -10 30 -10t31 10zM218 280q0 48 -15 71q-5 8 -16.5 15.5t-21.5 8.5q-4 -1 -8 -1
h-2q-6 -8 -4 -22t6 -25q14 -35 56 -46h2.5t2.5 -1z" />
    <glyph glyph-name="oacute" unicode="&#xf3;" horiz-adv-x="456" 
d="M142 457q-9 5 -12 15.5t3 19.5q25 36 43 57q7 7 18 7t18 -7q8 -8 7.5 -18.5t-7.5 -18.5q-11 -13 -17 -21q-4 -5 -18 -25q-6 -9 -15.5 -12t-19.5 3zM403 314q11 -20 -9 -35q-57 -44 -130 -53q-2 -10 -5 -18q-21 -58 -77 -68q-36 -7 -65 8.5t-47 46.5q-38 69 -7 146
q14 35 37.5 59t56.5 25q4 1 8 0q8 0 16 -2q46 -8 68.5 -49t21.5 -95q50 8 96 44q9 6 20 2.5t16 -11.5zM193 199q12 9 18 28q-51 9 -82 47q-14 17 -22 39q-2 -8 -3 -15q-6 -27 1 -55t27 -44q12 -10 30 -10t31 10zM218 280q0 48 -15 71q-5 8 -16.5 15.5t-21.5 8.5q-4 -1 -8 -1
h-2q-6 -8 -4 -22t6 -25q14 -35 56 -46h2.5t2.5 -1z" />
    <glyph glyph-name="ocircumflex" unicode="&#xf4;" horiz-adv-x="456" 
d="M119 439q-8 -13 -23 -12t-21.5 12.5t0.5 25.5q8 12 23 35.5t23 35.5q1 2 5.5 9.5t7 11t7 8.5t9.5 7.5t11 2.5q9 0 17 -5t11.5 -9t11.5 -16t9 -12l24 -33l24 -33q14 -19 -6 -32q-21 -14 -37 4q-1 1 -1 2q-6 8 -17 22.5t-17 22.5q-2 4 -7.5 11.5t-8.5 10.5q-2 -3 -6 -9.5
t-7 -9.5q-5 -8 -15.5 -25t-16.5 -25zM403 314q11 -20 -9 -35q-57 -44 -130 -53q-2 -10 -5 -18q-21 -58 -77 -68q-24 -4 -45.5 1.5t-38 19t-28.5 34.5q-38 69 -7 146q14 35 37.5 59t56.5 25q4 1 8 0q8 0 16 -2q46 -8 68.5 -49t21.5 -95q50 8 96 44q9 6 20 2.5t16 -11.5z
M193 199q12 9 18 28q-51 9 -82 47q-14 17 -22 39q-2 -8 -3 -15q-6 -27 1 -55t27 -44q12 -10 30 -10t31 10zM218 280q0 48 -15 71q-5 8 -16.5 15.5t-21.5 8.5q-4 -1 -8 -1h-2q-6 -8 -4 -22t6 -25q14 -35 56 -46h2.5t2.5 -1z" />
    <glyph glyph-name="otilde" unicode="&#xf5;" horiz-adv-x="456" 
d="M99.5 471q-4.5 -8 -12.5 -11t-15.5 -0.5t-13.5 8t-7 13.5t4 16q16 27 41 37.5t55 2.5q9 -3 23 -13.5t21 -13.5q23 -7 46 23q9 13 24.5 11.5t21.5 -12.5t-2 -25q-22 -30 -51.5 -43.5t-61.5 0.5q-4 2 -18 12.5t-24 11.5q-9 1 -14 -0.5t-8.5 -5t-8 -11.5zM403 314
q11 -20 -9 -35q-57 -44 -130 -53q-2 -10 -5 -18q-21 -58 -77 -68q-36 -7 -65 8.5t-47 46.5q-38 69 -7 146q14 35 37.5 59t56.5 25q4 1 8 0q8 0 16 -2q46 -8 68.5 -49t21.5 -95q50 8 96 44q9 6 20 2.5t16 -11.5zM193 199q12 9 18 28q-51 9 -82 47q-14 17 -22 39q-2 -8 -3 -15
q-6 -27 1 -55t27 -44q12 -10 30 -10t31 10zM218 280q0 48 -15 71q-5 8 -16.5 15.5t-21.5 8.5q-4 -1 -8 -1h-2q-6 -8 -4 -22t6 -25q14 -35 56 -46h2.5t2.5 -1z" />
    <glyph glyph-name="odieresis" unicode="&#xf6;" horiz-adv-x="456" 
d="M112.5 450q-15.5 0 -22 13t0 25.5t22 12.5t22 -12.5t0 -25.5t-22 -13zM211.5 450q-15.5 0 -22 13t0 25.5t22 12.5t22 -12.5t0 -25.5t-22 -13zM403 314q11 -20 -9 -35q-57 -44 -130 -53q-2 -10 -5 -18q-21 -58 -77 -68q-36 -7 -65 8.5t-47 46.5q-38 69 -7 146
q14 35 37.5 59t56.5 25q4 1 8 0q8 0 16 -2q46 -8 68.5 -49t21.5 -95q50 8 96 44q9 6 20 2.5t16 -11.5zM193 199q12 9 18 28q-51 9 -82 47q-14 17 -22 39q-2 -8 -3 -15q-6 -27 1 -55t27 -44q12 -10 30 -10t31 10zM218 280q0 48 -15 71q-5 8 -16.5 15.5t-21.5 8.5q-4 -1 -8 -1
h-2q-6 -8 -4 -22t6 -25q14 -35 56 -46h2.5t2.5 -1z" />
    <glyph glyph-name="divide" unicode="&#xf7;" horiz-adv-x="414" 
d="M345 361q16 -3 19 -17t-7 -25t-25 -8q-30 5 -65.5 7.5t-61 2.5t-68 -1t-62.5 -1q-16 0 -22.5 13t0 26t22.5 13q19 0 53 0.5t56.5 0.5t52 -0.5t56.5 -3.5t52 -7zM208.5 415q-15.5 0 -22 13t0 26t22 13t22 -13t0 -26t-22 -13zM208.5 278q15.5 0 22 -13t0 -26t-22 -13
t-22 13t0 26t22 13z" />
    <glyph glyph-name="oslash" unicode="&#xf8;" horiz-adv-x="469" 
d="M416 314q11 -20 -9 -35q-57 -44 -129 -53q-3 -10 -6 -18q-21 -58 -77 -68q-61 -11 -100 38q-4 -4 -11.5 -12t-11.5 -12q-6 -5 -13 -3t-8.5 8.5t3.5 12.5q7 8 27 28q-34 67 -5 141q14 35 38 59t56 25q4 1 8 0q8 0 16 -2q40 -7 64 -42l28 28q5 5 12 3t9 -8.5t-3 -12.5
q-6 -6 -17 -17.5t-16 -16.5q14 -35 13 -78q50 8 97 44q8 6 19 2.5t16 -11.5zM168 374q-5 -8 -3.5 -22t6.5 -25q5 -13 13 -22l12 12t13.5 14t11.5 12l-4 8q-5 8 -17 15.5t-22 8.5q-4 -1 -8 -1h-2zM117 298q-6 -30 3 -59q4 5 13.5 14.5l14.5 14.5q-4 3 -5 6q-14 17 -22 39
q-3 -8 -4 -15zM206 199q13 9 19 28q-33 6 -58 24l-36 -36q6 -9 14 -16q12 -10 30 -10t31 10zM231 280q0 20 -2 34l-12 -12t-12 -13q9 -4 22 -8h2.5t1.5 -1z" />
    <glyph glyph-name="ugrave" unicode="&#xf9;" horiz-adv-x="375" 
d="M134 461q-5 5 -11 12q-8 8 -8 18.5t8 18.5q7 7 18 7.5t18 -7.5q18 -21 43 -57q6 -8 3 -19t-12 -16q-10 -5 -19.5 -2.5t-15.5 11.5q-14 20 -18 26q-3 3 -6 8zM323 76q5 -15 -5 -24t-24.5 -6.5t-20.5 16.5q-19 45 -28 152q-2 16 -3 35q-66 -150 -145 -100q-18 11 -29 29.5
t-14 44t-3.5 44.5t1 49.5t1.5 40.5q0 15 13 21.5t25.5 0t12.5 -21.5q0 -12 -1 -37.5t-0.5 -45t2.5 -36.5q6 -35 18 -44q6 -5 16 -5q3 0 8 4q6 4 11.5 10t10.5 14t8.5 13.5t8.5 16.5t6.5 15t6.5 16.5t5 14.5q6 13 16.5 44t17.5 47q1 5 4 9q9 19 29 9q18 -5 18 -24
q0 -82 7 -158q8 -100 27 -144z" />
    <glyph glyph-name="uacute" unicode="&#xfa;" horiz-adv-x="375" 
d="M149 418q-9 5 -12 16t3 19q25 36 43 57q7 8 18 7.5t19 -7.5q7 -8 7 -18.5t-7 -18.5q-12 -13 -18 -20q-3 -6 -17 -26q-7 -9 -16.5 -11.5t-19.5 2.5zM323 76q8 -21 -13 -29q-21 -9 -34 9q-2 3 -3 6q-19 45 -28 152q-2 16 -3 35q-66 -150 -145 -100q-15 10 -25 25.5
t-14.5 31.5t-6.5 38.5t-1 39t2 39.5t1 34q0 15 13 21.5t25.5 0t12.5 -21.5q0 -12 -0.5 -30t-1 -30.5t0 -29t2.5 -29.5q6 -35 18 -44q6 -5 16 -5q3 0 8 4q5 3 9.5 7.5t8.5 10t7.5 10.5t7 12t5.5 12t5.5 12.5t5 12t4.5 12.5t4 11q5 12 11 29t12 33t11 29q1 5 4 9q9 19 29 9
q18 -5 18 -24q0 -82 7 -158q8 -100 27 -144z" />
    <glyph glyph-name="ucircumflex" unicode="&#xfb;" horiz-adv-x="375" 
d="M123 426q-9 -13 -24 -12t-21.5 12.5t0.5 25.5q6 10 14.5 23t16.5 25.5t15 22.5q1 2 5.5 9.5t7 11t7 8.5t9.5 7.5t11 2.5q9 0 17 -5t11.5 -9t11.5 -15.5t9 -12.5q15 -21 48 -66q14 -19 -6 -32q-21 -13 -37 4q0 1 -1 2q-7 9 -19 25t-14 20q-2 3 -4.5 6t-4.5 5.5t-4 5.5
t-4 5q-7 -10 -12 -19q-5 -7 -10.5 -16t-11.5 -18t-10 -16zM323 76q8 -21 -13 -29q-21 -9 -34 9q-2 3 -3 6q-19 45 -28 152q-2 16 -3 35q-66 -150 -145 -100q-15 10 -25 25.5t-14.5 31.5t-6.5 38.5t-1 39t2 39.5t1 34q0 15 13 21.5t25.5 0t12.5 -21.5q0 -12 -0.5 -30
t-1 -30.5t0 -29t2.5 -29.5q6 -35 18 -44q6 -5 16 -5q3 0 8 4q5 3 9.5 7.5t8.5 10t7.5 10.5t7 12t5.5 12t5.5 12.5t5 12t4.5 12.5t4 11q6 13 16.5 44t17.5 47q1 5 4 9q9 19 29 9q18 -5 18 -24q0 -82 7 -158q8 -100 27 -144z" />
    <glyph glyph-name="udieresis" unicode="&#xfc;" horiz-adv-x="375" 
d="M124.5 433q-15.5 0 -22 12.5t0 25.5t22 13t22 -13t0 -25.5t-22 -12.5zM223 433q-16 0 -22 12.5t0 25.5t22 13t22.5 -13t0 -25.5t-22.5 -12.5zM323 76q5 -15 -5 -24t-24.5 -6.5t-20.5 16.5q-19 45 -28 152q-2 16 -3 35q-66 -150 -145 -100q-15 10 -25 25.5t-14.5 31.5
t-6.5 38.5t-1 39t2 39.5t1 34q0 15 13 21.5t25.5 0t12.5 -21.5q0 -12 -1 -37.5t-0.5 -45t2.5 -36.5q6 -35 18 -44q6 -5 16 -5q3 0 8 4q5 3 9.5 7.5t8.5 10t7.5 10.5t7 12t5.5 12t5.5 12.5t5 12t4.5 12.5t4 11q6 13 16.5 44t17.5 47q1 5 4 9q9 19 29 9q18 -5 18 -24
q0 -82 7 -158q8 -100 27 -144z" />
    <glyph glyph-name="yacute" unicode="&#xfd;" horiz-adv-x="573" 
d="M252 366q-8 6 -11.5 16.5t2.5 19.5q25 36 43 56q7 8 18.5 7.5t18.5 -7.5q7 -8 7 -18t-7 -18q-12 -14 -17 -21q-4 -5 -18 -25q-7 -9 -16.5 -12t-19.5 2zM504 127q16 -3 19 -16.5t-7 -25t-25 -8.5q-35 6 -71 5q1 -73 -6 -121q-23 -163 -119 -235q-39 -29 -89.5 -35.5
t-94.5 17t-57 75.5q-14 53 22 130q31 68 94 123q87 75 198 92q-1 60 -4 115q-40 -66 -87 -90q-25 -15 -55.5 -9.5t-45.5 31.5q-25 42 -6 133q3 15 16.5 18t25 -7t7.5 -25q-15 -75 2 -95q17 -19 54 15q8 8 15 15.5t14.5 17.5t12 16.5t12 20l10 18t10.5 20t10 18.5
q5 11 15.5 12.5t18.5 -3.5q15 -7 16 -22q8 -74 10 -179v-15q43 1 85 -6zM368 23v54q-110 -21 -188 -104q-48 -50 -68 -106q-21 -63 5 -98q18 -24 50.5 -28.5t58.5 6.5q48 16 81 66q59 85 61 210z" />
    <glyph glyph-name="thorn" unicode="&#xfe;" horiz-adv-x="325" 
d="M262 305q13 -36 12.5 -81.5t-16.5 -80.5q-11 -23 -27.5 -37.5t-39.5 -20.5t-41.5 -7.5t-47.5 -0.5q3 -92 20 -152q4 -15 -6.5 -24.5t-24.5 -7t-19 17.5q-12 44 -18 129q-1 24 -2 57q-2 5 -1 11q-3 97 2 241q6 148 14 231q2 16 15.5 22.5t25.5 0t11 -22.5q-4 -38 -8 -107
q-3 -47 -5 -95q48 9 78 3q57 -12 78 -76zM168 131q54 14 54 96q-1 91 -48 103q-21 5 -70 -4q-2 -78 -2 -151v-23.5v-23.5q45 -3 66 3z" />
    <glyph glyph-name="ydieresis" unicode="&#xff;" horiz-adv-x="573" 
d="M249 390q-16 0 -22.5 12.5t0 25.5t22.5 13t22.5 -13t0 -25.5t-22.5 -12.5zM347.5 390q-15.5 0 -22 12.5t0 25.5t22.5 13t22 -13t-0.5 -25.5t-22 -12.5zM504 127q16 -3 19 -16.5t-7 -25t-25 -8.5q-35 6 -71 5q1 -73 -6 -121q-23 -163 -119 -235q-39 -29 -89.5 -35.5
t-94.5 17t-57 75.5q-14 53 22 130q31 68 94 123q87 75 198 92q-1 60 -4 115q-40 -66 -87 -90q-25 -15 -55.5 -9.5t-45.5 31.5q-25 42 -6 133q3 15 16.5 18t25 -7t7.5 -25q-15 -75 2 -95q17 -19 54 15q8 8 15 15.5t14.5 17.5t12 16.5t12 20l10 18t10.5 20t10 18.5
q5 11 15.5 12.5t18.5 -3.5q15 -7 16 -22q8 -74 10 -179v-15q43 1 85 -6zM368 23v54q-110 -21 -188 -104q-48 -50 -68 -106q-21 -63 5 -98q18 -24 50.5 -28.5t58.5 6.5q48 16 82 66q58 85 60 210z" />
    <glyph glyph-name="Amacron" unicode="&#x100;" 
d="M466 468q10 0 16 -5.5t7.5 -13t0 -15t-7.5 -12.5t-16 -5q-26 1 -55 1q8 -48 16 -115q18 -138 22 -213q1 -15 -11.5 -21.5t-26 0t-14.5 21.5q-4 82 -23 229q-7 53 -14 98q-48 -2 -114 -6q-11 -1 -34.5 -2.5t-36.5 -2.5q-20 -133 -31 -316q-1 -15 -14.5 -21.5t-26 0
t-11.5 21.5q12 185 30 311q-22 -4 -40 -9q-15 -4 -24.5 6.5t-7 24.5t17.5 19q27 7 62 12q9 60 22 114q21 98 48 148q32 59 75 57q35 -1 61 -53q20 -40 38 -112q16 -63 29 -139q34 0 63 -1zM240 462q65 4 111 6q-12 70 -27 128q-17 67 -33 99l-10 18l-2 2q-3 3 -5 6h-1l-1 1
q-1 0 -2 -1q-3 -1 -7 -4q-6 -6 -11 -14q-13 -20 -23 -50q-22 -61 -40 -162q-3 -14 -6 -33q8 1 18.5 1.5t20.5 1t18 1.5zM200 812q-16 0 -22.5 13t0 26t22.5 13h141q16 0 22.5 -13t0 -26t-22.5 -13h-141z" />
    <glyph glyph-name="amacron" unicode="&#x101;" horiz-adv-x="547" 
d="M145 494q-16 0 -22.5 13t0 26t22.5 13h103q16 0 22.5 -13t0 -26t-22.5 -13h-103zM449 314q9 13 22 13t21.5 -12.5t1.5 -26.5q-48 -95 -104 -129q-16 -10 -32.5 -14.5t-34.5 -1t-31 17.5q-21 24 -29 76q-21 -35 -50 -60q-18 -15 -39 -24.5t-45 -11t-45 11.5
q-22 13 -29.5 39.5t-3.5 53t15 48.5q16 33 46 57.5t66 36.5q41 13 77 2q2 56 2 70q0 15 13 21.5t25.5 0t12.5 -21.5q0 -14 -1.5 -68t0 -88t8.5 -67q6 -28 14 -39q1 -3 3 -4h1l1 -1q3 0 5 1q8 1 13 3q21 8 41.5 30.5t31 40t24.5 46.5zM181 217q52 48 68 121q-10 9 -28 6.5
t-32.5 -8t-26.5 -12.5q-29 -18 -46.5 -47.5t-12.5 -61.5q1 -10 6 -15.5t12.5 -6.5t15.5 1t16.5 6t15.5 8.5t12 8.5zM333 193l-1 1zM333 193z" />
    <glyph glyph-name="Abreve" unicode="&#x102;" 
d="M466 468q10 0 16 -5.5t7.5 -13t0 -15t-7.5 -12.5t-16 -5q-26 1 -55 1q8 -48 16 -115q18 -138 22 -213q1 -15 -11.5 -21.5t-26 0t-14.5 21.5q-4 82 -23 229q-7 53 -14 98q-48 -2 -114 -6q-11 -1 -34.5 -2.5t-36.5 -2.5q-20 -133 -31 -316q-1 -15 -14.5 -21.5t-26 0
t-11.5 21.5q12 185 30 311q-22 -4 -40 -9q-15 -4 -24.5 6.5t-7 24.5t17.5 19q27 7 62 12q9 60 22 114q21 98 48 148q32 59 75 57q35 -1 61 -53q20 -40 38 -112q16 -63 29 -139q34 0 63 -1zM240 462q65 4 111 6q-12 70 -27 128q-17 67 -33 99l-10 18l-2 2q-3 3 -5 6h-1l-1 1
q-1 0 -2 -1q-3 -1 -7 -4q-6 -6 -11 -14q-13 -20 -23 -50q-22 -61 -40 -162q-3 -14 -6 -33q8 1 18.5 1.5t20.5 1t18 1.5zM270 781q-37 -1 -59 28t-28 69q-3 16 8.5 25.5t25 7t16.5 -18.5q1 -12 2.5 -17.5t5 -16.5t9.5 -17t14 -8q21 -4 32.5 14.5t11.5 40.5q0 16 13 22.5t26 0
t12 -22.5q0 -27 -10 -50.5t-31 -39.5t-48 -17z" />
    <glyph glyph-name="abreve" unicode="&#x103;" horiz-adv-x="547" 
d="M177 437q-38 0 -59.5 28.5t-28.5 69.5q-2 15 9.5 25t25 7t15.5 -19q1 -8 2 -11t2.5 -11.5t3.5 -12.5t5.5 -10t8 -9t10.5 -5q21 -4 32 14.5t11 40.5q1 16 14 22.5t25.5 0t12.5 -22.5q0 -42 -24.5 -74t-64.5 -33zM449 314q9 13 22 13t21.5 -12.5t1.5 -26.5
q-48 -95 -104 -129q-16 -10 -32.5 -14.5t-34.5 -1t-31 17.5q-21 24 -29 76q-21 -35 -50 -60q-18 -15 -39 -24.5t-45 -11t-45 11.5q-22 13 -29.5 39.5t-3.5 53t15 48.5q16 33 46 57.5t66 36.5q41 13 77 2q2 56 2 70q0 15 13 21.5t25.5 0t12.5 -21.5q0 -14 -1.5 -68t0 -88
t8.5 -67q6 -28 14 -39q1 -3 3 -4h1l1 -1q3 0 5 1q8 1 13 3q21 8 41.5 30.5t31 40t24.5 46.5zM181 217q52 48 68 121q-10 9 -28 6.5t-32.5 -8t-26.5 -12.5q-29 -18 -46.5 -47.5t-12.5 -61.5q1 -10 6 -15.5t12.5 -6.5t15.5 1t16.5 6t15.5 8.5t12 8.5zM333 193l-1 1zM333 193z
" />
    <glyph glyph-name="Aogonek" unicode="&#x104;" horiz-adv-x="555" 
d="M453 -34q2 15 15.5 21.5t25.5 0t11 -21.5q-2 -18 -9.5 -33t-20.5 -26t-30 -15q-23 -6 -47 3.5t-37 29.5q-45 70 36 173q-5 80 -23 221q-7 53 -14 98q-48 -2 -114 -6q-11 -1 -34.5 -2.5t-36.5 -2.5q-20 -133 -31 -316q-1 -15 -14.5 -21.5t-26 0t-11.5 21.5q12 186 30 311
q-22 -4 -40 -9q-15 -4 -24.5 6.5t-7 24.5t17.5 19q27 7 62 12q9 60 22 114q21 98 48 148q32 59 75 57q35 -1 61 -53q20 -40 38 -112q16 -63 29 -139q34 0 63 -1q16 0 22.5 -13t0 -26t-22.5 -12q-26 1 -55 1q8 -48 16 -115q18 -138 22 -213q1 -13 -9 -20q-43 -52 -43 -87
q0 -36 23 -41q12 -3 22 4t11 20zM240 462q65 4 111 6q-12 70 -27 128q-17 67 -33 99l-10 18l-2 2q-3 3 -5 6h-1l-1 1q-1 0 -2 -1q-3 -1 -7 -4q-6 -6 -11 -14q-13 -20 -23 -50q-22 -61 -40 -162q-3 -14 -6 -33q6 1 14.5 1.5t14.5 0.5t14 0.5t14 1.5z" />
    <glyph glyph-name="aogonek" unicode="&#x105;" horiz-adv-x="547" 
d="M390 159q-18 -12 -38 -15q-33 -43 -26 -89q4 -32 28 -32q10 -1 18 6.5t9 17.5q2 16 15.5 22.5t25.5 0t11 -22.5q-3 -25 -17 -45t-37 -27q-22 -7 -45.5 -0.5t-38.5 24.5q-18 21 -21.5 49.5t3.5 55t22 51.5q-4 3 -7 6q-21 24 -29 76q-21 -35 -50 -60q-18 -15 -39 -24.5
t-45 -11t-45 11.5q-22 13 -29.5 39.5t-3.5 53t15 48.5q16 33 46 57.5t66 36.5q41 13 77 2q2 56 2 70q0 15 13 21.5t25.5 0t12.5 -21.5q0 -14 -1.5 -68t0 -88t8.5 -67q6 -28 14 -39q1 -3 3 -4h1l1 -1q3 0 5 1q8 1 13 3q21 8 41.5 30.5t31 40t24.5 46.5q9 13 22 13t21.5 -12.5
t1.5 -26.5q-48 -95 -104 -129zM181 217q52 48 68 121q-10 9 -28 6.5t-32.5 -8t-26.5 -12.5q-29 -18 -46.5 -47.5t-12.5 -61.5q2 -15 11.5 -20t22.5 -1t24.5 10t19.5 13zM333 193l-1 1zM333 193z" />
    <glyph glyph-name="Cacute" unicode="&#x106;" horiz-adv-x="454" 
d="M196 783q-9 5 -12 16t2 20q26 35 44 56q7 8 18 7.5t18 -7.5q8 -8 7.5 -18t-7.5 -18q-12 -14 -17 -21q-4 -5 -18 -25q-6 -9 -15.5 -12t-19.5 2zM353 305q1 16 14.5 22t26 0t10.5 -22q-4 -39 -15 -76.5t-31 -73t-53 -57t-74 -21.5q-60 1 -101.5 38t-58.5 97
q-36 123 -10 313q5 36 11.5 64.5t19 63t33.5 60.5t49 39q28 15 60 13t59 -13.5t45 -36.5t19 -58q0 -15 -12.5 -21.5t-25.5 0t-14 21.5q0 23 -16.5 37.5t-40.5 17.5q-52 8 -83 -33t-43 -96.5t-16 -128.5q-10 -156 18 -240q14 -43 47.5 -67.5t76.5 -16.5q26 5 46 24t31.5 46
t18 53t9.5 52z" />
    <glyph glyph-name="cacute" unicode="&#x107;" horiz-adv-x="424" 
d="M151 457q-9 5 -12 15.5t3 19.5q25 36 43 57q7 7 18 7t18 -7q8 -8 7.5 -18.5t-7.5 -18.5q-12 -13 -17 -21q-4 -5 -18 -25q-6 -9 -15.5 -12t-19.5 3zM324 308q4 15 18 17.5t25 -7t6 -24.5q-29 -106 -115 -142q-32 -13 -67 -15t-68 9q-36 14 -54 47t-19 75q-1 28 8.5 58
t29.5 55t48 33q19 6 37 0.5t32.5 -18t23.5 -30t10 -35.5q1 -16 -11.5 -22.5t-26 0t-14.5 22.5q0 5 -4 12.5t-11.5 14t-14.5 7.5q-24 3 -45 -44q-8 -19 -10.5 -42t5 -46t25.5 -34q24 -12 52.5 -11t54.5 12q62 25 85 108z" />
    <glyph glyph-name="Ccaron" unicode="&#x10c;" horiz-adv-x="454" 
d="M181 816q-13 20 -44 68q-8 13 0 25.5t21.5 12.5t23.5 -12q5 -8 16 -24.5t16 -25.5q7 -10 12 -19q1 1 2 1q13 19 15 21q6 9 18 25l15 20q14 19 36 8q21 -11 11 -30l-2 -4q-9 -11 -26 -34.5t-25 -34.5q-2 -2 -7 -10t-8 -11l-8.5 -8.5t-11 -7.5t-11.5 -2q-7 1 -12.5 3.5
t-10 8t-7.5 9.5t-7.5 11.5t-5.5 9.5zM353 305q1 16 14.5 22t26 0t10.5 -22q-4 -39 -15 -76.5t-31 -73t-53 -57t-74 -21.5q-60 1 -101.5 38t-58.5 97q-36 123 -10 313q5 36 11.5 64.5t19 63t33.5 60.5t49 39q28 15 60 13t59 -13.5t45 -36.5t19 -58q0 -15 -12.5 -21.5t-25.5 0
t-14 21.5q0 23 -16.5 37.5t-40.5 17.5q-52 8 -83 -33q-21 -29 -34.5 -71t-17.5 -74.5t-7 -79.5q-10 -156 18 -240q14 -43 47.5 -67.5t76.5 -16.5q26 5 46 24t31.5 46t18 53t9.5 52z" />
    <glyph glyph-name="ccaron" unicode="&#x10d;" horiz-adv-x="424" 
d="M114 468q-29 47 -43 68q-9 13 -0.5 25.5t21.5 12.5t23 -12q5 -7 10.5 -16t11.5 -18t10 -16q7 -10 13 -19l1 1q14 19 16 21q6 9 18 25l15 20q14 19 36 8q20 -11 11 -30q-1 -2 -3 -4q-8 -12 -25 -35t-26 -34l-5 -7.5l-5 -7.5t-5.5 -7t-6.5 -6.5t-6.5 -5t-8 -4t-9.5 -1.5
q-6 0 -11.5 3t-10 8.5t-7.5 9.5t-7.5 11.5t-6.5 9.5zM324 308q4 15 18 17.5t25 -7t6 -24.5q-29 -106 -115 -142q-32 -13 -67 -15t-68 9q-36 14 -54 47t-19 75q-1 45 22 90t64 56q24 7 48 -4t39 -33t16 -46q1 -16 -11.5 -22.5t-26 0t-14.5 22.5q0 9 -9.5 21t-20.5 13
q-24 3 -45 -44q-8 -19 -10.5 -42t5 -46t25.5 -34q24 -12 52.5 -11t54.5 12q62 25 85 108z" />
    <glyph glyph-name="Dcaron" unicode="&#x10e;" horiz-adv-x="452" 
d="M179 816q-34 54 -44 68q-8 13 0 25.5t21.5 12.5t23.5 -12q5 -8 16 -24.5t16 -25.5q2 -4 6.5 -11t5.5 -8q1 1 2 1l15 21q4 5 8.5 11.5t8 11.5t8 11t8.5 11q14 19 36 8q21 -11 11 -30l-2 -4q-9 -11 -26 -34.5t-25 -34.5q-2 -2 -7 -10t-8 -11l-8.5 -8.5t-11 -7.5t-11.5 -2
q-7 1 -12 3.5t-10 8t-8 9.5t-7.5 11.5t-5.5 9.5zM401 534q9 -146 -68 -272t-211 -184q-6 -16 -25 -17t-25 18q-12 44 -18 132q-7 123 -1 317q6 152 14 237q2 15 15.5 21.5t25.5 0t11 -21.5q-4 -39 -8 -108q-2 -26 -3 -57q14 29 30 54t33.5 43.5t41.5 34t48.5 16t53.5 -12.5
q76 -40 86 -201zM310 326q49 99 38 221q-11 138 -73 148q-16 3 -32 -4.5t-27.5 -18t-24 -29.5t-18.5 -30t-15 -29q-40 -81 -56 -158v-77v-36v-36.5t0.5 -37t2 -37t3.5 -36.5t6 -36q63 29 114 80.5t82 115.5z" />
    <glyph glyph-name="dcaron" unicode="&#x10f;" horiz-adv-x="485" 
d="M288 711q2 16 15.5 22.5t25.5 0t11 -22.5q-19 -180 -24 -269q-5 -96 -3 -167q3 -81 15 -126q5 -15 -6 -25t-25 -7t-18 18q-15 51 -18 118q-3 -4 -13 -17q-18 -23 -30 -37.5t-33.5 -31t-41.5 -22.5q-40 -12 -65.5 15t-27.5 69q-2 47 23 89.5t67 64.5q30 15 62.5 15
t59.5 -15q0 8 2 53q5 91 24 275zM247 328v2h1q-30 24 -65.5 14t-59.5 -43q-26 -36 -21 -78q2 -14 7.5 -22.5t15.5 -7.5q15 3 41 28q23 21 43 49q22 30 38 58zM403 735q31 -21 31.5 -56t-29.5 -57q-9 -6 -19.5 -3t-15.5 12q-12 20 9 35q6 5 5 12.5t-7 11.5q-13 9 -12 24
t12.5 21.5t25.5 -0.5z" />
    <glyph glyph-name="dmacron" unicode="&#x111;" horiz-adv-x="447" 
d="M372 546q16 0 22.5 -13t0 -26t-22.5 -13h-52q-2 -30 -4 -52q-5 -96 -3 -167q3 -81 15 -126q5 -15 -6 -25t-25 -7t-18 18q-15 51 -18 118q-3 -4 -13 -17q-13 -17 -22 -28t-23.5 -25.5t-29.5 -24t-30 -13.5q-40 -12 -65.5 15t-27.5 69q-1 31 10 61t32 54t48 39
q30 15 62.5 15t59.5 -15q0 8 2 53q2 26 4 58h-38q-15 0 -21.5 13t0 26t21.5 13h42q5 55 16 165q2 22 25 25q21 2 26 -16q1 -4 1 -9q-12 -111 -16 -165h48zM247 328q0 1 0.5 1.5l0.5 0.5q-30 24 -65.5 14t-59.5 -43q-26 -36 -21 -78q2 -14 7.5 -22.5t15.5 -7.5q15 3 41 28
q23 21 43 49q22 30 38 58z" />
    <glyph glyph-name="Emacron" unicode="&#x112;" horiz-adv-x="556" 
d="M191 821q-16 0 -22 13t0 25.5t22 12.5h142q16 0 22.5 -12.5t0 -25.5t-22.5 -13h-142zM454 325q5 15 20 17.5t25 -7t5 -24.5q-48 -135 -124 -197q-44 -36 -96 -46t-105 11q-54 22 -89 69.5t-39 105.5q-8 99 42 172q30 45 82 70q-35 21 -54 55q-18 33 -17.5 69.5t17.5 70.5
t46 54t62 23.5t66.5 -4.5t62.5 -29.5t46 -51.5q4 -9 3 -17t-7 -13.5t-13.5 -8t-15 0.5t-12.5 12q-20 35 -58 52t-77.5 6t-57.5 -50q-27 -56 11 -101t99 -42q16 0 22.5 -12.5t0 -25.5t-22.5 -14q-110 -8 -152 -93q-15 -31 -20.5 -69t1.5 -72q6 -28 22.5 -52.5t40.5 -41
t53 -23.5q35 -8 67.5 2t57.5 31t47 52t36 60t25 61z" />
    <glyph glyph-name="emacron" unicode="&#x113;" horiz-adv-x="418" 
d="M118 473q-16 0 -22.5 12.5t0 25.5t22.5 13h98q16 0 22.5 -13t0 -25.5t-22.5 -12.5h-98zM316 308q5 14 19.5 17t25 -6.5t5.5 -24.5q-21 -60 -65 -111.5t-98 -65.5q-38 -9 -68.5 2t-48.5 36t-27.5 59t-8.5 69t12 68.5t32 55.5q18 21 46 30t53 0q22 -7 32 -27.5t8 -44.5
q-2 -30 -23 -51.5t-50 -31t-60 -8.5q0 -55 25 -86q10 -12 23.5 -17.5t27.5 -4.5t28 6.5t26 15.5q28 21 51 53.5t35 66.5zM137 378q-20 -16 -30 -53q32 1 56 15.5t19 38.5q-2 7 -7.5 9.5t-12.5 1t-13.5 -5t-11.5 -6.5z" />
    <glyph glyph-name="Edot" unicode="&#x116;" horiz-adv-x="556" 
d="M250 819q-16 0 -22.5 13t0 26t22.5 13t22 -13t0 -26t-22 -13zM454 325q5 15 20 17.5t25 -7t5 -24.5q-48 -135 -124 -197q-44 -36 -96 -46t-105 11q-54 22 -89 69.5t-39 105.5q-8 99 42 172q30 45 82 70q-35 21 -54 55q-18 33 -17.5 69.5t17.5 70.5t46 54t62 23.5
t66.5 -4.5t62.5 -29.5t46 -51.5q4 -9 3 -17t-7 -13.5t-13.5 -8t-15 0.5t-12.5 12q-20 35 -58 52t-77.5 6t-57.5 -50q-27 -56 11 -101t99 -42q16 0 22.5 -12.5t0 -25.5t-22.5 -14q-110 -8 -152 -93q-15 -31 -20.5 -69t1.5 -72q5 -21 15.5 -40.5t25.5 -34.5t34.5 -26t40.5 -16
q35 -8 67.5 2t57.5 31t47 52t36 60t25 61z" />
    <glyph glyph-name="edot" unicode="&#x117;" horiz-adv-x="418" 
d="M167.5 463q-15.5 0 -22 12.5t0 25.5t22 13t22 -13t0 -25.5t-22 -12.5zM316 308q5 14 19.5 17t25 -6.5t5.5 -24.5q-21 -60 -65 -111.5t-98 -65.5q-38 -9 -68.5 2t-48.5 36t-27.5 59t-8.5 69t12 68.5t32 55.5q18 21 46 30t53 0q22 -7 32 -27.5t8 -44.5q-2 -30 -23 -51.5
t-50 -31t-60 -8.5q0 -55 25 -86q13 -16 32.5 -20t37.5 1.5t35 18.5q28 21 51 53.5t35 66.5zM137 378q-20 -16 -30 -53q32 1 56 15.5t19 38.5q-2 7 -7.5 9.5t-12.5 1t-13.5 -5t-11.5 -6.5z" />
    <glyph glyph-name="Eogonek" unicode="&#x118;" horiz-adv-x="556" 
d="M454 325q5 15 20 17.5t25 -7t5 -24.5q-48 -135 -124 -197q-44 -36 -96 -46q-35 -43 -28 -91q4 -31 28 -32q11 0 18.5 7t8.5 18q2 15 15.5 21.5t26 0.5t10.5 -22t-8.5 -30.5t-18 -25.5t-27.5 -16q-22 -8 -45.5 -1t-38.5 24q-16 20 -20.5 46t1 50.5t17.5 49.5q-23 3 -44 12
q-54 22 -89 69.5t-39 105.5q-8 99 42 172q30 45 82 70q-35 21 -54 55q-18 33 -17.5 69.5t17.5 70.5t46 54t62 23.5t66.5 -4.5t62.5 -29.5t46 -51.5q4 -9 3 -17t-7 -13.5t-13.5 -8t-15 0.5t-12.5 12q-20 35 -58 52t-77.5 6t-57.5 -50q-27 -56 11 -101t99 -42q16 0 22.5 -12.5
t0 -25.5t-22.5 -14q-110 -8 -152 -93q-15 -31 -20.5 -69t1.5 -72q5 -21 15.5 -40.5t25.5 -34.5t34.5 -26t40.5 -16q35 -8 67.5 2t57.5 31t47 52t36 60t25 61z" />
    <glyph glyph-name="eogonek" unicode="&#x119;" horiz-adv-x="417" 
d="M316 308q5 14 19.5 17t25 -6.5t5.5 -24.5q-21 -60 -65 -111.5t-98 -65.5l-0.5 -0.5l-0.5 -0.5q-35 -43 -28 -91q4 -32 28 -32q11 -1 18.5 6.5t8.5 17.5q2 16 15.5 22.5t25.5 0t11 -22.5q-3 -25 -17 -45t-37 -27q-22 -7 -45.5 -0.5t-38.5 24.5q-17 19 -21 46t2 52t18 50
q-49 13 -74 69t-17 119.5t43 101.5q12 13 28.5 22t35 11.5t35.5 -3.5q22 -7 32 -27.5t8 -44.5q-3 -44 -43 -68t-90 -23q0 -55 25 -86q13 -16 32.5 -20t37.5 1.5t35 18.5q28 21 51 53.5t35 66.5zM137 378q-20 -16 -30 -53q32 1 56 15.5t19 38.5q-2 7 -7.5 9.5t-12.5 1
t-13.5 -5t-11.5 -6.5z" />
    <glyph glyph-name="Ecaron" unicode="&#x11a;" horiz-adv-x="556" 
d="M221 816q-34 54 -43 68q-9 13 -1 25.5t21.5 12.5t23.5 -12q5 -7 10.5 -16t11.5 -18t10 -16q1 -2 2.5 -4l3 -4t2.5 -3.5t2.5 -4t2.5 -3.5l1 1l15 21q4 5 8.5 11.5t8.5 11.5t8.5 11t7.5 11q14 19 36 8q21 -11 11 -30l-2 -4q-9 -11 -26 -34.5t-25 -34.5q-2 -2 -7 -10t-8 -11
t-8 -8.5t-10.5 -7.5t-12.5 -2q-6 1 -11.5 3.5t-10.5 8t-7.5 9.5t-7 11.5t-6.5 9.5zM454 325q5 15 20 17.5t25 -7t5 -24.5q-48 -135 -124 -197q-44 -36 -96 -46t-105 11q-54 22 -89 69.5t-39 105.5q-8 99 42 172q30 45 82 70q-35 21 -54 55q-18 33 -17.5 69.5t17.5 70.5
t46 54t62 23.5t66.5 -4.5t62.5 -29.5t46 -51.5q4 -9 3 -17t-7 -13.5t-13.5 -8t-15 0.5t-12.5 12q-20 35 -58 52t-77.5 6t-57.5 -50q-27 -56 11 -101t99 -42q16 0 22.5 -12.5t0 -25.5t-22.5 -14q-110 -8 -152 -93q-15 -31 -20.5 -69t1.5 -72q10 -43 41.5 -75t74.5 -42
q35 -8 67.5 2t57.5 31t47 52t36 60t25 61z" />
    <glyph glyph-name="ecaron" unicode="&#x11b;" horiz-adv-x="418" 
d="M105 490l-9 13.5t-9 14t-8.5 13t-9 13.5t-8.5 14q-8 13 0 25t21.5 12.5t23.5 -11.5q5 -9 15.5 -25.5t16.5 -24.5q2 -4 6.5 -11t5.5 -9l2 2l15 21q5 7 16 22t17 22q14 20 36 8q21 -11 11 -30l-2 -4q-9 -11 -26 -34t-26 -35q-1 -2 -6.5 -9.5t-8 -11t-8 -8.5t-11 -7
t-11.5 -2q-7 0 -12.5 2.5t-10 8t-7.5 9.5t-7.5 11.5t-5.5 10.5zM316 308q5 14 19.5 17t25 -6.5t5.5 -24.5q-21 -60 -65 -111.5t-98 -65.5q-38 -9 -68.5 2t-48.5 36t-27.5 59t-8.5 69t12 68.5t32 55.5q18 21 46 30t53 0q22 -7 32 -27.5t8 -44.5q-2 -30 -23 -51.5t-50 -31
t-60 -8.5q0 -55 25 -86q13 -16 32.5 -20t37.5 1.5t35 18.5q28 21 51 53.5t35 66.5zM137 378q-20 -16 -30 -53q32 1 56 15.5t19 38.5q-2 9 -11 10t-18 -2.5t-16 -8.5z" />
    <glyph glyph-name="gbreve" unicode="&#x11f;" horiz-adv-x="573" 
d="M308 420q-38 -1 -59.5 28t-28.5 69q-2 16 9.5 25.5t25 7t15.5 -18.5q2 -12 3.5 -17.5t5 -16.5t9.5 -17t14 -8q21 -4 32 14.5t12 40.5q0 16 13 22.5t25.5 0t12.5 -22.5q0 -42 -24.5 -74t-64.5 -33zM504 148q15 -3 18 -16.5t-6.5 -24.5t-25.5 -9q-35 7 -71 6
q1 -104 -13 -169q-15 -69 -50.5 -125t-92.5 -82q-29 -14 -62.5 -16.5t-64 5t-54 30.5t-29.5 58q-12 65 21 130.5t88 116.5q88 80 205 98q0 3 -0.5 22.5t-0.5 30.5l-0.5 1.5t-0.5 2.5q-5 -7 -10 -12q-26 -30 -60 -34.5t-63 25.5q-30 40 -24 89t39 85q46 52 108 27
q-2 12 -2 13q-1 15 11 21.5t25.5 0t15.5 -21.5q10 -104 13 -245q43 1 86 -7zM358 322v2q-20 19 -41.5 18t-38.5 -25q-7 -10 -12.5 -24t-7 -29t3 -28.5t15.5 -21.5q9 -4 16 -2.5t15.5 9t13.5 14.5l10 14q25 42 26 73zM367 33q2 29 1 66q-117 -21 -197 -111q-43 -49 -60 -101
q-23 -67 5 -101q14 -18 43.5 -23t47.5 0q39 8 69 34q82 71 91 236z" />
    <glyph glyph-name="Imacron" unicode="&#x12a;" horiz-adv-x="322" 
d="M92 799q-16 0 -22.5 13t0 26t22.5 13h142q16 0 22 -13t0 -26t-22 -13h-142zM185 723q-3 -33 -6 -87q-10 -160 -9 -298v-28v-29v-29t0.5 -29t2 -29t3 -29t4 -28.5t5.5 -27.5q35 2 53 3q16 0 22.5 -12.5t0 -25.5t-22.5 -14q-57 -3 -163 -8q-16 -1 -22.5 11.5t0 25.5
t22.5 14l58 3q-7 34 -11 97q-8 120 -1 309q5 132 12 208q-17 -1 -50 -2q-15 -1 -21.5 11.5t0 26t21.5 13.5q28 2 82.5 4.5t81.5 4.5q15 1 21.5 -12t0 -26t-21.5 -14q-11 0 -31.5 -1t-30.5 -2z" />
    <glyph glyph-name="imacron" unicode="&#x12b;" horiz-adv-x="395" 
d="M182 473q16 0 22.5 -13t0 -26t-22.5 -13h-107q-16 0 -22.5 13t0 26t22.5 13h107zM298 314q8 13 21 13t21.5 -12.5t1.5 -26.5q-43 -86 -94 -123q-17 -12 -36 -18.5t-40 -3.5t-36 18q-28 29 -32 106q-2 5 -0.5 57.5t1.5 57.5q0 16 13 22.5t26 0t13 -22.5q-1 -12 -2 -43.5
t0 -48.5q1 -61 13 -84q6 -12 14 -13q20 -1 45 21q36 32 71 100z" />
    <glyph glyph-name="Idot" unicode="&#x130;" horiz-adv-x="322" 
d="M163.5 798q-15.5 0 -22 13t0 25.5t22 12.5t22 -12.5t0 -25.5t-22 -13zM185 723q-3 -33 -6 -87q-10 -160 -9 -298v-36v-41.5t1 -36t2.5 -41t4.5 -35.5t7 -39q35 2 53 3q16 0 22.5 -12.5t0 -25.5t-22.5 -14q-57 -3 -163 -8q-16 -1 -22.5 11.5t0 25.5t22.5 14l58 3
q-7 34 -11 97q-8 120 -1 309q5 132 12 208q-17 -1 -50 -2q-15 -1 -21.5 11.5t0 26t21.5 13.5q28 2 82.5 4.5t81.5 4.5q15 1 21.5 -12t0 -26t-21.5 -14q-11 0 -31.5 -1t-30.5 -2z" />
    <glyph glyph-name="dotlessi" unicode="&#x131;" horiz-adv-x="342" 
d="M244 314q9 13 22 13t21.5 -12.5t1.5 -26.5q-44 -86 -94 -123q-17 -12 -36.5 -18.5t-40 -3.5t-35.5 18q-28 29 -32 106q-2 5 -0.5 57.5t1.5 57.5q0 16 13 22.5t25.5 0t12.5 -22.5q0 -12 -1 -43.5t0 -48.5q0 -61 12 -84q7 -12 15 -13q20 -1 45 21q36 32 70 100z" />
    <glyph glyph-name="Lslash" unicode="&#x141;" horiz-adv-x="462" 
d="M387 116q7 -1 12.5 -3.5t8 -7t4 -9.5t0 -9.5t-4 -8.5t-8 -6.5t-12.5 -2.5q-40 0 -109.5 -26t-109.5 -26q-10 0 -17 7q-5 4 -8 12q-12 44 -18 127q-4 73 -4 162l-38 -38q-4 -3 -8 -4.5t-8 -0.5t-7.5 3t-6 5.5t-3.5 7.5t0.5 8.5t5.5 7.5l66 67q1 41 2 89q5 144 14 230
q2 22 25 25q21 2 26 -16q1 -4 1 -9q-4 -39 -8 -107q-5 -83 -7 -160l57 58q5 5 11 5.5t11 -3t8 -8t2.5 -11t-5.5 -11.5l-86 -86v-80v-31v-35t0.5 -31t1.5 -34.5t2.5 -31.5t4.5 -34.5t6 -30.5q22 0 95.5 24.5t103.5 22.5z" />
    <glyph glyph-name="lslash" unicode="&#x142;" horiz-adv-x="326" 
d="M248 446q10 7 19 1t9 -16t-9 -18q-12 -8 -27.5 -19t-31.5 -21.5t-28 -18.5v-38q1 -32 1.5 -51.5t3 -50.5t7.5 -53.5t13.5 -48.5t20.5 -47q8 -13 0 -25.5t-21 -12.5t-23 12q-30 51 -43 134q-10 68 -11 145q-17 -11 -50 -34q-10 -7 -19 -1t-9 16.5t9 18.5l69 47
q1 40 4 90.5t5.5 76t10 95t8.5 80.5q2 15 15.5 21.5t25.5 0.5t11 -22q-2 -15 -4 -33t-4 -37t-4 -33q-12 -115 -15 -203q22 15 67 45z" />
    <glyph glyph-name="Nacute" unicode="&#x143;" horiz-adv-x="481" 
d="M227 775q-9 5 -12 15.5t2 19.5q26 36 44 57q7 7 18 7t18 -7q8 -8 7.5 -18.5t-7.5 -18.5q-12 -13 -17 -21q-4 -5 -18 -25q-6 -9 -15.5 -12t-19.5 3zM340 98zM339 98h1h-1zM430 754q-3 -9 -5 -18t-3.5 -20t-2.5 -18.5t-1.5 -20.5t-0.5 -19v-21v-20q-1 -38 2 -200
q2 -114 -1 -176q-3 -93 -17 -136q-20 -60 -64 -58q-43 3 -82 68q-29 50 -59 143q-25 76 -51 184q-5 21 -12 49q1 -98 -2 -180q0 -4 -1 -33.5t-1.5 -37.5t-2 -33t-3.5 -37.5t-5 -32.5t-7 -36.5t-10 -32.5q-5 -14 -19.5 -17t-25 6.5t-4.5 24.5q13 38 20 112q11 114 11 258
t-5 258q-1 24 -2 36q0 16 13.5 22t25.5 -1q11 -4 14 -17q12 -48 35 -156t37 -164q25 -101 49 -171q28 -84 56 -127q7 -12 13 -18l8 -8l3 -3l6 -3h-1h1l1 -1q0 -1 3 -1v1q2 1 4 5q3 4 4 7l2 6q7 22 11 49q5 38 7 84.5t2 75.5t-2 88.5t-2 78.5q-2 107 0 160q3 80 14 114
q5 15 19.5 18t25 -6.5t5.5 -24.5z" />
    <glyph glyph-name="nacute" unicode="&#x144;" horiz-adv-x="533" 
d="M166 461q-8 5 -11.5 16t2.5 19q25 36 43 57q7 8 18.5 7.5t18.5 -7.5q7 -8 7 -18.5t-7 -18.5q-12 -13 -17 -20q-4 -6 -18 -26q-7 -9 -16.5 -11.5t-19.5 2.5zM432 308q5 14 19.5 17t25 -6.5t4.5 -24.5q-21 -60 -60 -105t-94 -47q-35 -2 -58 21t-32 61q-2 11 -6 32t-6 30
q-4 18 -8 27q-5 10 -10 12q-15 7 -31 -14q-18 -22 -32 -71q-26 -88 -23 -184q1 -12 -7 -19q-9 -13 -25.5 -11.5t-19.5 18.5q-38 210 -1 421q3 15 16.5 18t25 -6.5t8.5 -25.5q-15 -86 -17 -175q34 98 93 102q24 1 41.5 -11t26.5 -29.5t14 -41.5q1 -5 3.5 -24.5t5.5 -32.5
t9.5 -26.5t16.5 -17.5q26 -9 59 18q39 31 62 95z" />
    <glyph glyph-name="Ncaron" unicode="&#x147;" horiz-adv-x="481" 
d="M190 773q-34 54 -43 68q-9 13 -1 25.5t21.5 12.5t23.5 -12q6 -8 16.5 -24.5t15.5 -25.5l4 -6t4.5 -7t4.5 -6l1 1l15 21q6 8 17 23t17 22q14 19 35 8t11 -30l-2 -4q-8 -11 -25 -34.5t-26 -34.5q-1 -2 -6.5 -9.5t-8.5 -11t-8 -9t-10.5 -7.5t-12.5 -2q-6 1 -11.5 3.5
t-10.5 8t-7.5 9.5t-7 11.5t-6.5 9.5zM340 98zM339 98h1h-1zM430 754q-3 -9 -5 -18t-3.5 -20t-2.5 -18.5t-1.5 -20.5t-0.5 -19v-21v-20q-1 -38 2 -200q2 -114 -1 -176q-3 -93 -17 -136q-20 -60 -64 -58q-43 3 -82 68q-29 50 -59 143q-25 76 -51 184q-5 21 -12 49
q1 -98 -2 -180q0 -4 -1 -33.5t-1.5 -37.5t-2 -33t-3.5 -37.5t-5 -32.5t-7 -36.5t-10 -32.5q-5 -14 -19.5 -17t-25 6.5t-4.5 24.5q13 38 20 112q11 114 11 258t-5 258q-1 24 -2 36q0 16 13.5 22t25.5 -1q11 -4 14 -17q12 -48 35 -156t37 -164q25 -101 49 -171q28 -84 56 -127
q7 -12 13 -18l8 -8l3 -3l6 -3h-1h1l1 -1q0 -1 3 -1v1q2 1 4 5q3 4 4 7l2 6q7 22 11 49q5 38 7 84.5t2 75.5t-2 88.5t-2 78.5q-2 107 0 160q3 80 14 114q5 15 19.5 18t25 -6.5t5.5 -24.5z" />
    <glyph glyph-name="ncaron" unicode="&#x148;" horiz-adv-x="533" 
d="M139 473q-6 9 -14 21.5t-16 24.5l-14 21q-8 14 0 26t21.5 12.5t23.5 -12.5q5 -8 15.5 -24.5t16.5 -25.5q2 -3 6.5 -10t5.5 -9q1 1 1 2q6 7 16 20q5 8 16 23t17 22q14 19 36 8q21 -11 11 -30q-1 -2 -3 -4q-7 -9 -16 -21.5t-18.5 -25t-16.5 -22.5q-1 -2 -6.5 -9.5t-8 -11
t-8 -8.5t-11 -7.5t-12.5 -1.5q-6 0 -11.5 2.5t-10 8t-7.5 9.5t-7.5 11.5t-5.5 10.5zM432 303q5 15 19.5 17.5t25 -7t5.5 -23.5q-22 -61 -61 -105.5t-94 -46.5q-35 -2 -58 21t-32 60q-2 11 -6 32.5t-6 30.5q-4 18 -8 27q-5 9 -10 12q-15 7 -31 -14q-18 -22 -32 -71
q-26 -89 -23 -184q1 -12 -7 -19q-9 -13 -25.5 -12t-19.5 19q-38 210 -1 421q3 15 16.5 18t25 -7t8.5 -25q-15 -87 -17 -175q34 98 93 102q34 2 54 -21.5t28 -60.5q1 -6 3 -20t4 -25t5 -23.5t9 -21t14 -11.5q26 -9 59 18q39 31 62 94z" />
    <glyph glyph-name="Omacron" unicode="&#x14c;" horiz-adv-x="453" 
d="M154 778q-16 0 -22.5 13t0 25.5t22.5 12.5h141q16 0 22.5 -12.5t0 -25.5t-22.5 -13h-141zM401 487q6 -98 -1 -176q-10 -112 -48 -174q-39 -64 -102 -75q-36 -6 -71.5 4.5t-60.5 36.5q-47 48 -61 154q-13 98 -1 216q26 269 167 275h3.5h3.5q155 -6 171 -261zM351 387
q0 80 -4 129q-18 179 -120 180q-60 -1 -92 -91q-28 -78 -32 -198q-4 -109 10 -177q17 -79 57 -104q21 -13 47.5 -14.5t47.5 9.5q40 20 62 85q24 70 24 181z" />
    <glyph glyph-name="Ohungarumlaut" unicode="&#x150;" horiz-adv-x="453" 
d="M156 766q-9 5 -12 16t2 19q25 36 44 57q7 8 18 7.5t18 -7.5q8 -8 7.5 -18t-7.5 -19q-12 -13 -17 -20q-4 -6 -18 -26q-6 -9 -16 -11.5t-19 2.5zM263 762q-9 5 -12 15.5t3 19.5q25 36 43 57q7 7 18 7t18 -7q8 -8 7.5 -18.5t-7.5 -18.5q-11 -13 -17 -21q-4 -5 -18 -25
q-6 -9 -15.5 -11.5t-19.5 2.5zM401 487q6 -98 -1 -176q-10 -112 -48 -174q-39 -64 -102 -75q-17 -3 -35.5 -1.5t-35.5 6.5t-33 14t-28 22q-47 48 -61 154q-13 98 -1 216q26 269 167 275h3.5h3.5q155 -6 171 -261zM351 387q0 80 -4 129q-18 179 -120 180q-60 -1 -92 -91
q-28 -78 -32 -198q-4 -109 10 -177q17 -79 57 -104q21 -13 47.5 -14.5t47.5 9.5q40 20 62 85q24 70 24 181z" />
    <glyph glyph-name="ohungarumlaut" unicode="&#x151;" horiz-adv-x="456" 
d="M95 440q-9 5 -12 15.5t2 19.5q25 36 44 56q7 8 18 8t18 -8t7 -18t-7 -18q-12 -13 -17 -21q-4 -5 -18 -25q-6 -9 -16 -12t-19 3zM202 435q-9 5 -12 16t3 20q25 35 43 56q7 8 18 7.5t18 -7.5q8 -8 7.5 -18t-7.5 -18q-11 -14 -17 -21q-4 -5 -18 -26q-6 -8 -15.5 -11t-19.5 2
zM403 314q11 -20 -9 -35q-57 -44 -130 -53q-2 -10 -5 -18q-21 -58 -77 -68q-24 -4 -45.5 1.5t-38 19t-28.5 34.5q-38 69 -7 146q14 35 37.5 59t56.5 25q4 1 8 0q8 0 16 -2q46 -8 68.5 -49t21.5 -95q50 8 96 44q9 6 20 2.5t16 -11.5zM193 199q12 9 18 28q-51 9 -82 47
q-14 17 -22 39q-2 -8 -3 -15q-3 -18 -2 -35.5t9 -35t21 -28.5q12 -10 30 -10t31 10zM218 280q0 48 -15 71q-5 8 -16.5 15.5t-21.5 8.5q-4 -1 -8 -1h-2q-6 -8 -4 -22t6 -25q14 -35 56 -46h2.5t2.5 -1z" />
    <glyph glyph-name="Racute" unicode="&#x154;" horiz-adv-x="414" 
d="M196 753q-9 5 -12 16t3 20q25 35 43 56q7 8 18 7.5t19 -7.5q7 -8 7 -18t-7 -18l-18 -21q-4 -5 -18 -26q-6 -8 -15.5 -11t-19.5 2zM353 164q19 -14 8 -36q-11 -21 -30 -11l-4 3q-120 88 -211 105q-1 -96 -6 -158q-1 -16 -14.5 -22.5t-25.5 0t-11 22.5q3 37 4 111
q3 140 0 299q-3 178 -13 260q-2 16 10.5 22t26 -0.5t15.5 -21.5q5 -48 9 -131v-7v-5q44 107 126 111q50 2 81 -30.5t34.5 -83.5t-11 -98t-45.5 -87.5t-64 -72.5t-78 -65q92 -25 199 -104zM141 516q-20 -83 -24 -212q111 81 153 153q36 62 31 133q-2 34 -19 50q-12 11 -31 13
t-34 -4q-17 -8 -30.5 -22.5t-22 -35.5t-13.5 -36.5t-10 -38.5z" />
    <glyph glyph-name="racute" unicode="&#x155;" horiz-adv-x="504" 
d="M162 440q-9 5 -12 15.5t3 19.5q25 36 43 56q7 8 18 8t19 -8q7 -8 7 -18t-7 -18q-12 -13 -18 -21q-4 -5 -18 -25q-6 -9 -15.5 -12t-19.5 3zM441 323q8 -6 11.5 -16.5t-2.5 -19.5q-31 -40 -77.5 -45t-86.5 26q-11 8 -29 26t-24 22q-26 23 -46 21q-28 -5 -47 -66
q-17 -51 -21 -123q-1 -29 -1 -56q1 -14 1 -25q1 -2 1 -9q0 -1 1 -4q2 -19 -15 -29q-10 -6 -22.5 -2.5t-14.5 17.5q-38 210 -1 421q3 15 16.5 18t25 -7t8.5 -25q-11 -61 -15 -123q23 43 60 58q54 22 117 -39q15 -14 22.5 -20.5t23.5 -17.5t27.5 -13.5t26 2t25.5 19.5
q16 21 36 10z" />
    <glyph glyph-name="Rcaron" unicode="&#x158;" horiz-adv-x="414" 
d="M173 765q-6 8 -14 21t-15.5 25t-14.5 22q-8 13 0 25t21.5 12.5t23.5 -11.5q5 -9 15.5 -25.5t16.5 -24.5q2 -4 6.5 -11t5.5 -9l1 2q6 7 16 21q5 7 16 22t17 23q14 19 36 7q21 -11 11 -30q-1 -2 -3 -4q-7 -9 -16 -21.5l-18 -25t-17 -22.5q-1 -2 -6.5 -9.5t-8 -11t-8 -8.5
t-11 -7t-12.5 -2q-6 0 -11.5 2.5t-10 8t-7.5 9.5t-7.5 11.5t-5.5 10.5zM353 164q13 -9 11.5 -24.5t-12.5 -21.5t-25 2q-120 88 -211 105q-1 -96 -6 -158q-1 -16 -14.5 -22.5t-25.5 0t-11 22.5q3 37 4 111q3 140 0 299q-3 178 -13 260q-2 16 10.5 22t26 -0.5t15.5 -21.5
q5 -48 9 -131v-4v-4v-4q44 107 126 111q50 2 81 -30.5t34.5 -83.5t-11 -98t-45.5 -87.5t-64 -72.5t-78 -65q92 -25 199 -104zM141 516q-20 -83 -24 -212q111 81 153 153q36 62 31 133q-2 34 -19 50q-12 11 -31 13t-34 -4q-17 -8 -30.5 -22.5t-22 -35.5t-13.5 -36.5
t-10 -38.5z" />
    <glyph glyph-name="rcaron" unicode="&#x159;" horiz-adv-x="504" 
d="M156 451q-42 66 -44 68q-8 13 0 25t21.5 12.5t23.5 -11.5q5 -8 16 -25t16 -25q2 -4 6.5 -11t5.5 -8q1 1 2 1l15 21q5 6 11 14t11.5 16.5t10.5 14.5q14 19 36 7q21 -11 11 -30q-1 -1 -2 -3q-9 -12 -26 -35t-25 -34q-2 -2 -7 -10t-8 -11.5t-8.5 -8.5t-11 -7t-11.5 -2
q-7 0 -12.5 2.5t-10 8t-7.5 9.5t-7.5 12t-5.5 10zM441 323q8 -6 11.5 -16.5t-2.5 -19.5q-31 -40 -77.5 -45t-86.5 26q-6 5 -13.5 11.5t-13 12t-13 12.5t-13.5 12q-26 23 -46 21q-28 -5 -47 -66q-17 -51 -21 -123q-1 -29 -1 -56q1 -14 1 -25q1 -2 1 -9q0 -1 1 -4
q2 -19 -15 -29q-10 -6 -22.5 -2.5t-14.5 17.5q-38 210 -1 421q3 15 16.5 18t25 -7t8.5 -25q-11 -61 -15 -123q23 43 60 58q54 22 117 -39q11 -10 15.5 -14t16.5 -14t18.5 -13.5t18 -8t20 -3t18.5 6.5t18 16q16 21 36 10z" />
    <glyph glyph-name="Sacute" unicode="&#x15a;" horiz-adv-x="466" 
d="M220 766q-9 5 -12 16t3 19q25 36 43 57q7 8 18 7.5t18 -7.5q8 -8 7.5 -18t-7.5 -19q-11 -13 -17 -20q-4 -6 -18 -26q-6 -9 -15.5 -11.5t-19.5 2.5zM415 222q5 -97 -50 -157q-48 -53 -131 -56q-36 -1 -66.5 12.5t-51.5 36.5t-36 54t-22.5 63.5t-7.5 65.5q0 15 13 21.5
t25.5 0t13.5 -21.5q0 -53 17.5 -98t56.5 -68q32 -18 70.5 -14t66.5 26q30 23 42 62t8 79q-5 51 -57 100q-21 20 -65 50t-76 59t-50 63q-10 20 -14.5 42.5t-3.5 45.5t7.5 45t18 40.5t29.5 33t40 21.5q37 13 85.5 5.5t76.5 -36.5q35 -36 36 -121q0 -10 -5.5 -16.5t-13 -8
t-15 0t-13 8t-5.5 16.5q0 20 -2 34t-7.5 29.5t-17.5 25.5t-30 15q-57 13 -94 -10q-25 -16 -34 -55q-14 -62 18 -107q3 -5 7 -9.5t7.5 -8.5t9 -9t8.5 -8t9.5 -8.5t9 -7.5t10 -7.5t9.5 -7l10 -7.5t9 -7q29 -20 44.5 -32t39.5 -34.5t36.5 -41t23 -44.5t11.5 -54z" />
    <glyph glyph-name="sacute" unicode="&#x15b;" horiz-adv-x="495" 
d="M164 444q-9 5 -12 15.5t3 19.5q25 36 43 57q7 7 18 7t18 -7q8 -8 7.5 -18.5t-7.5 -18.5q-11 -13 -17 -21q-4 -5 -18 -25q-6 -9 -15.5 -11.5t-19.5 2.5zM420 322q15 1 21.5 -12t0 -26t-21.5 -13q-44 -1 -112 -36q-26 -13 -51 -29q1 0 1.5 -1t1.5 -2q48 -63 43 -129
q-2 -33 -22 -59t-51 -42q-62 -31 -114 -23q-33 5 -50.5 32.5t-15.5 63.5q2 40 44 90q32 39 86 79l-1 1q-16 18 -23.5 26t-17 25t-10.5 32q-4 35 12.5 62.5t48.5 35.5q36 8 67 -13t35 -57q1 -16 -11 -22.5t-25.5 0t-15.5 22.5q0 7 -9 13.5t-17 7.5q-11 2 -22 -6
q-10 -7 -12 -22t1 -23q6 -13 33 -41q4 -5 10 -10q112 75 197 76zM214 23q52 31 32 98q-8 27 -31 56q-16 -12 -30 -24q-53 -44 -73 -80q-6 -11 -9.5 -24t0 -27.5t15.5 -19.5q13 -6 32 -2.5t35 9.5t29 14z" />
    <glyph glyph-name="Scedilla" unicode="&#x15e;" horiz-adv-x="466" 
d="M415 222q5 -97 -50 -157q-41 -45 -109 -54q0 -4 -1 -7q-2 -8 -9 -34q54 -20 53 -81q-1 -42 -34 -63q-6 -3 -12.5 -5t-10.5 -3.5t-13 -2t-11.5 -0.5h-13.5h-12q-9 0 -15.5 5.5t-8 13t0 15t8 13t15.5 5.5q1 0 12.5 -0.5t16 0t12 2.5t11 7t4.5 13q2 33 -34 37
q-13 1 -21 10.5t-4 21.5q7 26 15 53q-49 7 -85 44.5t-52.5 85.5t-16.5 100q0 15 13 21.5t25.5 0t13.5 -21.5q0 -53 17.5 -98t56.5 -68q32 -18 70.5 -14t66.5 26q30 23 42 62t8 79q-5 51 -57 100q-21 20 -65 50t-76 59t-50 63q-10 20 -14.5 42.5t-3.5 45.5t7.5 45t18 40.5
t29.5 33t40 21.5q37 13 85.5 5.5t76.5 -36.5q35 -36 36 -121q0 -10 -5.5 -16.5t-13 -8t-15 0t-13 8t-5.5 16.5q0 20 -2 34t-7.5 29.5t-17.5 25.5t-30 15q-57 13 -94 -10q-25 -16 -34 -55q-14 -62 18 -107q3 -5 7 -9.5t7.5 -8.5t9 -9t8.5 -8t9.5 -8.5t9 -7.5t10 -7.5t9.5 -7
l10 -7.5t9 -7q29 -20 44.5 -32t39.5 -34.5t36.5 -41t23 -44.5t11.5 -54z" />
    <glyph glyph-name="scedilla" unicode="&#x15f;" horiz-adv-x="495" 
d="M420 322q15 1 21.5 -12t0 -26t-21.5 -13q-44 -1 -112 -36q-26 -13 -51 -29q1 0 1.5 -1t1.5 -2q48 -63 43 -129q-2 -33 -22 -59t-51 -42q-21 -11 -43 -17q-4 -14 -6 -20q55 -21 54 -81q-1 -42 -35 -63q-5 -3 -11.5 -5.5t-11 -3.5t-13.5 -1.5t-11.5 -0.5h-13.5h-12
q-15 0 -21.5 13t0 25.5t21.5 12.5h13.5t15.5 0.5t12 2.5t11.5 7t3.5 13q3 33 -34 36q-13 1 -20.5 10.5t-4.5 22.5q2 8 7 24q-8 1 -15 2q-33 5 -50.5 32.5t-15.5 63.5q2 40 44 90q32 39 86 79l-1 1q-10 11 -13.5 15t-12.5 14.5t-12.5 17t-7.5 17t-5 19.5q-4 35 12.5 62.5
t48.5 35.5q36 8 67 -13t35 -57q1 -16 -11 -22.5t-25.5 0t-15.5 22.5q0 7 -9 13.5t-17 7.5q-11 2 -22 -6q-10 -7 -12 -22t1 -23q6 -13 33 -41q4 -5 10 -10q112 75 197 76zM214 23q52 31 32 98q-8 27 -31 56q-16 -12 -30 -24q-53 -44 -73 -80q-6 -11 -9.5 -24t0 -27.5
t15.5 -19.5q18 -8 46 0t50 21z" />
    <glyph glyph-name="Scaron" unicode="&#x160;" horiz-adv-x="466" 
d="M205 786q-6 9 -14 22t-15.5 24.5t-14.5 21.5q-8 13 0 25.5t21.5 12.5t23.5 -12q5 -8 16 -24.5t16 -25.5q4 -6 12 -19q1 1 2 1l15 21q5 8 16.5 23t16.5 22q14 19 36 8q21 -11 11 -30l-2 -4q-9 -12 -26 -35t-25 -34q-2 -2 -7 -10t-8 -11l-8.5 -8.5t-11 -7.5t-11.5 -2
q-7 0 -12 3t-10 8.5t-8 9.5t-7.5 11.5t-5.5 9.5zM415 222q5 -97 -50 -157q-48 -53 -131 -56q-45 -2 -81 19t-57.5 55.5t-33.5 75t-12 82.5q0 15 13 21.5t25.5 0t13.5 -21.5q0 -53 17.5 -98t56.5 -68q32 -18 70.5 -14t66.5 26q30 23 42 62t8 79q-5 51 -57 100q-21 20 -65 50
t-76 59t-50 63q-10 20 -14.5 42.5t-3.5 45.5t7.5 45t18 40.5t29.5 33t40 21.5q37 13 85.5 5.5t76.5 -36.5q35 -36 36 -121q0 -10 -5.5 -16.5t-13 -8t-15 0t-13 8t-5.5 16.5q0 20 -2 34t-7.5 29.5t-17.5 25.5t-30 15q-57 13 -94 -10q-25 -16 -34 -55q-14 -62 18 -107
q3 -5 7 -9.5t7.5 -8.5t9 -9t8.5 -8t9.5 -8.5t9 -7.5t10 -7.5t9.5 -7l10 -7.5t9 -7q29 -20 44.5 -32t39.5 -34.5t36.5 -41t23 -44.5t11.5 -54z" />
    <glyph glyph-name="scaron" unicode="&#x161;" horiz-adv-x="495" 
d="M166 451q-42 66 -43 68q-9 13 -1 25t21.5 12.5t23.5 -11.5q5 -8 16 -25t16 -25q3 -4 7.5 -11t5.5 -8q0 1 1 1l15 21q6 7 17 22t16 23q14 19 36 7q21 -11 11 -30q-1 -1 -2 -3q-9 -12 -26 -35t-25 -34q-2 -2 -7 -10t-8 -11.5t-8 -8.5t-11 -7t-12 -2t-11.5 2.5t-10.5 8
t-7.5 9.5t-7 12t-6.5 10zM420 322q15 1 21.5 -12t0 -26t-21.5 -13q-44 -1 -112 -36q-26 -13 -51 -29q1 0 1.5 -1t1.5 -2q48 -63 43 -129q-2 -33 -22 -59t-51 -42q-62 -31 -114 -23q-33 5 -50.5 32.5t-15.5 63.5q2 40 44 90q32 39 86 79l-1 1q-16 18 -23.5 26t-17 25
t-10.5 32q-4 35 12.5 62.5t48.5 35.5q36 8 67 -13t35 -57q1 -16 -11 -22.5t-25.5 0t-15.5 22.5q0 7 -9 13.5t-17 7.5q-11 2 -22 -6q-10 -7 -12 -22t1 -23q6 -13 33 -41q4 -5 10 -10q112 75 197 76zM214 23q52 31 32 98q-8 27 -31 56q-16 -12 -30 -24q-53 -44 -73 -80
q-6 -11 -9.5 -24t0 -27.5t15.5 -19.5q13 -6 32 -2.5t35 9.5t29 14z" />
    <glyph glyph-name="Umacron" unicode="&#x16a;" horiz-adv-x="476" 
d="M172 722q-16 0 -22.5 13t0 25.5t22.5 12.5h142q15 0 21.5 -12.5t0 -25.5t-21.5 -13h-142zM425 50q4 -15 -6.5 -25t-25 -7t-18.5 18q-13 44 -18 130q-7 106 -3 254q-50 -182 -100 -292q-72 -158 -141 -93q-31 29 -46 109q-12 70 -16 179q-2 82 5 334q0 16 13.5 22.5t26 0
t12.5 -22.5q-8 -266 -4 -357q4 -99 16 -157q8 -35 16 -52q5 -10 9 -15l5 -5q1 0 2 -1l1 -1h2q1 0 4 3q9 7 20 25q24 37 51 107q48 123 95 309q19 73 32 132q6 29 9 49q1 7 3 14v4v4l0.5 0.5t0.5 1.5q1 13 11 19.5t21 4.5q21 -3 19 -24q0 -7 -1 -15q-3 -36 -7 -94
q-9 -164 -9 -305q1 -19 0.5 -36.5t0 -36.5t1 -37t2 -36.5t3.5 -36.5t5.5 -36t8.5 -35z" />
    <glyph glyph-name="umacron" unicode="&#x16b;" horiz-adv-x="375" 
d="M121 434q-15 0 -21.5 13t0 26t21.5 13h99q16 0 22.5 -13t0 -26t-22.5 -13h-99zM323 76q5 -15 -5 -24t-24.5 -6.5t-20.5 16.5q-19 45 -28 152q-2 16 -3 35q-66 -150 -145 -100q-15 10 -25 25.5t-14.5 31.5t-6.5 38.5t-1 39t2 39.5t1 34q0 15 13 21.5t25.5 0t12.5 -21.5
q0 -12 -0.5 -30t-1 -30.5t0 -29t2.5 -29.5q6 -35 18 -44q6 -5 16 -5q3 0 8 4q6 4 11.5 10t10.5 14t8.5 13.5t8.5 16.5t6.5 15t6.5 16.5t5 14.5q6 13 16.5 44t17.5 47q1 5 4 9q9 19 29 9q18 -5 18 -24q0 -82 7 -158q8 -100 27 -144z" />
    <glyph glyph-name="Uring" unicode="&#x16e;" horiz-adv-x="476" 
d="M225 682q-37 0 -58.5 28.5t-28.5 69.5q-3 15 8.5 24.5t25 7t16.5 -18.5q2 -12 3 -17.5t4.5 -16.5t9.5 -17t15 -8q20 -4 31.5 14.5t11.5 40.5q0 16 13 22.5t26 0t13 -22.5q-1 -42 -25 -74t-65 -33zM425 50q4 -15 -6.5 -25t-25 -7t-18.5 18q-13 44 -18 130q-7 106 -3 254
q-50 -182 -100 -292q-72 -158 -141 -93q-31 29 -46 109q-12 70 -16 179q-2 82 5 334q0 16 13.5 22.5t26 0t12.5 -22.5q-8 -266 -4 -357q4 -99 16 -157q8 -35 16 -52q5 -10 9 -15l5 -5q1 0 2 -1l1 -1h2q1 0 4 3q9 7 20 25q24 37 51 107q48 123 95 309q19 73 32 132q6 29 9 49
q1 7 3 14v4v4l0.5 0.5t0.5 1.5q1 13 11 19.5t21 4.5q21 -3 19 -24q0 -7 -1 -15q-3 -36 -7 -94q-9 -164 -9 -305q1 -19 0.5 -36.5t0 -36.5t1 -37t2 -36.5t3.5 -36.5t5.5 -36t8.5 -35z" />
    <glyph glyph-name="uring" unicode="&#x16f;" horiz-adv-x="375" 
d="M168 411q-25 1 -43.5 19.5t-18.5 44.5q1 17 9.5 32t23.5 23.5t32 8.5q25 0 43 -17t21 -41v-6v-6q-4 -26 -22.5 -43t-44.5 -15zM197 475q-1 15 -14 21.5t-25.5 0.5t-12.5 -22t12.5 -22.5t25.5 0t14 22.5zM323 76q8 -21 -13 -29q-21 -9 -34 9q-2 3 -3 6q-19 45 -28 152
q-2 16 -3 35q-66 -150 -145 -100q-15 10 -25 25.5t-14.5 31.5t-6.5 38.5t-1 39t2 39.5t1 34q0 15 13 21.5t25.5 0t12.5 -21.5q0 -12 -0.5 -30t-1 -30.5t0 -29t2.5 -29.5q6 -35 18 -44q6 -5 16 -5q3 0 8 4q6 4 11.5 10t10.5 14t8.5 13.5t8.5 16.5t6.5 15t6.5 16.5t5 14.5
q6 13 16.5 44t17.5 47q1 5 4 9q9 19 29 9q18 -5 18 -24q0 -82 7 -158q8 -100 27 -144z" />
    <glyph glyph-name="Uhungarumlaut" unicode="&#x170;" horiz-adv-x="476" 
d="M166 715q-9 5 -12 15.5t2 19.5q25 36 43 56q8 8 19 8t18 -8t7 -18t-7 -18q-12 -13 -17 -21q-4 -5 -18 -25q-6 -9 -16 -12t-19 3zM273 710q-9 5 -12 16t3 20q25 35 43 56q7 8 18 7.5t18 -7.5q8 -8 7.5 -18t-7.5 -18q-11 -14 -17 -21q-4 -5 -18 -26q-6 -8 -15.5 -11
t-19.5 2zM424 50q5 -15 -6 -25t-25 -7t-18 18q-13 44 -18 130q-7 106 -3 254q-50 -182 -100 -292q-72 -158 -141 -93q-31 29 -46 109q-13 70 -16 179q-2 83 5 335q1 15 14 21.5t25.5 0t12.5 -21.5q-8 -267 -5 -358q5 -99 17 -157q8 -35 16 -52q5 -10 9 -15l5 -5l2 -1
l1.5 -0.5l1.5 -0.5q1 0 4 3q9 7 20 25q24 37 51 107q48 123 95 309q19 73 32 132q6 29 9 49q2 6 3 14v3.5t1 4.5v0.5v1.5q1 13 11 19.5t21 4.5q21 -3 19 -24q0 -7 -1 -15q-3 -36 -7 -94q-9 -164 -9 -305v-36.5t0.5 -36.5t1 -37t1.5 -37t3.5 -36.5t6 -36t7.5 -34.5z" />
    <glyph glyph-name="uhungarumlaut" unicode="&#x171;" horiz-adv-x="375" 
d="M85 431q-9 5 -12 15.5t3 19.5q25 36 43 57q7 7 18 7t18 -7q8 -8 7.5 -18.5t-7.5 -18.5q-12 -13 -17 -21q-4 -5 -18 -25q-6 -9 -15.5 -11.5t-19.5 2.5zM192 427q-9 5 -12 15.5t3 19.5q25 36 43 56q7 8 18 8t19 -8q7 -8 7 -18t-7 -18q-12 -13 -18 -21q-3 -5 -17 -25
q-7 -9 -16.5 -12t-19.5 3zM323 76q5 -15 -5 -24t-24.5 -6.5t-20.5 16.5q-19 45 -28 152q-2 16 -3 35q-66 -150 -145 -100q-18 11 -29 29.5t-14 44t-3.5 44.5t1 49.5t1.5 40.5q0 15 13 21.5t25.5 0t12.5 -21.5q0 -12 -1 -37.5t-0.5 -45t2.5 -36.5q6 -35 18 -44q6 -5 16 -5
q3 0 8 4q6 4 11.5 10t10.5 14t8.5 13.5t8.5 16.5t6.5 15t6.5 16.5t5 14.5q6 13 16.5 44t17.5 47q1 5 4 9q9 19 29 9q18 -5 18 -24q0 -82 7 -158q8 -100 27 -144z" />
    <glyph glyph-name="Uogonek" unicode="&#x172;" horiz-adv-x="544" 
d="M443 -77q1 15 14.5 21.5t26 0t10.5 -21.5q-2 -26 -16 -45.5t-37 -27.5q-23 -7 -46 -0.5t-39 24.5q-19 24 -21.5 56.5t8 62.5t29.5 56q-10 40 -15 117q-7 106 -3 254q-50 -182 -100 -292q-72 -158 -141 -93q-31 29 -46 109q-12 70 -16 179q-2 82 5 334q0 16 13.5 22.5
t26 0t12.5 -22.5q-8 -266 -4 -357q4 -99 16 -157q8 -35 16 -52q5 -10 9 -15l5 -5q1 0 2 -1l1 -1h2q1 0 4 3q9 7 20 25q24 37 51 107q48 123 95 309q19 73 32 132q6 29 9 49q1 7 3 14v4v4l0.5 0.5t0.5 1.5q1 13 11 19.5t21 4.5q21 -3 19 -24q0 -7 -1 -15q-3 -36 -7 -94
q-9 -164 -9 -305q1 -19 0.5 -36.5t0 -36.5t1 -37t2 -36.5t3.5 -36.5t5.5 -36t8.5 -35q4 -15 -7 -25l-3 -3q-35 -44 -28 -92q4 -31 28 -32q7 0 13 3t10 9t5 13z" />
    <glyph glyph-name="uogonek" unicode="&#x173;" horiz-adv-x="434" 
d="M332 4q2 16 15.5 22.5t25.5 0t11 -22.5q-3 -25 -17 -45t-37 -27q-22 -7 -45.5 -0.5t-38.5 24.5q-19 22 -22 53t6 59.5t26 54.5q-17 47 -20 114q-63 -136 -139 -88q-18 11 -29 29.5t-14 44t-3.5 44.5t1 49.5t1.5 40.5q0 15 13 21.5t25.5 0t12.5 -21.5q0 -12 -0.5 -30
t-1 -30.5t0 -29t2.5 -29.5q6 -35 18 -44q6 -5 16 -5q3 0 8 4q5 3 9.5 7.5t8.5 10t7.5 10.5t7 12t5.5 12t5.5 12.5t5 12t4.5 12.5t4 11q6 13 16.5 44t17.5 47q1 5 4 8q9 20 29 10q18 -5 18 -24q0 -14 -1 -58t-0.5 -67t5 -57.5t14.5 -60.5q2 -5 3 -10q5 -14 -6 -23
q-34 -43 -28 -90q5 -31 29 -32q10 -1 18 6.5t9 17.5z" />
    <glyph glyph-name="Ydieresis" unicode="&#x178;" horiz-adv-x="449" 
d="M173 768q-16 0 -22 13t0.5 25.5t22 12.5t22 -12.5t0 -25.5t-22.5 -13zM272 768q-16 0 -22.5 13t0 25.5t22.5 12.5t22.5 -12.5t0 -25.5t-22.5 -13zM393 525q8 -139 5 -236q-5 -130 -31 -194q-16 -41 -46.5 -63t-69.5 -8q-44 16 -70.5 65.5t-35.5 105.5q-2 15 9.5 25t25 7
t15.5 -18q7 -47 29 -88q15 -29 31 -41q9 -7 21 -9h7h3q7 2 13 8q7 8 13 18q12 23 21 66q14 70 14 193q0 36 -1 76q-39 -132 -113 -150q-39 -10 -68 14.5t-47 66.5q-34 74 -53 200q-15 101 -15 163q0 10 5.5 16.5t13 8t15 0t13 -8t5.5 -16.5q0 -67 15 -163q18 -114 45 -174
q17 -39 35 -53l8 -4l5 -1q10 -1 21 5q25 13 47 60q17 37 30 99q23 109 17 231q-1 20 17.5 24.5t28.5 -9.5q7 -7 8 -17q1 -27 4 -63.5t5.5 -72t4.5 -63.5z" />
    <glyph glyph-name="Zacute" unicode="&#x179;" horiz-adv-x="516" 
d="M289 768q-12 0 -18.5 8t-6.5 17.5t6.5 17.5t18.5 8q16 0 22.5 -12.5t0 -25.5t-22.5 -13zM463 696q-96 -216 -199 -394q-49 -87 -146 -240q140 -17 299 14q15 3 25 -8t7 -24.5t-18 -16.5q-193 -38 -362 -9q-12 2 -17 15t1 23q118 186 167 272q92 161 180 352
q-23 -3 -132 0t-132 3q-16 0 -22.5 13t0 26t22.5 13q33 0 95.5 -2.5t113.5 -2.5t96 5q10 1 17 -5.5t7.5 -15.5t-2.5 -18z" />
    <glyph glyph-name="zacute" unicode="&#x17a;" horiz-adv-x="364" 
d="M159 384q-9 5 -12 15.5t2 19.5q25 36 44 56q7 8 18 8t18 -8q8 -7 7.5 -17.5t-7.5 -18.5q-12 -13 -17 -21q-4 -5 -18 -25q-6 -9 -15.5 -12t-19.5 3zM297 128q14 -6 16.5 -20.5t-6.5 -25t-24 -4.5q-20 8 -66 7q-7 -1 -80 -6q-2 0 -10 -0.5t-12.5 -1t-12.5 -0.5t-13 1t-12 2
t-11 4t-8 6.5t-6 9.5t-2 13q0 9 4 19t11.5 20t13 16.5t16.5 17t14 13.5q4 5 45.5 47.5t61.5 65.5q-62 11 -117 -6q-15 -5 -24.5 5.5t-7 25t17.5 19.5q90 28 186 -5q14 -4 17.5 -17.5t-6.5 -25.5q-36 -41 -120 -128q-29 -30 -42 -44q-3 -4 -5 -6q8 0 62 4q4 0 16.5 1t18 1.5
t17 1t18.5 0t16.5 -1.5t17.5 -3t16 -5zM102 111z" />
    <glyph glyph-name="Zdot" unicode="&#x17b;" horiz-adv-x="516" 
d="M245 770q-9 6 -12 16.5t3 19.5q25 36 43 56q7 8 18 7.5t19 -7.5q7 -8 7 -18t-7 -18l-18 -21q-3 -5 -17 -25q-7 -9 -16.5 -12t-19.5 2zM463 696q-96 -216 -199 -394q-49 -87 -146 -240q140 -17 299 14q15 3 25 -8t7 -24.5t-18 -16.5q-193 -38 -362 -9q-12 2 -17 15t1 23
q118 186 167 272q92 161 180 352q-23 -3 -132 0t-132 3q-16 0 -22.5 13t0 26t22.5 13q33 0 95.5 -2.5t113.5 -2.5t96 5q15 1 21.5 -12.5t0.5 -26.5z" />
    <glyph glyph-name="zdot" unicode="&#x17c;" horiz-adv-x="364" 
d="M181 390q-16 0 -22.5 12.5t0 25.5t22.5 13t22.5 -13t0 -25.5t-22.5 -12.5zM297 128q14 -6 16.5 -20.5t-6.5 -25t-24 -4.5q-20 8 -66 7q-7 -1 -80 -6q-2 0 -10 -0.5t-12.5 -1t-12.5 -0.5t-13 1t-12 2t-11 4t-8 6.5t-6 9.5t-2 13q0 9 4 19t11.5 20t13 16.5t16.5 17t14 13.5
q4 5 45.5 47.5t61.5 65.5q-62 11 -117 -6q-15 -5 -24.5 5.5t-7 25t17.5 19.5q90 28 186 -5q14 -4 17.5 -17.5t-6.5 -25.5q-36 -41 -120 -128q-29 -30 -42 -44q-3 -4 -5 -6q8 0 62 4q4 0 16.5 1t18 1.5t17 1t18.5 0t16.5 -1.5t17.5 -3t16 -5zM102 111z" />
    <glyph glyph-name="zcaron" unicode="&#x17e;" horiz-adv-x="364" 
d="M150 407q-5 5 -16 15t-17 15q-11 11 -6.5 24.5t17.5 17.5t26 -5q3 -4 9 -9.5t11.5 -11.5t10.5 -10q1 2 3.5 4t4 3.5l2.5 2.5q17 13 25 20q12 9 26.5 4t17.5 -17.5t-7 -23.5l-40 -31q-20 -16 -31 -17h-5.5t-4.5 0.5t-5 2t-4.5 2.5t-4.5 3.5t-4 3t-4 3.5zM297 128
q14 -6 16.5 -20.5t-6.5 -25t-24 -4.5q-20 8 -66 7q-7 -1 -80 -6q-2 0 -10 -0.5t-12.5 -1t-12.5 -0.5t-13 1t-12 2t-11 4t-8 6.5t-6 9.5t-2 13q0 9 4 19t11.5 20t13 16.5t16.5 17t14 13.5q4 5 45.5 47.5t61.5 65.5q-62 11 -117 -6q-15 -5 -24.5 5.5t-7 25t17.5 19.5
q90 28 186 -5q14 -4 17.5 -17.5t-6.5 -25.5q-36 -41 -120 -128q-29 -30 -42 -44q-3 -4 -5 -6q8 0 62 4q4 0 16.5 1t18 1.5t17 1t18.5 0t16.5 -1.5t17.5 -3t16 -5zM102 111z" />
    <glyph glyph-name="circumflex" unicode="&#x2c6;" horiz-adv-x="292" 
d="M237 587q10 -12 2 -24t-21.5 -12.5t-24.5 10.5q-6 8 -17 23t-16 22q-3 4 -8.5 11.5t-8.5 11.5q-7 -11 -12 -20q-6 -8 -16.5 -24.5t-15.5 -25.5q-9 -13 -24 -11.5t-21.5 12.5t0.5 25q8 12 23 36t23 36q1 1 5.5 9t7 11t7 8t9.5 7.5t11 2.5q9 0 17 -5t11.5 -8.5t11.5 -15.5
t9 -13l24 -33z" />
    <glyph glyph-name="caron" unicode="&#x2c7;" horiz-adv-x="292" 
d="M193 680q9 13 24.5 11.5t21.5 -12.5t-2 -25q-8 -11 -25 -34t-26 -35q-1 -2 -6.5 -9.5t-8 -11t-8 -8.5t-11 -7.5t-12.5 -1.5q-6 0 -11.5 2.5t-10 8t-7.5 9.5t-7.5 11.5t-5.5 10.5q-8 11 -22.5 33.5t-21.5 33.5q-8 14 0 26t21.5 12.5t23.5 -12.5q5 -8 15.5 -24.5
t16.5 -24.5q6 -11 12 -20q1 1 1 2q14 18 16 20q5 8 16 23t17 22z" />
    <glyph glyph-name="breve" unicode="&#x2d8;" horiz-adv-x="277" 
d="M175 652q1 15 14 21.5t25.5 0t12.5 -21.5q0 -42 -24.5 -74t-64.5 -33q-38 -1 -59.5 27.5t-28.5 69.5q-2 15 9.5 25t25 7t15.5 -18q2 -12 3 -17.5t5 -16.5t10 -17t14 -8q21 -4 32 14.5t11 40.5z" />
    <glyph glyph-name="dotaccent" unicode="&#x2d9;" horiz-adv-x="150" 
d="M75 647q16 0 22 -12.5t0 -25.5t-22 -13t-22.5 13t0 25.5t22.5 12.5z" />
    <glyph glyph-name="ogonek" unicode="&#x2db;" horiz-adv-x="261" 
d="M159 -56q1 16 15 22t26 0t10 -22q-2 -25 -16 -45t-37 -27t-46 -0.5t-38 24.5q-21 25 -22.5 60.5t11.5 66.5t33 57q10 12 23.5 7.5t17.5 -17.5t-4 -27q-35 -43 -29 -92q4 -31 29 -31q10 -1 18 6.5t9 17.5z" />
    <glyph glyph-name="ilde" unicode="&#x2dc;" horiz-adv-x="339" 
d="M240 658q9 12 24.5 10.5t21.5 -12.5t-2 -24q-22 -30 -51.5 -44t-61.5 1q-5 2 -12.5 8t-14.5 10.5t-15 5.5h-11t-7.5 -2.5t-6 -5.5t-6.5 -9q-9 -13 -22.5 -12.5t-21.5 12.5t0 26q16 27 41 37.5t55 2.5q9 -3 23 -14t21 -13q23 -8 46 23z" />
    <glyph glyph-name="endash" unicode="&#x2013;" horiz-adv-x="508" 
d="M433 339q16 -1 22.5 -14t0 -25.5t-22.5 -11.5q-89 6 -358 5q-16 0 -22.5 13t0 26t22.5 13q269 0 358 -6z" />
    <glyph glyph-name="emdash" unicode="&#x2014;" horiz-adv-x="633" 
d="M558 335q15 -1 21.5 -14t0 -25.5t-21.5 -11.5q-44 2 -222 4q-97 1 -261 1q-16 0 -22.5 13t0 26t22.5 13q165 0 261 -1q178 -2 222 -5z" />
    <glyph glyph-name="quoteleft" unicode="&#x2018;" horiz-adv-x="170" 
d="M106 636q21 -15 9 -35q-5 -9 -16 -12t-19 3q-30 22 -30 57t32 56q13 8 25 0t12.5 -21.5t-11.5 -23.5q-6 -4 -7 -11.5t5 -12.5z" />
    <glyph glyph-name="quoteright" unicode="&#x2019;" horiz-adv-x="170" 
d="M88 705q31 -21 31.5 -56t-29.5 -57q-9 -6 -19.5 -3t-15.5 12q-12 20 9 35q6 5 5 12.5t-7 11.5q-13 9 -12 24t12.5 21t25.5 0z" />
    <glyph glyph-name="quotedblleft" unicode="&#x201c;" horiz-adv-x="260" 
d="M196 636q21 -15 9 -35q-5 -9 -15.5 -12t-19.5 3q-30 22 -29.5 57t31.5 56q13 8 25.5 0t12.5 -21.5t-12 -23.5q-6 -4 -7 -11.5t5 -12.5zM108 660q-6 -4 -7 -11.5t5 -12.5q21 -15 9 -35q-5 -9 -16 -12t-19 3q-30 22 -30 57t32 56q13 8 25 0t12.5 -21.5t-11.5 -23.5z" />
    <glyph glyph-name="quotedblright" unicode="&#x201d;" horiz-adv-x="260" 
d="M88 705q31 -21 31.5 -56t-29.5 -57q-9 -6 -19.5 -3t-15.5 12q-12 20 9 35q6 5 5 12.5t-7 11.5q-13 9 -12 24t12.5 21t25.5 0zM178 705q32 -21 32 -56t-30 -57q-8 -6 -19 -3t-16 12q-12 20 9 35q6 5 5 12.5t-7 11.5q-13 9 -11.5 24t12.5 21t25 0z" />
    <glyph glyph-name="quotedblbase" unicode="&#x201e;" horiz-adv-x="260" 
d="M88 47q31 -21 31.5 -56t-29.5 -57q-9 -6 -19.5 -2.5t-15.5 11.5q-12 20 9 36q6 5 5 12.5t-7 11.5q-13 8 -12 23t12.5 21.5t25.5 -0.5zM178 47q32 -21 32 -56t-30 -57q-8 -6 -19 -2.5t-16 11.5q-12 20 9 36q6 5 5 12.5t-7 11.5q-13 8 -11.5 23t12.5 21.5t25 -0.5z" />
    <glyph glyph-name="dagger" unicode="&#x2020;" horiz-adv-x="436" 
d="M361 547q16 1 22.5 -12t0 -26t-22.5 -13l-127 -4q0 -300 1 -449q0 -10 -5.5 -16t-13 -7.5t-15 0t-13 8t-5.5 15.5q0 150 -1 448q-73 -3 -107 0q-16 1 -22.5 14.5t0 25.5t22.5 11q34 -3 107 0v59v59q0 15 12.5 21.5t25.5 0t13 -21.5v-116z" />
    <glyph glyph-name="daggerdbl" unicode="&#x2021;" horiz-adv-x="445" 
d="M370 547q9 1 15.5 -4.5t8 -13t0 -15t-8 -13t-15.5 -5.5l-128 -4q0 -42 0.5 -126.5t0.5 -126.5q16 1 37.5 1.5l43 1t37.5 0.5q16 1 22.5 -12t0 -26t-22.5 -13q-20 -1 -59.5 -2t-58.5 -1v-145q0 -9 -5 -15.5t-12.5 -8t-15.5 0t-13 8t-5 15.5q0 48 -1 143q-83 -3 -116 -1
q-16 2 -22.5 15.5t0 25.5t22.5 11q33 -3 116 1v253q-73 -3 -108 0q-15 1 -21.5 14.5t0 25.5t21.5 11q35 -3 107 0v59v59q0 15 13 21.5t26 0t13 -21.5v-116z" />
    <glyph glyph-name="bullet" unicode="&#x2022;" horiz-adv-x="233" 
d="M171 375q12 -17 11.5 -37.5t-10 -36.5t-28 -24t-39.5 -2q-23 6 -40 28.5t-15 48.5t27 39q6 3 13 3q5 5 11 9q18 9 37.5 -0.5t32.5 -27.5z" />
    <glyph glyph-name="ellipsis" unicode="&#x2026;" horiz-adv-x="347" 
d="M75 67q16 0 22 -12.5t0 -25.5t-22 -13t-22.5 13t0 25.5t22.5 12.5zM173.5 67q15.5 0 22 -12.5t0 -25.5t-22 -13t-22 13t0 25.5t22 12.5zM272.5 67q15.5 0 22 -12.5t0 -25.5t-22 -13t-22 13t0 25.5t22 12.5z" />
    <glyph glyph-name="perthousand" unicode="&#x2030;" horiz-adv-x="907" 
d="M394 634q5 14 20 17t25 -6.5t5 -24.5q-71 -195 -214 -585q-5 -15 -19.5 -17.5t-25 7t-4.5 24.5zM250 454q-34 -40 -84.5 -39t-83.5 42q-32 40 -32 91.5t40 86.5q9 7 21 5q29 27 74.5 23.5t72.5 -32.5q31 -38 27.5 -89.5t-35.5 -87.5zM204 480q21 18 28 48t-4 55
q-10 23 -43 28q-38 5 -45 -16q-7 -23 -31 -18q-10 -20 -5.5 -45.5t20 -42.5t36.5 -22.5t44 13.5zM830 240q31 -38 27 -89.5t-35 -87.5q-35 -40 -85.5 -39t-82.5 42q-32 40 -32.5 91.5t39.5 86.5q10 7 21 5q29 27 75 23.5t73 -32.5zM776 89q20 18 27.5 48t-3.5 55
q-10 23 -43 28q-38 5 -45 -16q-8 -23 -31 -18q-11 -20 -6 -45.5t20 -42.5t36.5 -23t44.5 14zM465 265q22 5 43 0t39.5 -19t30.5 -33q19 -31 15.5 -64t-19.5 -60.5t-46 -45t-63 -17.5q-48 0 -79 30.5t-34 78.5q-3 46 22.5 86t70.5 48q11 2 20 -4zM542 146q1 9 1 15q0 3 -3 12
t-11 19t-18 17.5t-21 8t-21 -8.5q-17 -16 -35 0q-22 -16 -28.5 -46.5t5.5 -56.5q14 -28 50.5 -29t57.5 21q18 19 23 48z" />
    <glyph glyph-name="guilsinglleft" unicode="&#x2039;" horiz-adv-x="213" 
d="M159 251q9 -13 1 -25t-21.5 -12.5t-23.5 11.5q-22 33 -40 62q-2 3 -8.5 12.5t-9 14.5t-5.5 13t-2 16q1 7 4.5 15t7 14t9 15t8.5 13q6 10 17 30t17 30q5 8 12.5 11t15 0.5t13.5 -7.5t7 -13.5t-3 -16.5l-29 -49q-5 -10 -16 -28q-1 -2 -3 -5t-4 -6.5t-3 -5.5q1 1 3 -2t4 -8
t3 -6q8 -13 15 -24q14 -23 31 -49z" />
    <glyph glyph-name="guilsinglright" unicode="&#x203a;" horiz-adv-x="213" 
d="M163 343q1 -8 -2 -16.5t-6 -14t-10 -15.5t-9 -13q-17 -28 -37 -59q-9 -13 -24 -11.5t-21.5 12.5t0.5 25q17 26 31 49q9 13 18 27q0 2 2 5l6 9l-7 10.5t-6 8.5q-7 12 -14 25l-28 49q-8 14 0.5 26t21.5 12.5t22 -12.5q6 -11 18.5 -32t18.5 -31q1 -3 9 -15.5t12 -21.5t5 -17
z" />
    <glyph glyph-name="Euro" unicode="&#x20ac;" horiz-adv-x="480" 
d="M379 181q7 22 31 17q21 -5 20 -23q0 -4 -1 -8q-16 -49 -71 -96q-48 -41 -98 -35t-83.5 45t-44.5 92q-4 22 -6 49h-47q-16 0 -22 12.5t0.5 25.5t21.5 13q15 1 46 1v11v9v47h-50q-10 0 -16.5 5t-7.5 13t0.5 15.5t7.5 12.5t16 6h26.5h26.5q1 12 2 20q17 124 98 175
q39 25 88 22t83 -35q12 -10 7 -24t-17.5 -18t-25.5 6q-25 22 -53.5 20.5t-54.5 -17.5t-42 -41q-27 -42 -33 -107h43.5h44.5q10 0 16.5 -5t8 -12.5t0 -15t-8 -13t-16.5 -5.5l-91 -1v-48v-19q29 0 87 1q16 0 22.5 -13t0 -26t-22.5 -13q-14 0 -43 -0.5t-44 -0.5q6 -91 55 -123
q42 -27 82 1q52 38 65 80z" />
    <glyph glyph-name="trademark" unicode="&#x2122;" horiz-adv-x="467" 
d="M215 665q12 0 16.5 -10t0 -19.5t-16.5 -9.5h-30h-30q-1 -62 -1 -66q4 -59 2 -83q-1 -12 -11 -16.5t-19 0t-8 16.5q2 24 -3 83q0 4 1 66h-15h-17.5h-14.5q-12 0 -17 9.5t0 19t17 9.5q48 1 146 1zM406 659q11 -4 11 -17q-3 -84 -5 -166q0 -12 -9.5 -17t-19 0t-9.5 17
q1 50 3 115q-13 -15 -21 -26q-7 -12 -20 -9q-6 0 -12 5q-14 13 -30 28q2 -54 -1 -108q0 -11 -10 -16t-19.5 0t-8.5 16q3 80 -2 159q-1 14 11 18q12 7 22 -4q23 -27 50 -52q8 10 23.5 27.5t22.5 26.5q9 11 24 3z" />
    <glyph glyph-name="approxequal" unicode="&#x2248;" horiz-adv-x="439" 
d="M93 400q-10 -12 -23.5 -7.5t-17.5 17.5t5 27q17 19 42 24.5t48.5 0.5t47.5 -17q4 -2 15 -8t16.5 -8.5t14.5 -6t17.5 -5t16.5 -1.5q40 0 69 29q12 11 26 6t17.5 -17.5t-6.5 -24.5q-30 -29 -69.5 -39.5t-78.5 0.5q-8 3 -21 9.5t-24.5 13t-25.5 12t-25.5 8.5t-23.5 0
t-20 -13zM344 295q12 11 26 6t17.5 -17.5t-6.5 -25.5q-30 -29 -69.5 -39.5t-78.5 1.5q-9 3 -25 11.5t-30.5 15.5t-30.5 13t-30 3.5t-24 -13.5q-10 -12 -23.5 -7.5t-17.5 17.5t5 26q17 20 42 25.5t48.5 0t47.5 -17.5l15 -7.5t16.5 -8t14.5 -6.5t17.5 -5.5t16.5 -1.5
q40 1 69 30z" />
    <glyph glyph-name="notequal" unicode="&#x2260;" horiz-adv-x="414" 
d="M345 245q16 -3 19 -17t-7 -25t-25 -8q-54 10 -134 10q-9 -21 -26.5 -65t-26.5 -66q-6 -15 -20.5 -17.5t-25 7t-4.5 23.5t12.5 30t11.5 29t11.5 29.5t11.5 28.5q-47 -1 -67 -1q-16 0 -22.5 13t0 26t22.5 13q1 0 88 1q26 66 47 121q-25 -2 -70.5 -6.5t-64.5 -5.5
q-16 -2 -22 10.5t0.5 26t21.5 14.5t70 6.5t85 7.5q22 60 41 114q5 15 19.5 17.5t24.5 -7t5 -24.5q-15 -44 -35 -99q29 -1 54 -3q15 -2 21.5 -15.5t0 -26t-21.5 -10.5q-33 4 -73 3q-22 -57 -48 -123q74 -1 127 -11z" />
    <glyph glyph-name="lessequal" unicode="&#x2264;" horiz-adv-x="370" 
d="M301 182q16 -3 18.5 -17t-7 -25t-24.5 -8q-24 5 -54 7t-51 1.5t-56.5 -2t-51.5 -1.5t-22.5 12.5t0 25.5t22.5 13.5t44.5 1.5t47.5 1.5t43.5 0t47 -2.5t43.5 -7zM58 374q-10 9 -7.5 21.5t12.5 19.5q94 60 176 136q12 11 26 5.5t17.5 -17.5t-6.5 -24q-73 -67 -155 -123
q18 -12 58 -31q7 -3 100 -48q13 -8 13 -21t-12.5 -21.5t-26.5 -1.5q-15 6 -39.5 17.5t-42 19.5t-39 19t-40 23.5t-34.5 25.5z" />
    <glyph glyph-name="greaterequal" unicode="&#x2265;" horiz-adv-x="370" 
d="M301 182q15 -3 18 -17t-6.5 -25t-25.5 -8q-24 5 -53.5 7t-50.5 1.5t-56.5 -2t-51.5 -1.5t-22.5 12.5t0 25.5t22.5 13.5t44 1.5t47.5 1.5t44 0t47 -2.5t43.5 -7zM102 260q-14 -7 -27 2t-13 21.5t14 20.5q93 45 99 48q40 19 59 31q-83 56 -155 123q-12 11 -7 24.5
t17.5 17.5t25.5 -6q83 -75 177 -136q10 -6 12 -19t-7 -21q-20 -17 -46.5 -33t-46 -25.5t-54 -25t-48.5 -22.5z" />
    <glyph glyph-name="e.alt1" unicode="&#xf000;" horiz-adv-x="300" 
d="M198 110q5 15 19.5 17.5t25 -7t5.5 -24.5q-10 -30 -36.5 -47.5t-56.5 -18.5t-60 9q-75 30 -91 136q-5 45 -2.5 88t19 86t44.5 75q19 22 45 34t51 7q27 -6 40 -29t10 -51q-7 -58 -54 -98t-106 -40q-3 -53 12 -100q10 -29 28 -46q13 -11 29 -16q10 -3 13 -3q6 -1 11 -1
q44 -1 54 29zM70 334q-6 -17 -11 -35q38 4 66 29q16 14 27 35t8 39q-2 7 -7 10t-11.5 2t-12.5 -4t-11 -7q-29 -21 -48 -69z" />
    <glyph glyph-name="a.alt1" unicode="&#xf001;" horiz-adv-x="338" 
d="M285 155q9 -20 -12 -29q-21 -8 -34 10l-3 5q-16 38 -23 92q-31 -50 -73 -74q-20 -13 -43.5 -18t-47 1.5t-37.5 26.5q-18 27 -8 86q7 38 29 68q27 38 76 58.5t96 10.5v70q0 16 12.5 22.5t25.5 0t13 -22.5q0 -111 2 -149q5 -105 27 -158zM111 201q58 32 92 132q1 3 3 5
q-13 4 -25 4q-24 1 -49 -7q-27 -9 -47 -29.5t-28 -49.5q-16 -59 11 -65q18 -3 43 10z" />
    <glyph glyph-name="b.alt1" unicode="&#xf002;" horiz-adv-x="318" 
d="M221 390q27 -13 38.5 -41t8 -57.5t-18.5 -54.5q-9 -16 -21.5 -28t-27 -20.5t-31.5 -14t-34 -8.5t-35 -3q-16 0 -22.5 13t0 26t22.5 13q73 0 102 43q8 13 12.5 32t-1 36.5t-23.5 20.5q-26 4 -55 -7.5t-48 -30.5q-29 -31 -30 -77q0 -3 -1 -6q4 -44 13 -77q4 -15 -6.5 -25
t-24.5 -7t-19 18q-17 63 -18.5 149.5t4.5 151.5q5 91 24 275q2 22 25 25q21 2 26 -16q1 -4 0 -9q-18 -180 -23 -269q-3 -51 -4 -94q5 5 9 8q31 26 71 36q57 14 88 -2z" />
    <glyph glyph-name="c.alt1" unicode="&#xf003;" horiz-adv-x="300" 
d="M304 308q13 21 37 14q21 -5 14 -24l-2 -4q-68 -121 -164 -148q-31 -11 -72.5 -8.5t-68.5 21.5q-33 24 -42.5 66t-1.5 88q7 44 30.5 79.5t61.5 48.5q43 15 81.5 -9.5t41.5 -70.5q1 -16 -11.5 -22.5t-26 0t-14.5 22.5q0 12 -12.5 23.5t-26.5 10.5q-34 -2 -55 -37
q-18 -30 -22 -69t12 -71q9 -16 28.5 -23.5t37.5 -6.5t38 5q78 18 137 115z" />
    <glyph glyph-name="d.alt1" unicode="&#xf004;" horiz-adv-x="342" 
d="M240 711q1 16 14.5 22.5t26 0t10.5 -22.5q-18 -180 -23 -269v-2v-1v-5q0 -7 -1 -16q-4 -80 -2 -143q2 -81 15 -126q4 -15 -6.5 -25t-25 -7t-18.5 18q-17 59 -19 140q-34 -71 -73 -105q-14 -12 -30.5 -19t-33.5 -8.5t-32.5 6.5t-25.5 26q-27 48 -9 107.5t62 90.5
q31 21 66 17.5t59 -27.5q1 0 1 0.5v1.5q10 25 16 46q2 7 5 17v8q5 91 24 275zM142 257q14 22 27 48q-9 37 -47 34q-35 -2 -58 -53q-13 -30 -10 -66q3 -32 26 -26q27 8 62 63z" />
    <glyph glyph-name="f.alt1" unicode="&#xf005;" horiz-adv-x="157" 
d="M177 433h-61.5h-62.5q-1 -125 13 -340q1 -16 -11.5 -22t-26 0.5t-14.5 21.5q-10 147 -12 249q-1 59 -1 91h-17q-16 0 -22.5 12.5t0 25.5t22.5 13h18q3 94 20 163q28 115 104 116q15 1 21.5 -12t0 -26t-21.5 -13q-11 0 -19 -6q-3 -2 -9 -10q-1 0 -4 -4q-3 -5 -5 -9
q-11 -20 -17.5 -44t-10 -53.5t-4.5 -49t-2 -52.5h122q16 0 22.5 -13t0 -25.5t-22.5 -12.5z" />
    <glyph glyph-name="g.alt1" unicode="&#xf006;" horiz-adv-x="336" 
d="M349 319q20 14 29 -4q8 -16 -10 -32q-12 -10 -70 -57.5t-86 -74.5v-4t0.5 -5t0.5 -4q3 -153 -7 -225q-23 -162 -107 -207q-49 -27 -97 -9q-36 14 -51.5 50t-13.5 79q5 69 45 133.5t105 137.5q32 36 73 76v9v4.5v3.5q-5 -7 -11 -13q-26 -29 -60 -33.5t-62 25.5
q-30 40 -24.5 89t38.5 85q46 51 108 26l-1 13q-2 16 10.5 22.5t26 0t14.5 -22.5q8 -73 11 -162q61 47 139 99zM126 232q25 42 26 73v2q-20 19 -41.5 18t-38.5 -25q-10 -14 -15.5 -33t-3 -39.5t18.5 -30.5q13 -9 28 4t26 31zM162 1q2 42 0 101q-25 -26 -43 -46
q-57 -65 -90 -120q-38 -66 -40 -115q-2 -35 11.5 -57.5t45.5 -21.5q12 1 23 6q14 7 26 19q26 26 41.5 71t19.5 79.5t6 83.5z" />
    <glyph glyph-name="h.alt1" unicode="&#xf007;" horiz-adv-x="424" 
d="M453 308q14 20 24 8q8 -12 0 -35q-18 -49 -76 -94t-103 -45q-20 0 -35.5 8.5t-24.5 24.5t-12 37q-2 15 1.5 59t-2.5 56q-1 6 -2 6q0 1 -1 1q-8 3 -19 -1q-27 -10 -53 -51q-31 -47 -43.5 -105t-3.5 -114q4 -22 -17 -30.5t-30 7.5q-1 2 -2 3q-30 51 -42 135q-6 36 -9 73.5
t-2.5 80t1 73t4.5 80t6 73t8 79.5t8 74q2 16 15.5 22.5t25.5 0t11 -22.5q-2 -18 -6 -52.5t-6 -50.5q-17 -169 -16 -288q1 -77 7 -120q14 58 45 106q25 39 59 64t72 14q16 -4 26 -15.5t13 -26t4.5 -31t-0.5 -30.5q0 -2 -1.5 -16.5t-1 -24t2 -22t9 -19t20.5 -6.5q68 0 146 115
zM222 334z" />
    <glyph glyph-name="i.alt1" unicode="&#xf008;" horiz-adv-x="128" 
d="M28.5 434q-15.5 0 -22 13t0 26t22 13t22 -13t0 -26t-22 -13zM74 71q7 -14 -2 -26.5t-21.5 -12.5t-20.5 13q-17 37 -23 79.5t-7 98.5q0 30 1.5 85t1.5 74q0 10 5.5 16.5t13 8t15 0t12.5 -8t5 -16.5q0 -21 -1.5 -71t-0.5 -77q0 -39 1 -57.5t6 -50.5t15 -55z" />
    <glyph glyph-name="j.alt1" unicode="&#xf009;" horiz-adv-x="179" 
d="M16.5 430q-15.5 0 -22 13t0 25.5t22 12.5t22 -12.5t0 -25.5t-22 -13zM201 319q12 10 23 4.5t11 -17.5t-11 -23q-17 -15 -75 -60.5t-85 -71.5l0.5 -5.5t0.5 -7.5q3 -153 -7 -225q-23 -162 -107 -207q-49 -27 -97 -9q-36 14 -51.5 50t-13.5 79q5 69 45 133.5t105 137.5
q32 36 73 76v4v5q-3 107 -12 200q-2 16 10.5 22.5t26 0t14.5 -22.5q8 -73 11 -162q20 15 67 47.5t72 51.5zM14 1q1 42 0 101q-25 -26 -43 -46q-57 -65 -90 -120q-38 -66 -40 -115q-2 -35 11.5 -57.5t45.5 -21.5q12 1 23 6q14 7 26 19q26 26 41.5 71t19.5 79.5t6 83.5z" />
    <glyph glyph-name="k.alt1" unicode="&#xf00a;" horiz-adv-x="305" 
d="M236 205q21 -3 18 -25q-4 -21 -23 -24h-9l-160 23q11 -65 37 -109q8 -14 -0.5 -26.5t-21.5 -12.5t-23 12q-30 51 -42 135q-6 36 -9 73.5t-2.5 80t1 73t4.5 80t6 73t8 79.5t8 74q2 16 15.5 22.5t25.5 0t11 -22.5q-2 -18 -6 -52.5t-6 -50.5q-17 -169 -16 -288q1 -17 1 -29
q42 61 102 105q13 9 25 1.5t12.5 -21.5t-10.5 -24q-65 -47 -107 -123q27 -4 80.5 -12t80.5 -12z" />
    <glyph glyph-name="l.alt1" unicode="&#xf00b;" horiz-adv-x="116" 
d="M60 711q-18 -402 6 -655q1 -15 -11.5 -21.5t-26 0t-14.5 21.5q-24 253 -5 655q1 16 14 22.5t25.5 0t11.5 -22.5z" />
    <glyph glyph-name="m.alt1" unicode="&#xf00c;" horiz-adv-x="539" 
d="M473 121q5 -26 11 -35q9 -13 1 -25t-21.5 -12.5t-24.5 11.5q-4 6 -7.5 14.5t-5.5 15.5t-3.5 17.5t-2.5 16.5t-2 17.5t-1 15.5q-10 91 -14 109q-5 29 -12 44q-4 9 -8 14l-1 2l-2 2l-4 2q-8 3 -19 -5q-13 -9 -25 -32q-30 -54 -34 -151q0 -16 -13 -22.5t-25.5 0t-12.5 22.5
q0 82 -7 131q-3 19 -4.5 28t-6 27.5t-12 30t-16.5 17.5q-4 2 -7 2h-5q-6 -1 -13 -6q-15 -11 -32 -43q-29 -53 -51 -145q-20 -79 -22 -137q-1 -18 -18.5 -23.5t-27.5 6.5q-5 5 -7 13q-21 89 -17 234q3 116 17 192q3 15 16.5 18t24.5 -7t9 -25q-13 -66 -16 -178v-46l0.5 2
t0.5 3q30 106 70 155q23 28 51.5 36t59.5 -12q37 -28 51 -100q5 10 11 19q41 59 90 47q43 -10 61 -76q10 -34 19 -129q4 -39 7 -55z" />
    <glyph glyph-name="n.alt1" unicode="&#xf00d;" horiz-adv-x="327" 
d="M269 100q11 -12 6 -26t-17.5 -17.5t-24.5 6.5q-13 14 -20.5 35.5t-9.5 36.5t-4 41q-1 5 -1 8q-1 8 -2 29t-2 32t-4.5 28t-7.5 30q-7 20 -19.5 26t-28.5 -7q-15 -13 -26 -36.5t-15.5 -40t-10.5 -44.5q-17 -78 -11 -149q1 -16 -11 -22t-24 -1q-15 3 -18 18q-21 89 -17 234
q3 116 17 192q3 16 16.5 18.5t24.5 -7t9 -25.5q-12 -65 -16 -174q24 64 62 87q29 16 59.5 7t47.5 -38q4 -8 8 -16.5t6.5 -19.5t4 -18.5t3 -21t2 -18.5t1.5 -20.5t2 -18.5q0 -4 1 -21t2 -26t3 -22.5t6 -23t9 -15.5z" />
    <glyph glyph-name="o.alt1" unicode="&#xf00e;" horiz-adv-x="270" 
d="M200 365q27 -56 18 -129q-5 -47 -39.5 -76.5t-81.5 -22.5q-31 3 -53 22t-32.5 45.5t-11.5 56.5v3q1 46 19.5 89.5t54.5 61.5q36 17 73 1t53 -51zM145 197q32 25 20 106q-4 30 -20 52.5t-43 15.5q-13 -4 -23 -16.5t-16 -29t-8.5 -32.5t-2.5 -29q1 -48 27 -67
q14 -10 33 -10t33 10z" />
    <glyph glyph-name="p.alt1" unicode="&#xf00f;" horiz-adv-x="350" 
d="M233 406q30 -6 48 -29.5t18.5 -52t-7.5 -57.5q-18 -54 -64.5 -86.5t-102.5 -25.5q-16 2 -22 15.5t0 25.5t22 10q49 -6 85 26t39 81q1 9 -2 18q-5 14 -12 20q-19 14 -47 -2q-37 -22 -71 -99q-59 -133 -65 -282v-1q-1 -159 22 -242q5 -15 -6 -24.5t-25 -6.5t-18 18
q-15 53 -21 140q-12 191 20 528q1 16 14.5 22.5t26 0t10.5 -22.5q-5 -54 -8 -99q-1 -1 -2 -19q18 42 40 74q58 84 128 70z" />
    <glyph glyph-name="q.alt1" unicode="&#xf010;" horiz-adv-x="340" 
d="M238 396q2 16 15.5 22t25.5 0t11 -22q-2 -11 -3 -24v-6q0 -1 -0.5 -2.5l-0.5 -1.5q-2 -31 -5 -73q-11 -163 -12 -297q0 -5 -0.5 -34t-0.5 -38t0.5 -34t2 -38.5t3.5 -34t5 -37t8 -33.5q4 -15 -6.5 -24.5t-24.5 -7t-19 18.5q-12 44 -17 128q-10 168 4 372q-13 -16 -27 -28
q-67 -62 -135 -52q-37 6 -52 38.5t-7 70.5q8 40 39 70.5t71 39.5q23 7 59.5 2t58.5 -22q2 9 4 17q2 17 3 30zM174 251q20 22 35 47q-4 3 -7 8l-2 2l-10 5q-16 6 -37 7q-37 3 -65 -19q-32 -24 -36 -58q-5 -35 14 -41q47 -16 108 49z" />
    <glyph glyph-name="r.alt1" unicode="&#xf011;" horiz-adv-x="284" 
d="M228 400q16 0 22.5 -13t0 -26t-22.5 -13q-75 -1 -119 -115q-35 -92 -35 -190q-1 -16 -13.5 -22t-24.5 0q-13 3 -15 17q-43 231 0 427q3 15 17 18t25 -7t7 -25q-14 -67 -16 -169q-1 -25 0 -52q6 19 14 36q16 37 36.5 65t53 48t70.5 21z" />
    <glyph glyph-name="s.alt1" unicode="&#xf014;" horiz-adv-x="254" 
d="M273 309q24 4 25 -11q2 -15 -20 -22l-5 -1q-32 -7 -78 -26.5t-67 -37.5q11 -14 19 -27q19 -31 25.5 -65t-3.5 -69q-19 -55 -89 -82q-72 -28 -115 -7q-26 12 -37 41.5t-5 59.5q6 39 49 87q32 35 79 71q-16 17 -25 27q-37 45 -25 95q5 19 17.5 33t29.5 21t36 8
q16 0 22.5 -12.5t0 -25.5t-22.5 -14q-30 0 -34 -28q-3 -21 14 -42q10 -12 29 -33q73 45 180 60zM93 172q-3 5 -7 10q-7 -5 -12 -10q-50 -39 -77 -74q-29 -37 -23 -67q2 -13 9 -19.5t18.5 -7t20 1t21.5 4.5q61 17 76 54q18 46 -26 108z" />
    <glyph glyph-name="t.alt1" unicode="&#xf015;" horiz-adv-x="123" 
d="M99 -91q7 -5 9 -13.5t-1 -15.5t-8 -12.5t-12.5 -6t-15.5 4.5q-17 12 -28.5 35.5t-15 40.5t-7.5 45q-12 89 -12 202.5t6 203.5q2 56 11 183h-448q-16 0 -22.5 13t0 25.5t22.5 12.5h83h369q2 35 3 61q1 15 14.5 21.5t26 0t11.5 -21.5q-1 -24 -4 -61h167q16 0 22.5 -12.5
t0 -25.5t-22.5 -13h-83h-88q0 -1 -0.5 -4.5t-0.5 -5.5q-16 -235 -15 -391q1 -112 11 -177q5 -38 13 -62q3 -10 9 -19l1 -4h1q0 -1 3 -3z" />
    <glyph glyph-name="u.alt1" unicode="&#xf016;" horiz-adv-x="325" 
d="M249 137q7 -35 18 -46t6 -25t-17.5 -17.5t-25.5 6.5q-5 5 -9.5 11.5t-8 12.5t-6.5 15t-5 14.5t-3.5 17t-2.5 15.5t-2 17t-1 15t-1 16l-1 14q-2 28 -2 62q-41 -78 -79 -104q-24 -19 -53.5 -13t-43.5 34q-9 20 -11 42.5t0.5 58t2.5 44.5q0 15 13 21.5t25.5 0t12.5 -21.5
q0 -11 -2.5 -36.5t-2 -45.5t6.5 -36q9 -26 41 11q8 10 16.5 21t16 24t13 23t12.5 25.5t11 24.5t11.5 26.5l10.5 24.5q1 4 3 8q10 19 30 9q18 -5 18 -24q0 -142 1 -162q2 -52 8 -83z" />
    <glyph glyph-name="w.alt1" unicode="&#xf017;" horiz-adv-x="527" 
d="M559 327q15 -2 21.5 -15.5t0 -26t-21.5 -10.5q-59 7 -102 35q-10 -60 -24 -98q-30 -85 -81 -104q-35 -12 -66 3.5t-45 49.5q-3 6 -6 15q-9 -27 -20 -49q-35 -75 -93 -79q-50 -4 -79 56q-43 88 -43 257q0 16 13 22.5t26 0t13 -22.5q0 -73 10 -137q1 -2 1 -7
q14 -83 39 -110q11 -12 27 -6q20 8 39 47q9 17 16 35t13.5 42.5t9.5 35.5t9.5 43.5l7.5 37.5q4 17 20 18q12 3 22 -3.5t10 -20.5q0 -8 -0.5 -28.5t-0.5 -32t0.5 -28.5t3 -31.5t6.5 -27.5q7 -22 23.5 -30.5t36.5 5.5q27 20 47 90q10 37 23 115q2 14 18.5 18.5t24.5 -6.5
q37 -46 101 -53z" />
    <glyph glyph-name="v.alt1" unicode="&#xf018;" horiz-adv-x="298" 
d="M330 327q16 -2 22.5 -15.5t0 -26t-22.5 -10.5q-58 7 -99 34q-11 -93 -17 -119q-18 -89 -60 -115q-28 -16 -55.5 -7.5t-45.5 34.5q-12 19 -20.5 45.5t-11.5 44.5t-7 50q-3 20 -5.5 44t-4.5 52.5t-4 44.5q-2 21 19 25q22 3 30 -16q2 -4 3 -9q1 -8 5 -59.5t8 -78.5
q11 -83 31 -114q10 -15 19 -15q13 0 24 15q3 4 6 9.5t5.5 10.5t4.5 12t3.5 11t3.5 12.5t2.5 11.5t2 12.5t2 11.5t2 12.5t1.5 11.5q2 17 6.5 58.5t8.5 63.5q2 14 18 18.5t25 -6.5q36 -46 100 -53z" />
    <glyph glyph-name="x.alt1" unicode="&#xf019;" horiz-adv-x="336" 
d="M341 308q9 21 32 16q21 -4 20 -22l-2 -8q-25 -66 -55 -111q-52 -81 -112 -91q-17 -3 -32.5 2t-29.5 17.5t-23 23t-21 27.5q-10 -15 -22 -32.5t-25 -37t-22 -32.5t-24 -11.5t-21.5 12.5t0.5 25q55 82 83 122q-37 59 -68 133q-4 9 2 19t16 13q22 6 32 -18q21 -51 49 -99
q14 19 40.5 58.5t39.5 59.5q9 13 24 11.5t21 -12.5t-1 -25q-10 -15 -94 -140l2 -2t1 -2q23 -33 42 -51q9 -8 15 -11h1q4 0 10 1q40 9 82 80q23 39 40 85z" />
    <glyph glyph-name="y.alt1" unicode="&#xf01a;" horiz-adv-x="365" 
d="M254 151l0.5 -5.5t0.5 -7.5q2 -50 0.5 -112.5t-7.5 -112.5q-23 -162 -107 -207q-49 -27 -97 -9q-36 14 -51.5 50t-13.5 79q5 69 45 133.5t105 137.5q32 36 73 76v4v5q-1 41 -3 80q-36 -73 -78 -103q-24 -18 -56 -16.5t-50 27.5q-29 42 -9 138q3 15 16.5 18t25 -7t7.5 -25
q-6 -33 -6 -59q1 -30 10 -38q18 -16 53 24q53 60 77 164q0 13 11 19q10 7 24 1.5t17 -19.5v-4q8 -73 11 -162q67 56 121 90q21 14 34 1.5t-6 -28.5q-93 -80 -147 -132zM204 1q2 42 0 101q-25 -26 -43 -46q-57 -65 -90 -120q-38 -66 -40 -115q-2 -35 11.5 -57.5t45.5 -21.5
q12 1 23 6q14 7 26 19q26 26 41.5 71t19.5 79.5t6 83.5z" />
    <glyph glyph-name="z.alt1" unicode="&#xf01b;" horiz-adv-x="314" 
d="M247 128q14 -6 16.5 -20.5t-6.5 -25t-24 -4.5q-20 8 -66 7q-7 -1 -80 -6q-2 0 -10 -0.5t-12.5 -1t-12.5 -0.5t-13 1t-12 2t-11 4t-8 6.5t-6 9.5t-2 13q0 9 4 19t11.5 20t13.5 16.5t16.5 17l13.5 13.5q12 13 36.5 38t35.5 37q-48 -11 -80 5q-14 8 -14 20.5t13 21.5t27 2
q12 -6 44 3q12 3 28 8t31 9.5t27 7.5q19 6 28.5 -11t-3.5 -32q-36 -41 -120 -128q-29 -30 -42 -44q-2 -4 -5 -6q8 0 62 4q2 0 19 1.5t21.5 1.5t19 0.5t22 -0.5t18.5 -3t20 -6zM52 111z" />
    <glyph glyph-name="i.alt2" unicode="&#xf020;" horiz-adv-x="204" 
d="M225 314q8 13 19 12t14.5 -12t-2.5 -26q-23 -45 -75.5 -95.5t-100.5 -50.5q-28 0 -47 19q-28 29 -32 106q-2 5 -0.5 57.5t1.5 57.5q0 16 13 22.5t26 0t12 -22.5q0 -12 -1 -43.5t0 -48.5q0 -61 12 -84q7 -13 15 -13q23 0 46 13t44.5 37.5t31.5 37t24 33.5zM32 434
q-21 8 -32 25.5t-11 29.5q0 14 6.5 22.5t14.5 8.5q14 0 22 -18q8 18 21 18q9 0 15.5 -8.5t6.5 -22.5q0 -12 -11 -29.5t-32 -25.5z" />
    </font>
</defs>
</svg>
